<svg class="animated" id="freepik_stories-react" xmlns="http://www.w3.org/2000/svg" viewBox="0 0 500 500" version="1.1" xmlns:xlink="http://www.w3.org/1999/xlink" xmlns:svgjs="http://svgjs.com/svgjs"><style>svg#freepik_stories-react:not(.animated) .animable {opacity: 0;}svg#freepik_stories-react.animated #freepik--background-simple--inject-317 {animation: 3s Infinite  linear wind;animation-delay: 0s;}svg#freepik_stories-react.animated #freepik--speech-bubble--inject-317 {animation: 1.5s Infinite  linear floating;animation-delay: 0s;}            @keyframes wind {                0% {                    transform: rotate( 0deg );                }                25% {                    transform: rotate( 1deg );                }                75% {                    transform: rotate( -1deg );                }            }                    @keyframes floating {                0% {                    opacity: 1;                    transform: translateY(0px);                }                50% {                    transform: translateY(-10px);                }                100% {                    opacity: 1;                    transform: translateY(0px);                }            }        </style><g id="freepik--background-simple--inject-317" class="animable animator-active" style="transform-origin: 237.226px 229.501px;"><path d="M389.65,146.32l-2-3.3c-16.87-27.8-47.36-44.55-79.52-42.52a84,84,0,0,0-12.31,1.69c-29.23,6.26-54.67,28.37-65.22,56.68-6.2,16.65-7.93,35.82-19.7,49-15.31,17.2-41.31,17.74-64.17,17s-48.88-.1-64.12,17.17C73.06,252.92,70,268.3,70.8,282.79c2,38.35,28.76,72.64,62.74,89.68s74,18.57,111.19,11.07c52.1-10.5,101.65-39.35,131.43-83.9S413.48,194.4,389.65,146.32Z" style="fill: rgb(235, 235, 235); transform-origin: 237.226px 244.081px;" id="elpkmci76iig" class="animable"></path><g id="elyu6gs1s7lcp"><circle cx="152.58" cy="130.03" r="49.08" style="fill: rgb(235, 235, 235); transform-origin: 152.58px 130.03px; transform: rotate(-77.01deg);" class="animable"></circle></g></g><g id="freepik--speech-bubble--inject-317" class="animable" style="transform-origin: 358.835px 155.713px;"><path d="M302.7,204.41l11.51-20.29a54.33,54.33,0,1,1,13,14.49l0,0Z" style="fill: rgb(250, 250, 250); transform-origin: 358.763px 155.67px;" id="elv2mpghureh" class="animable"></path><path d="M302.7,204.41l24.52-5.9-.07.2,0,0a.14.14,0,0,1,0-.18.12.12,0,0,1,.16,0,56.25,56.25,0,0,0,11.13,6.63,54.12,54.12,0,0,0,14.8,4.17,48.76,48.76,0,0,0,8.53.4c1.46-.09,3-.12,4.46-.25l4.55-.7a54.36,54.36,0,0,0,33.57-21.64,53.64,53.64,0,0,0,9.06-20.77,54.87,54.87,0,0,0-.65-23.89c-.27-1-.5-2-.79-3s-.71-1.94-1.07-2.92a47.54,47.54,0,0,0-2.54-5.71,23.81,23.81,0,0,0-1.55-2.74c-.55-.9-1.08-1.81-1.65-2.7l-1.91-2.55-.95-1.28c-.32-.42-.71-.79-1.06-1.2L399.05,118c-.72-.81-1.58-1.48-2.36-2.22l-1.2-1.09a10.34,10.34,0,0,0-1.24-1c-.86-.64-1.72-1.28-2.57-1.93-.44-.3-.84-.66-1.3-.93l-1.37-.83-2.73-1.66-2.85-1.38a23.15,23.15,0,0,0-2.88-1.28,54.83,54.83,0,0,0-24.07-3.72,53.13,53.13,0,0,0-22.12,6.51,54.73,54.73,0,0,0-25.59,31.37,58.51,58.51,0,0,0-2.39,17.51A53.89,53.89,0,0,0,309,172.42a55.5,55.5,0,0,0,5.36,11.64.15.15,0,0,1,0,.13L302.7,204.41c.44-.77,4.08-7.27,11.4-20.35v.13a54.92,54.92,0,0,1-5.44-11.68A54.23,54.23,0,0,1,306,157.28a58.37,58.37,0,0,1,2.37-17.64A55.1,55.1,0,0,1,334.13,108a53.57,53.57,0,0,1,22.31-6.59,55.34,55.34,0,0,1,24.31,3.74,24.17,24.17,0,0,1,2.9,1.29c1,.47,1.93.92,2.88,1.4l2.75,1.67,1.38.84c.47.27.88.63,1.32.94l2.6,1.95a11.3,11.3,0,0,1,1.25,1l1.21,1.1c.79.75,1.65,1.43,2.38,2.25l2.22,2.43c.35.41.74.78,1.06,1.21l1,1.29,1.93,2.58c.57.89,1.11,1.81,1.67,2.72a25.17,25.17,0,0,1,1.56,2.77,47.86,47.86,0,0,1,2.57,5.77l1.07,2.94c.3,1,.53,2,.8,3a55.31,55.31,0,0,1,.64,24.12,54.16,54.16,0,0,1-9.16,21,54.71,54.71,0,0,1-33.88,21.76l-4.59.69c-1.51.13-3,.17-4.49.25a48.44,48.44,0,0,1-8.59-.43,54.51,54.51,0,0,1-14.88-4.24,55.43,55.43,0,0,1-11.16-6.72l.19-.18,0,0a.14.14,0,0,1,0,.19l-.05,0Z" style="fill: rgb(38, 50, 56); transform-origin: 358.835px 155.713px;" id="elt73jed416y" class="animable"></path><path d="M366.12,135l-1.5,23.81a3.88,3.88,0,0,1-3.63,3.61h0a3.87,3.87,0,0,1-4.07-3.43L354.28,135a3,3,0,0,1,3.05-3.36l5.81.08A3,3,0,0,1,366.12,135Z" style="fill: rgb(136, 96, 153); transform-origin: 360.196px 147.033px;" id="el5z04pz2z73p" class="animable"></path><path d="M354.68,175.77a5.81,5.81,0,1,0,3.68-7.35A5.82,5.82,0,0,0,354.68,175.77Z" style="fill: rgb(136, 96, 153); transform-origin: 360.193px 173.934px;" id="el5lv40t0kjx2" class="animable"></path></g><g id="freepik--Character--inject-317" class="animable" style="transform-origin: 238.459px 281.767px;"><path d="M159.49,245.36s-9.78,5.58-13.52,11.39-26.92,82.66-26.92,82.66c-2.22-5.75-3.6-13.44-4.68-21.86L92.24,318s-3.37,25.7-3.37,31.51-.24,60.13,20.95,63.45,38.65-29.5,42-40.3,15.79-40.62,15.79-40.62Z" style="fill: rgb(163, 105, 87); transform-origin: 128.24px 329.277px;" id="elff5rro5ripc" class="animable"></path><path d="M112.93,263a4.85,4.85,0,0,0-1.65-4.5,5.46,5.46,0,0,0-4-1.25c-4.28.3-12.82,7.81-16.21,8.84s-6.49,4.28-6,8.26,6.19,29,6.19,29v21.21h22l1-6.48s3.83-4.57,5-8,0-14.58,0-14.58l4.72-1.33s3.09-3.54,4-6.78-.44-5.89-3.69-5.6c0,0,1.18-5.45.74-6.92s-1.62-3.39-5.6-2.66c0,0,2.06-6.33-.59-8.4a6.61,6.61,0,0,0-5.89-.88Z" style="fill: rgb(163, 105, 87); transform-origin: 106.638px 290.894px;" id="elsif4ujm7gb" class="animable"></path><path d="M112.86,285.39a25.5,25.5,0,0,1,5.65-2.2,25.31,25.31,0,0,1,5.91-1.32,56.54,56.54,0,0,1-5.76,1.82A57.8,57.8,0,0,1,112.86,285.39Z" style="fill: rgb(137, 69, 54); transform-origin: 118.64px 283.63px;" id="el0niowmydacq" class="animable"></path><path d="M108.62,275.1a5.66,5.66,0,0,1,1.53-.79,33.35,33.35,0,0,1,3.91-1.46,17.42,17.42,0,0,1,4.12-.68,5.45,5.45,0,0,1,1.74.08c0,.18-2.64.2-5.72,1.1-1.54.45-2.91,1-3.91,1.31A5.47,5.47,0,0,1,108.62,275.1Z" style="fill: rgb(137, 69, 54); transform-origin: 114.27px 273.617px;" id="elyfjz2ufb4" class="animable"></path><path d="M89.29,276.84a2.42,2.42,0,0,1,0-1.18,6.68,6.68,0,0,1,1.41-2.9,13,13,0,0,1,3.74-2.95c1.55-.89,3.29-1.79,5.16-2.63a61.47,61.47,0,0,1,9.92-3.5c1.31-.33,2.38-.55,3.12-.69a4.34,4.34,0,0,1,1.16-.14,5.68,5.68,0,0,1-1.12.34c-.72.2-1.77.47-3.06.85a75.83,75.83,0,0,0-9.8,3.61C96.18,269.39,92.73,271,91,273a7,7,0,0,0-1.49,2.7C89.33,276.42,89.33,276.84,89.29,276.84Z" style="fill: rgb(137, 69, 54); transform-origin: 101.508px 269.845px;" id="elsjcvm8rbsok" class="animable"></path><path d="M99.23,287.48s-.66-.33-1.27-1.3a5.59,5.59,0,0,1,1.88-7.82,3,3,0,0,1,1.72-.58c0,.09-.65.26-1.52.88a6,6,0,0,0-2.3,3.33,5.88,5.88,0,0,0,.54,4C98.77,287,99.29,287.41,99.23,287.48Z" style="fill: rgb(137, 69, 54); transform-origin: 99.3226px 282.63px;" id="el15z77ao84f8" class="animable"></path><path d="M108.88,295.65s-.56-.31-1.08-1.16a5.58,5.58,0,0,1-.73-3.75,5.69,5.69,0,0,1,1.89-3.33,2.66,2.66,0,0,1,1.4-.75c0,.08-.49.36-1.15,1a5.71,5.71,0,0,0-1.08,6.64C108.53,295.15,108.94,295.59,108.88,295.65Z" style="fill: rgb(137, 69, 54); transform-origin: 108.681px 291.155px;" id="elw0pkkpjc51" class="animable"></path><path d="M115.05,318.25a6.61,6.61,0,0,1,.08.77c.05.5.07,1.24.16,2.19a76.41,76.41,0,0,0,1.15,8,105.39,105.39,0,0,0,8.71,25.17c2.35,4.66,4.68,9.09,6.32,13.33a50,50,0,0,1,3.22,11.62,28.33,28.33,0,0,1,0,8.12,17.24,17.24,0,0,1-.4,2.18,3.67,3.67,0,0,1-.2.74,4.39,4.39,0,0,1,.1-.77c.06-.5.24-1.22.3-2.17a29.45,29.45,0,0,0-.2-8.05A50.64,50.64,0,0,0,131,367.9c-1.65-4.21-4-8.6-6.34-13.28a100.7,100.7,0,0,1-8.6-25.33,64,64,0,0,1-1-8.06c-.06-1,0-1.71-.07-2.21A3.85,3.85,0,0,1,115.05,318.25Z" style="fill: rgb(137, 69, 54); transform-origin: 124.986px 354.31px;" id="elvi5yng9197f" class="animable"></path><path d="M159.49,245.36l46.88-16.16,56.7-.57c1,0,62.6,21,66.58,23.37s-14.06,75-14.06,75L324,428.46s14.24,32.76,2.35,42.44h-11.1l-143.07-.17C171.9,449.37,178.4,393,178.4,393l-13.6-61.7Z" style="fill: rgb(136, 96, 153); transform-origin: 245.289px 349.765px;" id="elz28ruq5vs1a" class="animable"></path><path d="M302.79,314.91l-.36,0-1.07,0-4.08.1-15,.25-49.55.62-49.56.47-15,.09H163l-.36,0a1.65,1.65,0,0,1,.36,0l1.06,0,4.09-.1,15-.24,49.56-.63,49.56-.47,15-.09h5.15Z" style="fill: rgb(255, 255, 255); transform-origin: 232.715px 315.675px;" id="el3gathtkp06c" class="animable"></path><g id="elkbjytmahch"><g style="opacity: 0.3; transform-origin: 262.986px 363.017px;" class="animable"><path d="M208.69,331.28c3.09-2.33,7.36-2.09,11.17-1.42,17.7,3.1,33.37,13,48.53,22.61,18.12,11.53,33.8,18.11,51.92,29.64l.87,13.27A58.41,58.41,0,0,1,277,387c-5.66-3.72-10.93-8.54-17.55-10-5.45-1.17-11.1.15-16.67.23a37.53,37.53,0,0,1-37.88-33.76C204.49,339.06,205.13,334,208.69,331.28Z" id="el5ty9m9vy4fm" class="animable" style="transform-origin: 262.986px 363.017px;"></path></g></g><path d="M305.66,339.21c0-.13,10.6,3.15,23.57,7.35s23.46,7.7,23.41,7.84-10.59-3.15-23.57-7.35S305.62,339.35,305.66,339.21Z" style="fill: rgb(137, 69, 54); transform-origin: 329.15px 346.805px;" id="elrhy9qikclxi" class="animable"></path><path d="M180,392.26a4.52,4.52,0,0,1,.82.17l2.34.6,8.57,2.23c7.24,1.86,17.27,4.35,28.4,6.85s21.27,4.53,28.61,5.94l8.7,1.65,2.37.46a6.11,6.11,0,0,1,.81.19,4.29,4.29,0,0,1-.83-.09l-2.38-.36c-2.07-.32-5.05-.83-8.74-1.49-7.36-1.31-17.51-3.29-28.66-5.79s-21.15-5.05-28.38-7c-3.61-1-6.52-1.79-8.53-2.39l-2.31-.68A5,5,0,0,1,180,392.26Z" style="fill: rgb(136, 96, 153); transform-origin: 220.31px 401.305px;" id="elr4c6z3jn06e" class="animable"></path><path d="M163.2,244.08s-14.6,3.25-20.57,17.55c-6.38,15.27-23.58,64.47-23.58,64.47l45.84,28.22,4.46-22.76Z" style="fill: rgb(136, 96, 153); transform-origin: 144.2px 299.2px;" id="ele4jj8cczlwp" class="animable"></path><path d="M153.51,280.87c.15,0,5.83,25,12.7,56S178.54,392.94,178.4,393s-5.83-25-12.7-56S153.37,280.9,153.51,280.87Z" style="fill: rgb(38, 50, 56); transform-origin: 165.955px 336.935px;" id="eldr808ggus9c" class="animable"></path><path d="M194,408.54a1.28,1.28,0,0,1,.24.14l.66.45,2.5,1.76c1.07.78,2.4,1.72,4,2.76s3.32,2.29,5.33,3.55,4.18,2.69,6.58,4.11,5,2.93,7.7,4.49c5.49,3,11.62,6.21,18.2,9.23s13,5.55,18.9,7.7c3,1,5.76,2,8.43,2.87s5.14,1.62,7.42,2.28,4.36,1.21,6.18,1.7,3.39.89,4.68,1.19l3,.74.77.2.26.09a.8.8,0,0,1-.27,0l-.78-.15-3-.64c-1.3-.27-2.89-.63-4.72-1.11s-3.92-1-6.2-1.63-4.79-1.35-7.45-2.21-5.49-1.81-8.47-2.83c-5.91-2.14-12.34-4.69-18.95-7.69s-12.73-6.21-18.22-9.28c-2.72-1.57-5.32-3-7.68-4.54s-4.57-2.86-6.56-4.18-3.74-2.54-5.3-3.61-2.86-2-3.92-2.84l-2.45-1.84-.62-.49Z" style="fill: rgb(38, 50, 56); transform-origin: 241.425px 430.176px;" id="elocbuabk2np" class="animable"></path><path d="M291.81,289.26c.13-.06,5.09,10.52,11.08,23.64s10.74,23.8,10.61,23.86-5.09-10.53-11.08-23.65S291.68,289.32,291.81,289.26Z" style="fill: rgb(38, 50, 56); transform-origin: 302.655px 313.01px;" id="el1bcsz49gzxy" class="animable"></path><g id="elxn0i15yqe7q"><g style="opacity: 0.3; transform-origin: 160.249px 318.29px;" class="animable"><path d="M167.92,343c-8.33-4.05-13.51-13-14.89-22.15s.58-18.5,3.5-27.27Z" id="elpc3231tg2d" class="animable" style="transform-origin: 160.249px 318.29px;"></path></g></g><g id="eld8vph2klogj"><g style="opacity: 0.3; transform-origin: 244.145px 433.14px;" class="animable"><path d="M286.83,451.45a90.4,90.4,0,0,1-85.37-37.37C228.45,430.9,255.86,445.51,286.83,451.45Z" id="elrr4y3reemu" class="animable" style="transform-origin: 244.145px 433.14px;"></path></g></g><path d="M256.38,323.63,323.61,345s-14.44-28.89-20.35-44c-4-10.15.5-43.29,21-45.73,0,0,3.9.81,9.62,8.71s37.47,63.28,37.47,63.28,13.64,24.91,18.35,35.09c7,15.19-2.64,38.92-30,43.75-21.49,3.79-106.12-46-106.12-46Z" style="fill: rgb(163, 105, 87); transform-origin: 322.739px 330.788px;" id="elkkx6flnleir" class="animable"></path><path d="M369.21,310.75l-49.1,32.31L297.49,297l6-32,17-15h0c8.69-1.7,16.52,7.61,20.89,15.3Z" style="fill: rgb(136, 96, 153); transform-origin: 333.35px 296.428px;" id="elg7krnqdqrfw" class="animable"></path><path d="M290.52,284.05a2.2,2.2,0,0,1,0-.56c0-.38,0-.93,0-1.63a28.74,28.74,0,0,1,.94-5.92,32.2,32.2,0,0,1,10.43-16.5,32.16,32.16,0,0,1,18.18-7.16,29.64,29.64,0,0,1,6,.19c.71.08,1.24.22,1.61.28a2.07,2.07,0,0,1,.55.14c0,.05-.78-.08-2.18-.22a33.53,33.53,0,0,0-5.93,0,33,33,0,0,0-8.57,1.89A31.08,31.08,0,0,0,295.27,268a33.24,33.24,0,0,0-4.56,13.89C290.58,283.27,290.56,284.05,290.52,284.05Z" style="fill: rgb(38, 50, 56); transform-origin: 309.366px 268.129px;" id="ellltnnt9bguc" class="animable"></path><path d="M243.7,313V284.19a4.65,4.65,0,0,0-4.64-4.65H207.21a4.65,4.65,0,0,0-4.65,4.65v60.7a4.65,4.65,0,0,0,4.65,4.64h31.85a4.64,4.64,0,0,0,4.64-4.64Z" style="fill: rgb(38, 50, 56); transform-origin: 223.13px 314.535px;" id="elmn3oimj4l1" class="animable"></path><path d="M273.72,333s-8.39-4.52-10.11-6.45-12-15.28-14.41-17.43a25.6,25.6,0,0,0-5.59-3.65v9.68s-1.06,1.07-4.4,1.72-33.45-5.38-35.6-5.6-4.52-.21-4.52,2.37,2.58,5.81,3.66,6.67,5.16,1.93,5.16,1.93-9.31-.79-10.39.51-1.72,4.33-.24,5c1.25.59,8,3.29,8,3.29s17.48,6.88,17.69,7.74-10.54.43-11.83,0-6-3.66-7.52-3.88a3,3,0,0,0-3,4.37,31.9,31.9,0,0,0,4.74,7s-2.58.43-2.8,2.8.43,2.8,1.51,4.09,5.16,2.58,7.09,2.58,30.33,6.45,32.48,6.45,10.33-2.15,13.34-2.37,7.31,0,7.31,0Z" style="fill: rgb(163, 105, 87); transform-origin: 235.066px 333.83px;" id="el21bwmronjtl" class="animable"></path><path d="M201.43,322a8.35,8.35,0,0,1,1.54-.16,13.55,13.55,0,0,1,1.81,0l1.13,0,1.26.14a82,82,0,0,1,13.52,3.1,125.51,125.51,0,0,0,13.38,3.47l1.24.22,1.11.14a15.34,15.34,0,0,0,1.79.17,10.51,10.51,0,0,1,1.54.14,8.22,8.22,0,0,1-1.55.07,15.65,15.65,0,0,1-1.81-.09l-1.13-.1L234,329a103.82,103.82,0,0,1-13.46-3.34,96.12,96.12,0,0,0-13.42-3.23l-1.25-.18-1.12-.08A15.06,15.06,0,0,0,203,322,9.81,9.81,0,0,1,201.43,322Z" style="fill: rgb(137, 69, 54); transform-origin: 220.59px 325.555px;" id="elpedyep0e8lr" class="animable"></path><path d="M229.39,338.88A15.32,15.32,0,0,0,241.6,341a4.78,4.78,0,0,1-1.8.65,12.16,12.16,0,0,1-8.94-1.55A4.47,4.47,0,0,1,229.39,338.88Z" style="fill: rgb(137, 69, 54); transform-origin: 235.495px 340.399px;" id="elv7lqa7u8akb" class="animable"></path><path d="M204.81,345.79a5.36,5.36,0,0,1,1.2.34c.76.26,1.86.63,3.22,1.06a98.13,98.13,0,0,0,10.82,2.74,96.87,96.87,0,0,0,11.07,1.47c1.43.1,2.58.18,3.38.22a5.19,5.19,0,0,1,1.24.12,6.45,6.45,0,0,1-1.24.08c-.81,0-2,0-3.4-.06A77.52,77.52,0,0,1,220,350.45a79.26,79.26,0,0,1-10.83-2.91c-1.36-.48-2.44-.9-3.18-1.22A6.17,6.17,0,0,1,204.81,345.79Z" style="fill: rgb(137, 69, 54); transform-origin: 220.275px 348.807px;" id="elhczidhcwqc4" class="animable"></path><path d="M219.56,289.3a2.4,2.4,0,1,0,2.4-2.4A2.4,2.4,0,0,0,219.56,289.3Z" style="fill: rgb(255, 255, 255); transform-origin: 221.96px 289.3px;" id="elacrdntbbssk" class="animable"></path><path d="M270.83,157c3.11,8,5,10,9.08,18.39,3.61,7.39.37,17.42-5.65,23-3.93,3.61-9.3,5.07-14.47,6.27-11.57,2.67-23.58,4.63-35.24,2.45A51.82,51.82,0,0,1,195.84,191a53.05,53.05,0,0,1-13.29-30.39" style="fill: rgb(69, 90, 100); transform-origin: 231.986px 182.523px;" id="ela8ku99wnxi" class="animable"></path><g id="el2b9dpu6j1c"><g style="opacity: 0.3; transform-origin: 231.986px 182.523px;" class="animable"><path d="M270.83,157c3.11,8,5,10,9.08,18.39,3.61,7.39.37,17.42-5.65,23-3.93,3.61-9.3,5.07-14.47,6.27-11.57,2.67-23.58,4.63-35.24,2.45A51.82,51.82,0,0,1,195.84,191a53.05,53.05,0,0,1-13.29-30.39" id="elfv2wzw122o7" class="animable" style="transform-origin: 231.986px 182.523px;"></path></g></g><path d="M262.7,184.05c3.15-9.31,6.27-18.7,7.77-28.42s1.34-19.87-2-29.13c-.51-1.4-4.82-10.83-6.3-10.7-1.07.09,1.55,8.87,1,9.78-5.23,8.73-6.75,19.28-6.06,29.42a133.26,133.26,0,0,0,5.55,29.05" style="fill: rgb(38, 50, 56); transform-origin: 264.166px 149.924px;" id="el8b8hvfwjcra" class="animable"></path><path d="M235.15,266a28,28,0,0,0,27.79-27.67l1.19-91.75c1.1-24.64-12.32-45.82-37-46.24l-2.28.09a44.09,44.09,0,0,0-42.25,42.32c-.83,21.36-1.48,45-.87,56.39,1.27,23.63,25.07,26.33,25.07,26.33s.06,5.49.05,12.43A28,28,0,0,0,235.15,266Z" style="fill: rgb(163, 105, 87); transform-origin: 222.841px 183.171px;" id="eld3aqq7ktquc" class="animable"></path><path d="M206.82,225.44s14.94.26,30.41-10.37c0,0-6.8,17.51-30.48,16.35Z" style="fill: rgb(137, 69, 54); transform-origin: 221.99px 223.273px;" id="elu1o31ohyyhm" class="animable"></path><path d="M192.57,162a3.38,3.38,0,0,0,3.39,3.27,3.24,3.24,0,0,0,3.36-3.19,3.37,3.37,0,0,0-3.4-3.27A3.22,3.22,0,0,0,192.57,162Z" style="fill: rgb(38, 50, 56); transform-origin: 195.945px 162.04px;" id="eloeczycvpdm" class="animable"></path><path d="M188.08,152.33c.44.42,2.92-1.58,6.55-1.72s6.38,1.57,6.75,1.1c.19-.2-.27-1-1.47-1.78a9.25,9.25,0,0,0-5.42-1.42,8.86,8.86,0,0,0-5.19,1.91C188.21,151.32,187.87,152.14,188.08,152.33Z" style="fill: rgb(38, 50, 56); transform-origin: 194.721px 150.443px;" id="eleygxwu7kvwm" class="animable"></path><path d="M226.76,162a3.38,3.38,0,0,0,3.4,3.27,3.23,3.23,0,0,0,3.35-3.19,3.38,3.38,0,0,0-3.39-3.27A3.23,3.23,0,0,0,226.76,162Z" style="fill: rgb(38, 50, 56); transform-origin: 230.135px 162.04px;" id="el8e2exqp7c6d" class="animable"></path><path d="M223.73,151.29c.44.31,2.92-1.15,6.55-1.25s6.38,1.15,6.75.82c.19-.15-.27-.72-1.47-1.31a12,12,0,0,0-5.42-1.05,11,11,0,0,0-5.19,1.4C223.87,150.56,223.52,151.15,223.73,151.29Z" style="fill: rgb(38, 50, 56); transform-origin: 230.372px 149.912px;" id="el2xt4x2d3st4" class="animable"></path><path d="M211.86,180.79c0-.21-2.27-.51-6-.83-.93-.05-1.82-.2-2-.83a4.64,4.64,0,0,1,.51-2.77c.78-2.29,1.59-4.68,2.45-7.18,3.39-10.22,5.81-18.6,5.4-18.74s-3.5,8-6.9,18.26q-1.22,3.78-2.33,7.21c-.31,1.07-.86,2.29-.33,3.67a2.35,2.35,0,0,0,1.58,1.29,5.75,5.75,0,0,0,1.58.15C209.57,181.07,211.85,181,211.86,180.79Z" style="fill: rgb(38, 50, 56); transform-origin: 207.352px 165.737px;" id="elgq8z70vdmro" class="animable"></path><path d="M223.25,133.05c.4,1,4,.36,8.29.69s7.78,1.36,8.31.45c.23-.43-.4-1.34-1.83-2.23a14.42,14.42,0,0,0-12.65-.87C223.83,131.78,223.07,132.59,223.25,133.05Z" style="fill: rgb(38, 50, 56); transform-origin: 231.56px 132.291px;" id="elb3sgf4hqr3c" class="animable"></path><path d="M189.09,134.15c.67.79,3.14-.17,6.15-.33s5.58.33,6.13-.56c.24-.43-.2-1.24-1.34-2a8.94,8.94,0,0,0-9.9.72C189.1,132.89,188.79,133.76,189.09,134.15Z" style="fill: rgb(38, 50, 56); transform-origin: 195.207px 132.277px;" id="el0pmbp3r7axvd" class="animable"></path><path d="M262.92,164.13c.4-.19,16.05-5.47,16.2,10.71S263,187.84,263,187.38,262.92,164.13,262.92,164.13Z" style="fill: rgb(163, 105, 87); transform-origin: 271.021px 175.546px;" id="ellmhsieoc3z" class="animable"></path><path d="M267.84,181.2c.07,0,.29.2.77.41a2.76,2.76,0,0,0,2.1,0c1.71-.64,3.12-3.37,3.17-6.29a9.34,9.34,0,0,0-.82-4,3.25,3.25,0,0,0-2.14-2.14,1.43,1.43,0,0,0-1.66.79c-.21.45-.11.77-.19.8s-.35-.26-.23-.93a1.73,1.73,0,0,1,.63-1,2.1,2.1,0,0,1,1.55-.43,3.94,3.94,0,0,1,3,2.48,9.53,9.53,0,0,1,1,4.5c-.07,3.27-1.71,6.33-4.05,7a3,3,0,0,1-2.58-.4C267.88,181.59,267.79,181.23,267.84,181.2Z" style="fill: rgb(137, 69, 54); transform-origin: 271.425px 175.458px;" id="elnizsisjk3s" class="animable"></path><path d="M193.08,115.9c-2.62-1.45,5.24-9.93,11.68-12.86,9.72-4.42,24.58-7.14,33.55-4.61,10.81,3.06,19.78,8.43,25.21,18.26s7.47,21.28,7.17,32.5c-.1,3.43-.45,7-2.28,9.89-2.26,3.58-6.6,5.84-6.4,10.78a6.81,6.81,0,0,1-1.68,4.94c-3,3.15-6.59.19-8.25-2.77-3.57-6.34-4-13.91-4.28-21.17-.23-5.17-.44-10.44,1-15.4.79-2.7,2.06-5.25,2.7-8s.56-5.84-1.15-8.08a9.9,9.9,0,0,0-1.31-1.33,16.91,16.91,0,0,0-16.75-3.18c-9.12,3.23-24.68,8.06-28.75,5-5.85-4.45-7.25-7.35-7.25-7.35Z" style="fill: rgb(38, 50, 56); transform-origin: 231.641px 136.805px;" id="elzm8jmvvmpce" class="animable"></path><path d="M182.55,140.5s2.71-8.12,5.4-12.46,11.43-8,13.34-8.65,23.68-.52,39.14,2.66,29.75,35.37,29.75,35.37l1.74-8.92s-1.57-17.24-1.57-21.13-6.56-16.75-8.29-18.72S243.71,97.3,241.91,96.38s-16.41-4.84-23.41-3.45-24.84,9.73-28.78,12.92-5.06,4.17-7.18,8S182.55,140.5,182.55,140.5Zm17-27.26.21-3.09c.14-2.05,8.74-13,21.21-11.15s16.21,16.8,16.21,16.8Z" style="fill: rgb(69, 90, 100); transform-origin: 226.76px 125.027px;" id="el4ect4kynyag" class="animable"></path><path d="M199.94,119.39c0-.08-.38-.24-.76-.76a2.8,2.8,0,0,1-.37-2.38,6.6,6.6,0,0,1,1.25-2.28c.43-.54.7-.89.64-1s-.42.19-.94.69a5.29,5.29,0,0,0-1.5,2.39,2.91,2.91,0,0,0,.61,2.79C199.42,119.44,199.94,119.46,199.94,119.39Z" style="fill: rgb(38, 50, 56); transform-origin: 199.42px 116.183px;" id="elgjgkbhx1c3" class="animable"></path><path d="M204.81,115.45c-.05.07.19.3.14.74a.81.81,0,0,1-.33.58.64.64,0,0,1-.73,0,.65.65,0,0,1-.33-.65.81.81,0,0,1,.4-.53c.38-.23.69-.1.73-.18s-.27-.39-.89-.19a1.19,1.19,0,0,0-.75.78,1.22,1.22,0,0,0,1.89,1.23,1.18,1.18,0,0,0,.41-1C205.28,115.54,204.83,115.38,204.81,115.45Z" style="fill: rgb(38, 50, 56); transform-origin: 204.192px 116.299px;" id="elklsy3yrehtb" class="animable"></path><path d="M212,115.88c0,.07.19.3.13.74a.84.84,0,0,1-.32.59.73.73,0,0,1-1.06-.7.8.8,0,0,1,.4-.53c.38-.23.69-.1.73-.18s-.27-.39-.89-.19a1.17,1.17,0,0,0-.75.78,1.22,1.22,0,0,0,1.88,1.24,1.19,1.19,0,0,0,.42-1C212.42,116,212,115.81,212,115.88Z" style="fill: rgb(38, 50, 56); transform-origin: 211.381px 116.691px;" id="el59pb8v7a5y4" class="animable"></path><path d="M219.09,116.32c-.06.06.19.29.13.73a.84.84,0,0,1-.32.59.74.74,0,0,1-1.07-.69.87.87,0,0,1,.41-.54c.38-.23.69-.1.73-.17s-.28-.4-.89-.2a1.2,1.2,0,0,0-.76.79,1.18,1.18,0,1,0,2.3.22C219.56,116.41,219.1,116.24,219.09,116.32Z" style="fill: rgb(38, 50, 56); transform-origin: 218.447px 117.168px;" id="elzlmcn1jh9o" class="animable"></path><path d="M226.23,116.75c-.06.06.18.29.13.73a.85.85,0,0,1-.33.59.67.67,0,0,1-.73,0,.66.66,0,0,1-.33-.65.87.87,0,0,1,.41-.54c.38-.22.69-.1.72-.17s-.27-.4-.89-.19a1.16,1.16,0,1,0,1.14,2,1.18,1.18,0,0,0,.41-1C226.7,116.84,226.24,116.67,226.23,116.75Z" style="fill: rgb(38, 50, 56); transform-origin: 225.63px 117.601px;" id="eldsd3allfhpu" class="animable"></path><path d="M233.36,117.18c-.05.06.19.3.14.74a.85.85,0,0,1-.33.58.73.73,0,0,1-1.06-.69.85.85,0,0,1,.4-.54c.38-.22.69-.09.73-.17s-.27-.39-.89-.19a1.16,1.16,0,1,0,1.14,2,1.2,1.2,0,0,0,.41-1C233.83,117.27,233.38,117.11,233.36,117.18Z" style="fill: rgb(38, 50, 56); transform-origin: 232.769px 117.993px;" id="elgmilg86kinv" class="animable"></path><path d="M220.53,99.77c-1.32-.06-1.94-1.91-3.26-1.9A3.79,3.79,0,0,0,214,99.79a3.08,3.08,0,0,0-5.88.45A4.47,4.47,0,0,0,205,100c-1,.41-1.48,1.94-.6,2.55a4.21,4.21,0,0,0-4.27-.22c-1.26.81-1.61,2.92-.4,3.8a3.47,3.47,0,0,0-4.05,5.46,1.44,1.44,0,0,0,.92.55c.67,0,1.15-.67,1.27-1.33a8.63,8.63,0,0,1,.33-2c.27-.61,1.12-1,1.61-.58-.66,1.11-1.3,2.61-.46,3.61.58.68,1.17,1.49,2.06,1.51,5.09.11,30.72,2.33,35.81,2.44C237.23,115.8,232.76,100.31,220.53,99.77Z" style="fill: rgb(38, 50, 56); transform-origin: 216.008px 106.806px;" id="el143y8tmfdz79" class="animable"></path><path d="M268.78,154.62c.15,1.36,1.59,2.2,2.93,2.49s2.78.26,4,.9,2,2.36,1.13,3.4c-.74.86-2.1.71-3.19.37a15.67,15.67,0,0,1-10.19-10.62c-1.78,1.19-4.34.23-5.62-1.49s-1.61-3.93-1.9-6a10.65,10.65,0,0,1-10.72-10.36c0-3.08,1.46-6.26.35-9.13,0,0,7.38,5.41,11,10.42S268.78,154.62,268.78,154.62Z" style="fill: rgb(38, 50, 56); transform-origin: 261.215px 143.114px;" id="elxwqkos766rl" class="animable"></path><path d="M275.09,161.38a1.22,1.22,0,0,1,1.22,1.31,1.87,1.87,0,0,1-1.23,1.5,4.31,4.31,0,0,1-2,.16,11.91,11.91,0,0,1-5.66-2.21,3.65,3.65,0,0,1-3.92,1.65,5.24,5.24,0,0,1-3.4-2.84,9.63,9.63,0,0,1-.86-4.44,4.11,4.11,0,0,1-4.7-.17,6.44,6.44,0,0,1-2.41-4.25,15.56,15.56,0,0,1,.2-5c-1.22,1.17-3.48.39-4.19-1.15a5.23,5.23,0,0,1,.68-4.83,4.15,4.15,0,0,1-2.26-5.66,2.31,2.31,0,0,1-3.17-.91,4.91,4.91,0,0,1-.23-3.62,25.78,25.78,0,0,0,.91-3.61,6.26,6.26,0,0,0-1.53-4.69,15.2,15.2,0,0,1,7.88,4.51,45.21,45.21,0,0,1,5.51,7.37l13.65,21.08" style="fill: rgb(38, 50, 56); transform-origin: 259.427px 143.511px;" id="ell8ifsa3mla" class="animable"></path><path d="M243.3,122.85a4.11,4.11,0,0,1,.7.91,4.47,4.47,0,0,1,.21,3.14,17.9,17.9,0,0,1-.78,2.2,9.94,9.94,0,0,0-.79,2.7,3.73,3.73,0,0,0,.88,3.11,2.77,2.77,0,0,0,1.65.77A2,2,0,0,0,247,135l-.42-.24a6.16,6.16,0,0,0,.71,5.32,6.26,6.26,0,0,0,5,3.07l-.26-.37a8.56,8.56,0,0,0,4.25,10.34l-.16-.22a19.81,19.81,0,0,0,.82,3.88,7.22,7.22,0,0,0,2,3.23,5.13,5.13,0,0,0,3.41,1.14,3.38,3.38,0,0,0,2.9-1.6h-.4a7.48,7.48,0,0,0,4.2,3.68,7.12,7.12,0,0,0,4.27.11,7,7,0,0,0,2.44-1.23,4,4,0,0,0,.53-.47c.11-.12.17-.18.16-.19s-.26.2-.77.55a7.37,7.37,0,0,1-2.42,1.09,6.91,6.91,0,0,1-4.08-.21,7.07,7.07,0,0,1-3.92-3.53l-.19-.39-.21.37a3,3,0,0,1-2.53,1.34,4.61,4.61,0,0,1-3.05-1.05,6.75,6.75,0,0,1-1.86-3,20.41,20.41,0,0,1-.77-3.78l0-.15-.14-.07a8,8,0,0,1-4-9.64l.13-.36-.39,0a5.72,5.72,0,0,1-4.53-2.79A5.64,5.64,0,0,1,247,135l.46-1.29-.88,1.05a2,2,0,0,1-2.79-.12,3.35,3.35,0,0,1-.79-2.75c.21-1.91,1.18-3.45,1.45-4.87a4.47,4.47,0,0,0-.36-3.28A2,2,0,0,0,243.3,122.85Z" style="fill: rgb(69, 90, 100); transform-origin: 259.518px 143.233px;" id="elsfpepppfuz8" class="animable"></path><path d="M200.09,108.19a1.43,1.43,0,0,1,.07-.94,1,1,0,0,1,.84-.59,1.09,1.09,0,0,1,1.07.76l.32-.06a3.53,3.53,0,0,1,1.84-3.48,3.41,3.41,0,0,1,4.49,1.55l.36-.36a.85.85,0,0,1-.2-1.12,1.5,1.5,0,0,1,1.22-.71,7.11,7.11,0,0,1,3.4.65,8,8,0,0,1,4,4l.37-.35a1.1,1.1,0,0,1-.51-1.1,1.48,1.48,0,0,1,.62-1.12,3.81,3.81,0,0,1,2.58-.54,8,8,0,0,1,4.27,1.63,9.8,9.8,0,0,1,2.64,3.22s0-.1-.07-.29a5.75,5.75,0,0,0-.34-.77,8,8,0,0,0-2-2.43,8.23,8.23,0,0,0-4.44-1.83,4.25,4.25,0,0,0-2.93.6,2,2,0,0,0-.84,1.49,1.63,1.63,0,0,0,.79,1.63l.69.35-.31-.71a8.46,8.46,0,0,0-4.27-4.25,7.45,7.45,0,0,0-3.7-.68,2,2,0,0,0-1.65,1,1.61,1.61,0,0,0-.14,1,1.17,1.17,0,0,0,.6.85l.73.37-.37-.72a3.78,3.78,0,0,0-7.14,2.21l.32-.07a1.35,1.35,0,0,0-1.4-.93,1.19,1.19,0,0,0-1,.78C199.76,107.87,200.09,108.22,200.09,108.19Z" style="fill: rgb(69, 90, 100); transform-origin: 213.691px 106.175px;" id="elags362huyne" class="animable"></path><path d="M182.49,139.6a6.24,6.24,0,0,1-1.37,4.09c-1,1.33-2.43,2.43-3.17,3.95s-.49,3.76,1.08,4.4a6.77,6.77,0,0,0,3.77,10.49c.34-7.12.18-17.07.22-24.2" style="fill: rgb(38, 50, 56); transform-origin: 180.287px 150.43px;" id="elmaa959b2wue" class="animable"></path><path d="M207.84,189c3.68-2,9.8-3.61,13.08-4.66a4.8,4.8,0,0,1,2.49-.18c2.55.57,2.68,2.9,2.37,4.82a18,18,0,0,1-3.27,7.73A7.79,7.79,0,0,1,218,200a10.44,10.44,0,0,1-4.68-.59A8.4,8.4,0,0,1,209,196c-.9-1.6-2-3.43-2.19-5A2.06,2.06,0,0,1,207.84,189Z" style="fill: rgb(137, 69, 54); transform-origin: 216.35px 192.064px;" id="elru6rjgi4ce" class="animable"></path><path d="M218,200s.5-.13,1.31-.56a9,9,0,0,0,2.83-2.59,18.22,18.22,0,0,0,2.66-5.07,17.76,17.76,0,0,0,.76-3.29,4.1,4.1,0,0,0-.73-3.28,3.54,3.54,0,0,0-3.2-.8c-1.1.27-2.24.67-3.28,1-2.1.62-4,1.18-5.55,1.71s-2.81,1-3.66,1.38a10.88,10.88,0,0,1-1.33.55s.09-.09.3-.22.52-.31.94-.52a36.53,36.53,0,0,1,3.62-1.54c1.56-.57,3.45-1.18,5.54-1.82,1.07-.3,2.11-.68,3.32-1a4,4,0,0,1,3.67,1,3.31,3.31,0,0,1,.85,1.8,6.65,6.65,0,0,1,0,1.89,16.87,16.87,0,0,1-.81,3.38,17.68,17.68,0,0,1-2.82,5.15,8.56,8.56,0,0,1-3,2.54,4.58,4.58,0,0,1-1,.34A1.56,1.56,0,0,1,218,200Z" style="fill: rgb(38, 50, 56); transform-origin: 216.964px 191.948px;" id="elkhqwqsryec" class="animable"></path><path d="M159.06,304.19c-.05.13-6.36-2.07-14.1-4.92s-14-5.27-13.91-5.41,6.36,2.07,14.09,4.92S159.11,304.05,159.06,304.19Z" style="fill: rgba(255, 255, 255, 0); transform-origin: 145.055px 299.025px;" id="elfsp7poza1xo" class="animable"></path><path d="M346.73,274.16c.08.13-10.58,6.91-23.81,15.16s-24,14.84-24.08,14.71,10.58-6.9,23.81-15.15S346.65,274,346.73,274.16Z" style="fill: rgba(255, 255, 255, 0); transform-origin: 322.785px 289.095px;" id="eljjk5wb39lxs" class="animable"></path></g><g id="freepik--Table--inject-317" class="animable" style="transform-origin: 250px 470.9px;"><path d="M460.47,470.9c0,.14-94.24.26-210.46.26S39.53,471,39.53,470.9s94.22-.26,210.48-.26S460.47,470.75,460.47,470.9Z" style="fill: rgb(38, 50, 56); transform-origin: 250px 470.9px;" id="elpxxtf1lzua" class="animable"></path></g><defs>     <filter id="active" height="200%">         <feMorphology in="SourceAlpha" result="DILATED" operator="dilate" radius="2"></feMorphology>                <feFlood flood-color="#32DFEC" flood-opacity="1" result="PINK"></feFlood>        <feComposite in="PINK" in2="DILATED" operator="in" result="OUTLINE"></feComposite>        <feMerge>            <feMergeNode in="OUTLINE"></feMergeNode>            <feMergeNode in="SourceGraphic"></feMergeNode>        </feMerge>    </filter>    <filter id="hover" height="200%">        <feMorphology in="SourceAlpha" result="DILATED" operator="dilate" radius="2"></feMorphology>                <feFlood flood-color="#ff0000" flood-opacity="0.5" result="PINK"></feFlood>        <feComposite in="PINK" in2="DILATED" operator="in" result="OUTLINE"></feComposite>        <feMerge>            <feMergeNode in="OUTLINE"></feMergeNode>            <feMergeNode in="SourceGraphic"></feMergeNode>        </feMerge>            <feColorMatrix type="matrix" values="0   0   0   0   0                0   1   0   0   0                0   0   0   0   0                0   0   0   1   0 "></feColorMatrix>    </filter></defs></svg>