<svg width="686" height="449" viewBox="0 0 686 449" fill="none" xmlns="http://www.w3.org/2000/svg">
<path d="M3.21538 124.068C0.415382 102.268 19.4154 80.1683 41.3154 79.8683C51.8154 79.6683 62.5154 83.6683 72.6154 80.9683C94.4154 74.9683 98.2154 43.5683 117.815 32.2683C131.315 24.4683 149.715 28.9683 160.615 40.1683C171.515 51.3683 175.715 67.7683 175.415 83.3683C174.415 122.868 143.615 159.568 104.915 167.468C66.2154 175.368 8.61538 161.668 3.11538 123.268" fill="#EBEBEB"/>
<path d="M255.622 48.6353C261.817 34.1654 255.109 17.413 240.639 11.2176C226.169 5.02234 209.417 11.7302 203.222 26.2001C197.026 40.67 203.734 57.4224 218.204 63.6177C232.674 69.8131 249.426 63.1052 255.622 48.6353Z" fill="#EBEBEB"/>
<path d="M652.115 142.868C651.515 142.668 650.815 142.568 650.215 142.468C649.015 142.368 647.815 142.368 646.615 142.568C633.515 143.468 621.115 154.368 619.715 167.568C618.015 182.968 631.215 198.268 646.615 198.968C662.015 199.668 676.515 185.468 676.115 170.068C675.815 156.968 664.915 145.268 652.115 142.868Z" fill="#EBEBEB"/>
<path d="M685.715 447.768C685.715 447.868 533.015 448.068 344.715 448.068C156.415 448.068 3.71545 447.968 3.71545 447.768C3.71545 447.568 156.415 447.468 344.715 447.468C533.015 447.468 685.715 447.668 685.715 447.768Z" fill="#263238"/>
<path d="M514.515 315.768H70.4154V360.168H514.515V315.768Z" fill="#1E8555"/>
<g opacity="0.4">
<path opacity="0.4" d="M514.515 315.768H70.4154V360.168H514.515V315.768Z" fill="black"/>
</g>
<path d="M418.315 365.768H287.215V406.868H418.315V365.768Z" fill="#455A64"/>
<path d="M195.615 347.168V401.468H240.315L258.315 375.468H585.115V347.168H195.615Z" fill="#263238"/>
<path d="M192.815 175.168C192.715 173.368 191.215 171.968 189.315 172.068C171.615 172.768 87.6154 176.668 70.4154 184.968C57.2154 191.368 42.7154 215.068 32.5154 231.068C25.2154 242.568 9.01543 267.968 5.71543 280.968C2.91543 291.968 1.31543 314.868 1.51543 326.168L6.11543 386.268H82.2154L89.8154 366.468C94.8154 353.568 107.215 344.968 121.115 344.968H196.715V245.268L192.815 175.168Z" fill="#1E8555"/>
<path d="M61.4154 191.568C50.9154 201.568 40.4154 218.568 32.5154 230.968C25.7154 241.568 11.4154 264.168 6.71538 277.768C6.61538 277.968 6.51538 278.268 6.51538 278.468C8.81538 277.868 12.4154 276.468 13.5154 274.368C15.2154 271.068 17.3154 259.668 43.8154 216.568C51.7154 203.468 59.6154 195.768 61.4154 191.568Z" fill="#455A64"/>
<path d="M153.715 187.068C134.215 188.168 92.1154 191.068 78.6154 195.668C61.0154 201.668 41.3154 248.168 40.4154 250.168L27.1154 284.168C26.8154 284.968 27.3154 285.768 28.0154 286.068C28.2154 286.168 28.3154 286.168 28.5154 286.168H62.8154C64.1154 286.168 65.4154 285.968 66.6154 285.468L156.915 251.768C161.015 250.268 163.715 246.368 163.715 241.968V196.468C163.715 191.268 159.515 186.968 154.215 186.968C154.015 187.068 153.915 187.068 153.715 187.068Z" fill="#263238"/>
<path d="M30.9154 282.768C30.9154 282.768 43.6154 254.268 47.9154 244.868C54.4154 230.768 69.5154 201.868 79.6154 198.768C89.0154 195.968 115.915 192.568 153.815 190.368H154.215C157.615 190.368 160.315 193.168 160.315 196.468V242.968C160.315 245.268 158.815 247.368 156.615 248.268L89.9154 256.468C84.5154 257.168 79.6154 260.168 76.7154 264.668L65.1154 282.268C64.4154 282.568 63.7154 282.668 63.0154 282.668L30.9154 282.768Z" fill="#455A64"/>
<path d="M87.6154 257.068L64.9154 282.368L77.5154 198.468L80.6154 197.368L74.4154 259.468C74.3154 260.468 75.0154 261.368 76.1154 261.468C76.4154 261.468 76.7154 261.468 76.9154 261.368L87.6154 257.068Z" fill="#263238"/>
<path d="M0.015426 331.968C-0.084574 330.868 0.315429 329.968 0.815429 329.968L13.0154 328.868C14.0154 328.768 14.9154 330.668 15.0154 332.868L15.5154 342.168C15.6154 343.668 15.1154 344.968 14.5154 345.068L2.11543 347.168C1.51543 347.268 1.01543 346.468 0.915428 345.368L0.015426 331.968Z" fill="#EBEBEB"/>
<path d="M87.6154 375.568H0.0153809V410.668H87.6154V375.568Z" fill="#263238"/>
<path d="M144.215 447.368C170.67 447.368 192.115 425.923 192.115 399.468C192.115 373.014 170.67 351.568 144.215 351.568C117.761 351.568 96.3154 373.014 96.3154 399.468C96.3154 425.923 117.761 447.368 144.215 447.368Z" fill="#263238"/>
<path d="M96.3154 398.668V398.768C96.0154 425.268 117.115 446.968 143.615 447.368C170.015 447.668 191.815 426.568 192.215 400.168V400.068L96.3154 398.668Z" fill="#263238"/>
<path d="M110.615 398.968C110.315 417.568 125.215 432.868 143.815 433.168C162.415 433.468 177.715 418.568 178.015 399.968C178.315 381.368 163.415 366.068 144.815 365.768C126.215 365.568 110.915 380.368 110.615 398.968Z" fill="#FAFAFA"/>
<path d="M144.715 365.768C126.115 365.468 110.815 380.368 110.615 398.968L177.915 399.968C178.215 381.368 163.315 366.068 144.715 365.768Z" fill="#E0E0E0"/>
<path d="M123.815 399.168C123.615 410.468 132.715 419.768 144.015 419.968C155.315 420.168 164.615 411.068 164.815 399.768C165.015 388.468 155.915 379.168 144.615 378.968C133.215 378.768 123.915 387.868 123.815 399.168Z" fill="#263238"/>
<path d="M47.4154 217.568H51.3154C55.7154 217.568 59.3154 221.168 59.3154 225.568V257.268C59.3154 261.668 55.7154 265.268 51.3154 265.268H47.4154C43.0154 265.268 39.4154 261.668 39.4154 257.268V225.568C39.4154 221.068 43.0154 217.568 47.4154 217.568Z" fill="#263238"/>
<path d="M31.2155 294.668H30.2155V244.268C30.2155 239.268 34.3155 235.168 39.3155 235.168H41.7155V236.168H39.3155C34.8155 236.168 31.2155 239.768 31.2155 244.268V294.668Z" fill="#263238"/>
<path d="M38.0154 294.768L35.2154 247.668C35.0154 244.368 37.6154 241.568 40.9154 241.368C41.0154 241.368 41.1154 241.368 41.1154 241.368V242.368C38.4154 242.368 36.2154 244.568 36.2154 247.268C36.2154 247.368 36.2154 247.468 36.2154 247.568L39.0154 294.768H38.0154Z" fill="#263238"/>
<path d="M41.1155 290.168H27.6155V305.768H41.1155V290.168Z" fill="#263238"/>
<path d="M36.2155 260.568H30.7155V261.568H36.2155V260.568Z" fill="#263238"/>
<path d="M81.9154 188.468L83.1154 188.268L86.6154 187.868L100.215 186.268L150.915 180.468C153.615 180.168 156.315 179.868 159.215 179.568C160.715 179.468 162.115 179.568 163.615 179.868C165.115 180.168 166.515 180.768 167.815 181.468C170.515 182.968 172.715 185.268 174.115 188.068C174.815 189.468 175.315 190.968 175.515 192.568C175.615 193.368 175.715 194.168 175.715 194.968V197.368C175.715 210.268 175.715 224.168 175.715 238.868C175.715 268.268 175.715 300.968 175.715 335.868V336.168H123.015C120.015 336.068 117.015 336.168 114.015 336.568C101.515 338.368 90.9154 346.768 86.4154 358.668C86.0154 359.768 85.6154 360.868 85.3154 361.968C85.0154 363.068 84.7154 364.168 84.5154 365.368L84.2154 367.068L84.1154 367.968L84.0154 368.868L83.9154 370.568V371.468V371.568C84.1154 371.368 83.6154 371.868 83.6154 371.868H16.9154V371.268C16.9154 356.168 16.9154 341.668 16.9154 327.768C16.9154 320.868 16.9154 314.068 16.9154 307.468V297.668C16.9154 296.068 16.9154 294.468 16.9154 292.868C16.9154 291.268 17.0154 289.668 17.2154 288.168C18.0154 282.068 19.9154 276.268 22.9154 270.968C25.7154 265.768 28.3154 260.768 30.9154 255.968L45.1154 229.368L56.6154 207.768C57.4154 206.168 58.2154 204.668 59.0154 203.168C59.4154 202.468 59.8154 201.768 60.2154 201.068C60.6154 200.368 61.1154 199.768 61.5154 199.168C63.2154 196.968 65.3154 195.068 67.6154 193.568C70.7154 191.468 74.3154 189.868 78.0154 189.068C79.3154 188.768 80.6154 188.568 81.9154 188.468L80.9154 188.568C80.2154 188.668 79.3154 188.868 78.0154 189.168C74.3154 190.068 70.8154 191.568 67.7154 193.768C65.4154 195.368 63.4154 197.268 61.7154 199.368C61.2154 199.968 60.8154 200.568 60.4154 201.268C60.0154 201.968 59.6154 202.668 59.2154 203.368L56.8154 207.968L45.4154 229.568C41.1154 237.668 36.4154 246.468 31.3154 256.168L23.3154 271.168C20.4154 276.468 18.5154 282.268 17.7154 288.268C17.5154 289.868 17.4154 291.368 17.4154 292.968C17.4154 294.568 17.4154 296.168 17.4154 297.768V307.568C17.4154 314.168 17.4154 320.968 17.4154 327.868C17.4154 341.768 17.4154 356.268 17.4154 371.368L17.2154 371.168H83.7154C83.8154 371.168 83.2154 371.668 83.5154 371.368V371.268V370.268L83.6154 368.568V367.668L83.7154 366.768L84.0154 365.068C84.2154 363.968 84.5154 362.768 84.8154 361.668C85.1154 360.568 85.5154 359.468 85.9154 358.368C90.5154 346.368 101.215 337.768 114.015 335.968C117.015 335.568 120.015 335.468 123.015 335.568H175.415L175.115 335.768C175.115 300.868 175.115 268.168 175.115 238.768C175.115 224.068 175.115 210.168 175.115 197.268C175.215 195.668 175.115 194.068 174.915 192.468C174.715 190.968 174.215 189.468 173.515 188.068C172.115 185.368 170.015 183.168 167.415 181.668C166.115 180.968 164.815 180.468 163.315 180.068C161.915 179.768 160.515 179.668 159.115 179.768C156.315 179.968 153.515 180.368 150.815 180.668L100.115 186.268L86.5154 187.768L83.0154 188.168L81.9154 188.468Z" fill="#263238"/>
<path d="M159.715 298.968C159.715 298.968 160.015 298.968 160.515 298.868C161.215 298.768 161.915 298.468 162.615 298.068C163.615 297.468 164.315 296.468 164.715 295.368C164.915 294.668 165.015 293.968 165.015 293.168C165.015 292.368 164.815 291.568 164.415 290.868C163.515 289.168 161.815 288.168 159.915 288.068H153.315H138.215C135.615 288.068 133.415 290.068 133.115 292.568C132.915 293.768 133.215 294.968 133.715 296.068C134.315 297.068 135.115 297.868 136.215 298.268C137.215 298.668 138.415 298.768 139.515 298.668H142.715H148.515L156.815 298.768H159.115C159.415 298.768 159.615 298.768 159.915 298.868C159.615 298.868 159.415 298.868 159.115 298.868H156.815L148.515 298.968H142.715H139.515C138.915 298.968 138.415 298.968 137.815 298.968C137.215 298.968 136.615 298.768 136.015 298.568C134.815 298.068 133.915 297.268 133.315 296.168C132.715 295.068 132.415 293.668 132.615 292.368C132.915 289.568 135.315 287.368 138.215 287.368H153.315H159.915C162.915 287.468 165.315 289.868 165.315 292.868C165.315 293.668 165.215 294.368 165.015 295.068C164.615 296.268 163.815 297.168 162.815 297.868C162.115 298.268 161.415 298.568 160.715 298.668C160.315 298.768 160.015 298.868 159.715 298.968Z" fill="#263238"/>
<path d="M157.915 286.368C155.115 286.668 152.215 286.668 149.315 286.568C146.415 286.668 143.615 286.568 140.715 286.368C143.615 286.068 146.415 286.068 149.315 286.068C152.215 286.068 155.115 286.168 157.915 286.368Z" fill="white"/>
<path d="M91.6155 410.968L83.6155 410.368C85.7155 381.768 88.7155 364.568 93.0155 357.968C101.115 345.268 109.115 342.968 118.015 341.468C126.315 340.068 134.615 340.368 142.715 340.668L144.715 340.768C161.415 341.368 196.315 340.868 196.715 340.868L196.815 348.868C196.415 348.868 161.315 349.468 144.415 348.768L142.415 348.668C134.715 348.368 126.815 348.068 119.315 349.268C111.415 350.668 106.115 352.168 99.7155 362.168C97.8155 365.268 94.1155 375.668 91.6155 410.968Z" fill="#263238"/>
<path d="M594.915 84.5682H200.915V346.868H594.915V84.5682Z" fill="#1E8555"/>
<path d="M590.215 341.768C590.215 340.068 590.115 243.868 590.015 90.5682L590.215 90.7682L205.215 90.8682L205.515 90.5682C205.515 179.868 205.515 264.868 205.515 341.768L205.315 341.568L590.215 341.768L205.215 341.968H204.915V341.768C204.915 264.868 204.915 179.868 204.915 90.5682V90.2682H205.215L590.215 90.3682H590.415V90.5682C590.215 243.768 590.215 340.068 590.215 341.768Z" fill="#263238"/>
<g opacity="0.5">
<path opacity="0.5" d="M256.815 225.268L260.515 300.368L552.715 239.568L547.515 161.368L256.815 225.268Z" fill="black"/>
</g>
<path d="M315.015 155.868V221.368L481.515 184.768V120.068L315.015 155.868Z" fill="#1E8555"/>
<g opacity="0.3">
<path opacity="0.3" d="M315.015 155.868V221.368L481.515 184.768V120.068L315.015 155.868Z" fill="black"/>
</g>
<path d="M500.615 155.868L559.615 142.068L557.315 135.768L500.615 155.868Z" fill="#FAFAFA"/>
<path d="M236.615 200.068L277.615 190.368L275.915 186.068L236.615 200.068Z" fill="#FAFAFA"/>
<path d="M376.915 298.768L435.915 284.968L433.615 278.768L376.915 298.768Z" fill="#FAFAFA"/>
<path d="M455.115 124.468C455.115 124.568 423.615 132.168 384.715 141.268C345.815 150.368 314.215 157.668 314.215 157.568C314.215 157.468 345.715 149.868 384.615 140.768C423.515 131.668 455.115 124.368 455.115 124.468Z" fill="#FAFAFA"/>
<path d="M314.615 214.868C314.615 214.968 301.115 217.868 284.415 221.268C267.715 224.668 254.115 227.268 254.115 227.168C254.115 227.068 267.615 224.168 284.315 220.768C301.015 217.368 314.515 214.668 314.615 214.868Z" fill="#FAFAFA"/>
<path d="M315.115 208.868C315.115 208.668 315.015 208.468 315.015 208.368C315.015 207.968 315.015 207.468 315.015 206.868C315.015 205.468 315.015 203.568 314.915 201.268C314.915 196.468 314.815 190.068 314.815 182.868C314.815 175.668 314.715 169.268 314.615 164.468C314.615 162.168 314.515 160.268 314.515 158.868V157.368C314.515 157.168 314.515 157.068 314.515 156.868C314.515 157.068 314.615 157.168 314.615 157.368C314.615 157.768 314.715 158.268 314.715 158.868C314.815 160.168 314.915 162.068 314.915 164.468C315.115 169.168 315.215 175.668 315.315 182.868C315.415 190.068 315.315 196.568 315.315 201.268C315.315 203.568 315.215 205.468 315.215 206.868C315.215 207.468 315.215 207.968 315.215 208.368C315.115 208.568 315.115 208.768 315.115 208.868Z" fill="#FAFAFA"/>
<path d="M144.915 208.768C144.915 208.768 144.815 208.868 144.515 209.068L143.415 209.868C142.415 210.568 141.015 211.468 139.315 212.668C135.815 215.068 130.915 218.268 125.515 221.768C120.115 225.268 115.115 228.268 111.515 230.468C109.715 231.568 108.215 232.468 107.215 233.068L106.015 233.768C105.915 233.868 105.715 233.968 105.615 233.968C105.615 233.968 105.715 233.868 106.015 233.668L107.115 232.868L111.315 230.168L125.215 221.268L139.015 212.368L143.215 209.668L144.415 208.968C144.615 208.968 144.715 208.868 144.915 208.768Z" fill="#FAFAFA"/>
<path d="M127.815 213.368C127.815 213.368 127.715 213.468 127.415 213.668L126.315 214.468C125.315 215.168 123.915 216.068 122.215 217.268C118.715 219.668 113.815 222.868 108.415 226.268C103.015 229.668 98.0154 232.868 94.4154 234.968C92.6154 236.068 91.1154 236.968 90.1154 237.568L88.9154 238.268C88.8154 238.368 88.6154 238.468 88.5154 238.468C88.6154 238.368 88.7154 238.268 88.9154 238.168L90.0154 237.368L94.2154 234.668L108.115 225.768L121.915 216.868L126.115 214.168L127.215 213.468C127.515 213.468 127.715 213.368 127.815 213.368Z" fill="#FAFAFA"/>
<path d="M43.6154 242.468C43.4154 242.168 43.3155 241.868 43.3155 241.568C43.1155 240.968 42.9155 240.168 42.7155 239.168C42.0155 236.468 41.7155 233.668 41.7155 230.868C41.7155 228.068 42.3154 225.268 43.6154 222.768C44.0154 221.968 44.5154 221.268 45.0154 220.668C45.2154 220.468 45.4155 220.168 45.7155 220.068C45.1155 220.968 44.5155 221.968 43.9155 222.968C42.8155 225.468 42.2155 228.168 42.2155 230.968C42.2155 233.768 42.5154 236.468 43.1154 239.168C43.3154 240.168 43.5154 241.268 43.6154 242.468Z" fill="#FAFAFA"/>
<path d="M2.91541 313.368C2.91541 312.968 2.91541 312.668 2.91541 312.268C2.91541 311.568 2.9154 310.468 3.0154 309.268C3.1154 306.668 3.31541 303.168 3.61541 299.268C3.91541 295.368 4.31541 291.868 4.61541 289.268C4.81541 287.968 4.9154 286.968 5.0154 286.268C5.0154 285.868 5.1154 285.568 5.2154 285.168C5.3154 285.568 5.3154 285.868 5.2154 286.268L4.91541 289.268C4.71541 291.968 4.41541 295.368 4.11541 299.268C3.81541 303.168 3.61541 306.568 3.41541 309.268C3.31541 310.468 3.2154 311.468 3.2154 312.268C3.1154 312.668 3.01541 312.968 2.91541 313.368Z" fill="#FAFAFA"/>
<path d="M112.515 332.768C112.515 332.868 110.615 333.168 107.615 334.168C105.815 334.768 104.115 335.468 102.515 336.268C98.5154 338.268 94.8154 340.968 91.7154 344.268C90.4154 345.568 89.3154 347.068 88.2154 348.468C86.4154 351.068 85.5154 352.768 85.4154 352.768C85.5154 352.368 85.7154 351.868 86.0154 351.468C86.2154 350.968 86.5154 350.468 86.8154 350.068C87.1154 349.568 87.5154 348.868 87.9154 348.268C88.9154 346.768 90.1154 345.268 91.4154 343.868C93.0154 342.168 94.7154 340.668 96.5154 339.268C98.3154 337.968 100.315 336.768 102.415 335.768C104.115 334.968 105.815 334.268 107.615 333.768C108.415 333.568 109.115 333.368 109.715 333.268C110.215 333.168 110.815 333.068 111.315 332.968C111.615 332.768 112.015 332.768 112.515 332.768Z" fill="#FAFAFA"/>
<path d="M211.015 272.368C211.015 272.268 211.015 272.068 211.015 271.968C211.015 271.668 211.015 271.268 211.015 270.668C211.015 269.568 211.015 267.868 210.915 265.768C210.815 261.568 210.815 255.468 210.715 247.968C210.415 232.868 210.115 212.068 209.615 189.068C209.115 166.068 208.815 145.268 208.715 130.168C208.615 122.668 208.615 116.568 208.615 112.368C208.615 110.268 208.615 108.668 208.615 107.568V106.268C208.615 105.968 208.615 105.868 208.615 105.868C208.615 105.968 208.615 106.168 208.615 106.268C208.615 106.568 208.615 106.968 208.615 107.568C208.615 108.668 208.615 110.368 208.715 112.368C208.815 116.568 208.815 122.668 208.915 130.168C209.215 145.268 209.515 166.068 209.915 189.068C210.315 212.068 210.715 232.868 210.815 247.868C210.915 255.368 210.915 261.468 210.915 265.668C210.915 267.768 210.915 269.368 210.915 270.568C210.915 271.068 210.915 271.568 210.915 271.868C211.015 272.068 211.015 272.268 211.015 272.368Z" fill="#FAFAFA"/>
<path d="M498.415 447.268C524.87 447.268 546.315 425.823 546.315 399.368C546.315 372.914 524.87 351.468 498.415 351.468C471.961 351.468 450.515 372.914 450.515 399.368C450.515 425.823 471.961 447.268 498.415 447.268Z" fill="#263238"/>
<path d="M450.415 398.668V398.768C450.015 425.268 471.215 446.968 497.615 447.368C524.115 447.768 545.815 426.568 546.215 400.168V400.068L450.415 398.668Z" fill="#263238"/>
<path d="M464.715 398.968C464.415 417.568 479.315 432.868 497.915 433.068C516.515 433.268 531.815 418.468 532.015 399.868C532.315 381.268 517.415 365.968 498.815 365.768C480.315 365.568 465.015 380.368 464.715 398.968Z" fill="#FAFAFA"/>
<path d="M498.815 365.768C480.215 365.468 464.915 380.368 464.715 398.968L532.015 399.968C532.315 381.368 517.415 366.068 498.815 365.768C498.915 365.768 498.815 365.768 498.815 365.768Z" fill="#E0E0E0"/>
<path d="M477.915 399.168C477.715 410.468 486.815 419.768 498.115 419.968C509.415 420.168 518.715 411.068 518.915 399.768C519.115 388.468 510.015 379.168 498.715 378.968C487.415 378.768 478.115 387.868 477.915 399.168Z" fill="#263238"/>
<path d="M435.315 412.568C435.315 412.568 428.015 344.568 498.515 344.568C563.515 344.568 562.115 403.068 561.415 412.068H551.215C551.215 412.068 556.415 354.468 498.415 354.468C440.415 354.468 445.615 413.268 445.615 413.268C445.615 413.268 441.315 413.068 435.315 412.568Z" fill="#455A64"/>
<path d="M473.115 351.568C472.915 351.668 472.715 351.768 472.615 351.768C472.215 351.868 471.715 352.068 471.015 352.268C469.015 352.868 467.115 353.668 465.315 354.468C452.815 360.168 443.615 371.168 440.115 384.468C439.615 386.468 439.215 388.468 438.915 390.468C438.815 391.168 438.815 391.768 438.715 392.168C438.715 392.368 438.615 392.568 438.615 392.768C438.615 392.568 438.615 392.368 438.615 392.168C438.615 391.768 438.615 391.168 438.715 390.468C438.915 388.368 439.315 386.368 439.815 384.368C443.115 370.868 452.515 359.668 465.215 354.068C467.115 353.268 469.015 352.568 471.015 351.968C471.715 351.768 472.315 351.668 472.615 351.568C472.715 351.568 472.915 351.568 473.115 351.568Z" fill="#FAFAFA"/>
<path d="M646.115 420.768L654.615 433.568L658.415 445.668C658.715 446.468 659.515 446.968 660.415 446.668H660.515C661.015 446.468 661.415 446.068 661.515 445.568C662.315 442.368 665.115 430.768 664.415 429.868C663.715 428.968 656.315 415.768 656.315 415.768L646.115 420.768Z" fill="#455A64"/>
<g opacity="0.6">
<path opacity="0.6" d="M660.615 446.668L663.915 428.968L664.215 429.468C664.515 429.968 664.615 430.468 664.515 431.068C664.315 432.568 663.615 436.668 661.515 445.468C661.515 446.068 661.115 446.568 660.615 446.668Z" fill="white"/>
</g>
<g opacity="0.6">
<path opacity="0.6" d="M658.615 426.568C658.415 427.068 658.615 427.468 659.015 427.768C659.415 427.968 660.015 427.768 660.215 427.368C660.415 426.868 660.215 426.368 659.715 426.068C659.215 425.868 658.715 426.168 658.615 426.568Z" fill="white"/>
</g>
<path d="M659.916 439.168C659.316 438.968 658.716 438.868 658.116 438.868C657.516 438.968 656.916 439.168 656.416 439.568C656.416 439.568 656.516 439.368 656.716 439.068C657.116 438.768 657.516 438.568 658.016 438.568C658.516 438.468 659.016 438.568 659.416 438.768C659.816 438.968 660.016 439.068 659.916 439.168Z" fill="#263238"/>
<path d="M660.116 441.468C659.616 441.468 659.116 441.568 658.616 441.668C658.116 441.868 657.715 442.068 657.215 442.268C657.115 442.268 657.615 441.568 658.515 441.268C659.115 441.068 659.716 441.168 660.116 441.468Z" fill="#263238"/>
<path d="M660.315 435.768C659.515 435.768 658.715 435.768 658.015 435.868C657.215 436.068 656.515 436.368 655.815 436.668C656.415 436.068 657.115 435.668 658.015 435.568C658.715 435.368 659.515 435.468 660.315 435.768Z" fill="#263238"/>
<path d="M658.015 431.668C658.015 431.768 657.115 431.868 656.215 432.468C655.315 433.068 654.615 433.668 654.615 433.668C654.915 433.068 655.415 432.468 656.115 432.168C656.615 431.768 657.315 431.668 658.015 431.668Z" fill="#263238"/>
<path d="M655.615 427.868C654.915 428.068 654.215 428.268 653.615 428.668C653.115 429.068 652.615 429.668 652.115 430.168C652.115 430.168 652.115 429.868 652.315 429.568C652.815 428.668 653.815 427.968 654.815 427.868C655.315 427.768 655.615 427.868 655.615 427.868Z" fill="#263238"/>
<path d="M653.215 427.968C653.115 427.868 653.015 427.668 652.915 427.468C652.715 426.968 652.515 426.468 652.515 425.968C652.415 425.568 652.515 425.168 652.715 424.868C652.815 424.668 653.115 424.568 653.415 424.568C653.615 424.668 653.815 424.768 654.015 425.068C654.515 425.968 654.315 427.168 653.515 427.868C652.715 428.468 651.515 428.568 650.615 428.068C650.415 427.968 650.215 427.768 650.215 427.468C650.215 427.168 650.315 426.968 650.615 426.868C651.015 426.768 651.415 426.668 651.715 426.768C652.215 426.868 652.815 426.968 653.215 427.268C653.415 427.368 653.515 427.468 653.715 427.568C653.115 427.268 652.415 427.168 651.715 427.068C651.415 427.068 651.015 427.068 650.715 427.168C650.615 427.268 650.515 427.368 650.515 427.468C650.515 427.668 650.715 427.768 650.815 427.868C651.615 428.268 652.615 428.168 653.315 427.668C654.015 427.068 654.215 426.068 653.815 425.268C653.715 425.068 653.615 424.968 653.415 424.968C653.315 424.968 653.115 424.968 653.015 425.068C652.815 425.368 652.815 425.768 652.815 426.068C652.815 426.668 652.915 427.268 653.215 427.968Z" fill="#263238"/>
<path d="M638.116 428.168L637.116 441.068C637.116 441.068 649.916 445.468 649.916 447.868L624.916 447.768L625.616 427.668L638.116 428.168Z" fill="#455A64"/>
<g opacity="0.6">
<path opacity="0.6" d="M629.415 439.668C628.915 439.768 628.615 440.268 628.615 440.768C628.715 441.268 629.215 441.568 629.715 441.568C630.215 441.468 630.615 440.868 630.515 440.368C630.415 439.768 629.815 439.468 629.415 439.668Z" fill="white"/>
</g>
<g opacity="0.6">
<path opacity="0.6" d="M624.916 447.768L625.016 445.768L649.216 446.668C649.716 446.968 650.116 447.468 650.116 448.068L624.916 447.768Z" fill="white"/>
</g>
<path d="M637.515 440.868C637.515 440.968 636.915 440.968 636.315 441.368C635.715 441.768 635.315 442.268 635.215 442.168C635.115 442.068 635.315 441.368 636.015 440.968C636.715 440.568 637.515 440.768 637.515 440.868Z" fill="#263238"/>
<path d="M640.115 442.068C640.115 442.168 639.615 442.368 639.115 442.868C638.615 443.368 638.515 443.868 638.415 443.868C638.315 443.868 638.215 443.168 638.815 442.568C639.415 441.968 640.115 441.968 640.115 442.068Z" fill="#263238"/>
<path d="M641.415 445.268C641.315 445.268 641.115 444.668 641.515 443.968C641.915 443.268 642.415 443.068 642.515 443.168C642.615 443.268 642.215 443.668 641.915 444.168C641.615 444.668 641.615 445.268 641.415 445.268Z" fill="#263238"/>
<path d="M637.415 437.968C637.315 438.068 636.815 437.868 636.115 437.868C635.415 437.868 634.915 438.068 634.815 437.968C634.715 437.868 635.315 437.468 636.115 437.468C636.915 437.468 637.415 437.868 637.415 437.968Z" fill="#263238"/>
<g opacity="0.3">
<path opacity="0.3" d="M637.916 430.668L637.716 432.968L625.416 432.368L625.516 430.268L637.916 430.668Z" fill="black"/>
</g>
<path d="M637.515 435.368C637.115 435.468 636.715 435.468 636.315 435.368C635.915 435.268 635.415 435.068 635.015 434.868C634.815 434.768 634.515 434.568 634.315 434.468C634.215 434.368 634.015 434.268 633.915 434.168C633.815 433.968 633.815 433.668 633.915 433.568C634.015 433.368 634.215 433.268 634.415 433.268C634.615 433.268 634.715 433.268 634.915 433.368C635.215 433.468 635.415 433.568 635.715 433.668C636.115 433.868 636.515 434.168 636.815 434.468C637.415 434.968 637.615 435.368 637.515 435.368C637.415 435.368 637.215 435.068 636.615 434.568C636.315 434.268 635.915 434.068 635.515 433.868C635.315 433.768 635.015 433.668 634.815 433.668C634.515 433.568 634.315 433.568 634.215 433.668C634.115 433.768 634.215 433.768 634.215 433.768C634.315 433.868 634.415 433.968 634.515 433.968C634.715 434.068 634.915 434.268 635.215 434.368C635.615 434.568 636.015 434.768 636.415 434.868C636.815 435.068 637.115 435.168 637.515 435.368Z" fill="#263238"/>
<path d="M637.415 435.468C637.215 435.068 637.115 434.668 637.115 434.268C637.115 433.568 637.315 432.768 637.715 432.168C637.815 431.868 638.215 431.568 638.515 431.568C638.715 431.568 638.915 431.768 639.015 431.968C639.115 432.168 639.115 432.268 639.115 432.468C639.215 433.268 639.015 433.968 638.515 434.568C638.015 435.168 637.515 435.368 637.515 435.268C637.515 435.168 637.915 434.968 638.315 434.368C638.515 433.968 638.715 433.668 638.715 433.168C638.715 432.968 638.715 432.668 638.715 432.468C638.715 432.168 638.615 431.968 638.515 431.968C638.415 431.968 638.215 432.168 638.015 432.368C637.915 432.568 637.815 432.768 637.715 433.068C637.515 433.468 637.415 433.868 637.415 434.268C637.315 435.068 637.415 435.468 637.415 435.468Z" fill="#263238"/>
<path d="M647.215 322.268C647.215 322.268 651.815 331.668 653.015 338.368C653.315 340.268 639.915 436.768 639.915 436.768L624.015 436.168L631.515 346.368L628.815 328.368L647.215 322.268Z" fill="#263238"/>
<path d="M608.515 328.068C608.415 334.568 608.715 341.068 609.515 347.568C610.715 357.068 613.415 367.768 614.315 373.768C616.215 387.068 620.115 389.568 620.115 389.568L650.715 428.668L662.715 417.868L635.715 374.768C635.715 374.768 628.515 326.868 628.815 328.168C629.115 329.468 608.515 328.068 608.515 328.068Z" fill="#263238"/>
<path d="M620.615 390.268C620.715 390.368 620.815 390.568 620.915 390.668L621.815 391.768L625.015 395.868C627.715 399.368 631.415 404.268 635.515 409.568C639.615 414.868 643.315 419.768 646.115 423.268C647.515 424.968 648.615 426.368 649.415 427.368L650.315 428.468C650.415 428.568 650.515 428.768 650.615 428.868C650.515 428.768 650.415 428.568 650.315 428.468L649.415 427.368L646.215 423.268L635.715 409.568C631.615 404.168 627.915 399.368 625.115 395.868C623.715 394.168 622.615 392.768 621.815 391.768L620.915 390.668C620.915 390.468 620.815 390.368 620.615 390.268Z" fill="#455A64"/>
<path d="M617.215 335.468C617.215 335.968 617.015 336.568 616.815 336.968C615.715 339.368 613.815 341.168 611.315 342.068C610.815 342.268 610.315 342.368 609.815 342.368C611.415 341.668 612.915 340.768 614.215 339.668C615.415 338.468 616.415 336.968 617.215 335.468Z" fill="#455A64"/>
<path d="M650.215 329.968C648.715 330.668 647.015 330.368 645.715 329.268C645.815 329.168 646.715 329.568 647.915 329.768C649.115 329.968 650.215 329.868 650.215 329.968Z" fill="#455A64"/>
<path d="M633.015 343.268C633.115 343.468 633.115 343.668 633.115 343.868C633.215 344.368 633.215 344.968 633.315 345.668C633.515 347.268 633.715 349.668 634.115 352.568C634.715 358.468 635.615 366.568 636.615 375.868V375.768L641.015 382.868L656.415 407.668C658.315 410.768 659.915 413.368 661.015 415.168L662.215 417.168C662.415 417.368 662.515 417.668 662.615 417.868C662.415 417.668 662.315 417.468 662.115 417.168L660.815 415.168L656.015 407.668C652.015 401.268 646.515 392.568 640.515 382.968L636.115 375.868V375.768C635.215 366.468 634.415 358.268 633.815 352.368L633.215 345.468C633.115 344.668 633.115 344.068 633.115 343.568C633.015 343.768 633.015 343.468 633.015 343.268Z" fill="#455A64"/>
<path d="M628.415 259.168L637.915 262.268L638.615 282.468C638.615 282.468 643.815 306.268 644.915 309.268C646.215 312.868 647.215 316.568 647.815 320.368C647.815 320.368 646.015 333.768 632.615 335.368C619.215 336.968 606.715 329.268 606.715 329.268C606.715 329.268 602.215 309.268 598.115 291.368C594.215 274.268 597.415 264.168 597.415 264.168L612.115 258.868L628.415 259.168Z" fill="#455A64"/>
<path d="M635.463 270.485L626.726 271.542L627.003 273.826L635.739 272.769L635.463 270.485Z" fill="#FAFAFA"/>
<path d="M637.615 246.268C637.415 245.268 636.515 244.568 635.515 244.568C636.215 243.968 636.415 242.968 635.815 242.268C635.715 242.068 635.515 241.968 635.315 241.768C636.315 240.268 636.015 238.368 634.615 237.168L624.515 251.068C626.115 252.268 628.115 252.868 630.015 252.568C632.015 252.268 633.915 251.568 635.515 250.568C636.015 250.368 636.415 249.968 636.615 249.568C636.815 249.068 636.515 248.468 636.015 248.368C637.015 248.268 637.715 247.268 637.615 246.268Z" fill="#263238"/>
<path d="M612.616 238.668C612.116 238.568 611.616 238.868 611.516 239.368C611.416 239.668 611.516 239.868 611.616 240.168C610.716 240.068 609.816 240.668 609.716 241.568C609.716 241.868 609.716 242.268 609.816 242.468C609.116 242.468 608.416 242.668 607.816 242.968C607.216 243.368 606.916 244.068 607.016 244.868C607.216 245.568 607.916 246.068 608.616 245.868C608.216 246.468 608.316 247.268 608.716 247.868C609.116 248.368 609.916 248.468 610.416 248.068L610.516 247.968C610.016 248.568 610.216 249.468 610.816 249.968C611.216 250.268 611.816 250.368 612.316 250.068C612.116 250.868 612.616 251.768 613.516 251.968C614.016 252.068 614.516 251.968 614.916 251.668L612.616 238.668Z" fill="#263238"/>
<path d="M613.215 236.068L612.815 260.668C612.715 264.668 615.815 268.068 619.815 268.468C624.015 268.868 627.715 265.768 628.115 261.568C628.115 261.368 628.115 261.268 628.115 261.068C628.115 258.768 628.215 256.768 628.215 256.768C628.215 256.768 634.215 256.368 634.815 250.468C635.115 247.068 635.215 239.268 635.315 233.268C635.315 229.268 632.215 225.868 628.215 225.468L624.615 225.168C618.515 224.968 613.515 229.768 613.315 235.868C613.215 235.768 613.215 235.868 613.215 236.068Z" fill="#FFBE9D"/>
<path d="M628.115 256.668C625.415 256.368 622.815 255.368 620.615 253.668C620.615 253.668 622.115 258.168 628.115 258.168V256.668Z" fill="#EB996E"/>
<path d="M633.515 239.168C633.415 239.268 632.815 238.768 631.915 238.668C631.015 238.568 630.315 238.968 630.215 238.868C630.115 238.768 630.315 238.668 630.615 238.468C631.015 238.268 631.515 238.168 632.015 238.168C632.515 238.168 632.916 238.368 633.316 238.768C633.516 238.868 633.615 239.068 633.515 239.168Z" fill="#263238"/>
<path d="M623.915 239.568C623.915 240.068 623.515 240.368 623.015 240.368C622.615 240.368 622.215 239.968 622.215 239.568C622.215 239.068 622.615 238.768 623.115 238.768C623.515 238.668 623.915 239.068 623.915 239.568Z" fill="#263238"/>
<path d="M632.715 240.368C632.715 240.868 632.315 241.168 631.815 241.168C631.315 241.168 631.015 240.768 631.015 240.368C631.015 239.868 631.415 239.568 631.915 239.568C632.315 239.468 632.715 239.868 632.715 240.368Z" fill="#263238"/>
<path d="M624.715 238.368C624.615 238.468 624.015 237.968 623.115 237.868C622.215 237.768 621.515 238.168 621.415 238.068C621.315 237.968 621.515 237.868 621.815 237.668C622.615 237.168 623.715 237.268 624.515 237.868C624.715 238.168 624.715 238.368 624.715 238.368Z" fill="#263238"/>
<path d="M627.416 245.368C627.916 245.268 628.416 245.168 628.916 245.268C629.116 245.268 629.416 245.268 629.416 245.068C629.416 244.868 629.416 244.568 629.316 244.368C629.116 243.768 629.016 243.168 628.816 242.568C628.316 240.968 627.916 239.468 627.716 237.768C628.316 239.268 628.816 240.868 629.216 242.468C629.416 243.068 629.516 243.768 629.716 244.268C629.816 244.568 629.816 244.868 629.716 245.168C629.616 245.368 629.516 245.468 629.316 245.468C629.216 245.468 629.016 245.468 628.916 245.468C628.416 245.568 627.916 245.468 627.416 245.368Z" fill="#263238"/>
<path d="M624.615 245.768C624.815 245.768 624.715 246.768 625.415 247.568C626.115 248.368 627.215 248.368 627.215 248.468C627.215 248.568 626.915 248.668 626.515 248.568C625.915 248.568 625.415 248.268 625.015 247.868C624.615 247.468 624.415 246.968 624.315 246.368C624.415 246.068 624.615 245.768 624.615 245.768Z" fill="#263238"/>
<path d="M625.215 235.468C625.115 235.668 624.216 235.468 623.116 235.568C622.016 235.668 621.115 235.768 621.015 235.568C620.915 235.368 621.115 235.268 621.515 235.068C622.015 234.768 622.516 234.668 623.116 234.668C623.716 234.668 624.215 234.768 624.715 234.968C625.015 235.168 625.215 235.368 625.215 235.468Z" fill="#263238"/>
<path d="M633.615 236.568C633.415 236.768 632.815 236.468 632.115 236.468C631.415 236.468 630.715 236.468 630.615 236.268C630.515 236.068 630.715 235.968 631.015 235.768C631.815 235.368 632.815 235.468 633.515 236.068C633.615 236.268 633.715 236.468 633.615 236.568Z" fill="#263238"/>
<path d="M614.815 240.668C614.715 240.568 610.815 239.068 610.615 243.168C610.415 247.268 614.515 246.668 614.515 246.468C614.515 246.268 614.815 240.668 614.815 240.668Z" fill="#FFBE9D"/>
<path d="M613.315 244.868C613.315 244.868 613.215 244.868 613.115 244.968C612.915 245.068 612.715 245.068 612.615 244.968C612.115 244.568 611.815 243.968 611.915 243.368C611.915 243.068 612.015 242.668 612.115 242.368C612.215 242.168 612.415 241.968 612.715 241.868C612.915 241.868 613.015 241.968 613.115 242.068C613.115 242.168 613.115 242.268 613.115 242.268C613.115 242.268 613.215 242.168 613.215 242.068C613.215 241.968 613.115 241.868 613.015 241.768C612.915 241.668 612.815 241.668 612.615 241.668C612.315 241.768 612.015 241.968 611.815 242.268C611.615 242.568 611.515 242.968 611.515 243.368C611.415 244.068 611.815 244.768 612.415 245.168C612.615 245.268 612.915 245.168 613.115 245.068C613.315 244.968 613.415 244.868 613.315 244.868Z" fill="#EB996E"/>
<path d="M612.515 240.268C613.315 240.268 614.016 240.768 614.416 241.468C614.616 242.068 614.616 242.768 614.816 243.368C615.016 243.968 615.616 244.568 616.216 244.468C616.616 244.368 617.016 244.068 617.116 243.668C617.216 243.268 617.316 242.768 617.216 242.368C617.116 240.468 616.915 238.568 617.015 236.668C617.015 234.768 617.616 232.868 618.716 231.268C619.816 229.668 621.716 228.768 623.716 229.068C624.916 229.268 626.016 230.068 627.316 230.368C628.816 230.668 630.315 230.368 631.515 229.368C631.715 229.268 632.316 228.868 632.316 228.868C632.316 228.368 632.215 227.968 632.015 227.568C629.715 225.068 625.315 223.968 622.015 224.568C618.615 225.068 615.516 227.068 613.716 230.068C612.016 232.768 612.115 237.068 612.515 240.268Z" fill="#263238"/>
<path d="M635.915 232.168C635.215 233.368 633.915 233.968 632.515 233.968C631.215 233.868 629.815 233.568 628.615 233.068C626.715 232.368 624.615 231.968 622.615 231.668C622.415 231.668 622.215 231.668 622.115 231.468C622.015 231.268 622.215 230.968 622.415 230.868C624.315 229.668 628.615 229.168 630.915 229.268C633.215 229.268 635.315 230.568 636.515 232.568" fill="#263238"/>
<path d="M635.316 232.268C634.116 230.768 632.416 229.868 630.616 229.568C623.316 228.968 616.216 232.468 612.416 238.668C612.016 236.968 611.916 235.168 611.916 233.468C612.016 232.268 613.416 225.168 620.916 223.568C620.816 223.568 632.316 220.268 635.316 232.268Z" fill="#455A64"/>
<path d="M613.115 237.168C615.815 233.868 619.115 231.168 622.915 229.268C627.415 227.268 632.115 225.768 636.915 224.968C638.115 224.668 639.415 224.668 640.715 224.868C642.015 225.168 643.015 226.168 643.315 227.368C643.515 228.968 640.615 231.068 639.315 231.868C638.015 232.568 636.615 233.268 635.215 233.768C635.215 233.768 635.515 230.968 631.015 229.968C624.815 228.768 613.115 237.168 613.115 237.168Z" fill="#455A64"/>
<path d="M641.515 225.168C641.115 225.068 640.615 224.968 640.215 224.968C639.015 224.968 637.816 224.968 636.616 225.168C632.716 225.868 628.915 226.868 625.215 228.368C621.515 229.768 618.115 231.868 615.215 234.568C614.315 235.368 613.615 236.268 612.915 237.268C612.515 237.968 612.315 238.468 612.215 238.368C612.115 238.268 612.216 238.268 612.316 238.068C612.416 237.768 612.515 237.468 612.715 237.168C613.315 236.068 614.015 235.168 614.915 234.268C617.815 231.468 621.215 229.268 625.015 227.868C628.715 226.368 632.615 225.268 636.515 224.768C637.715 224.568 638.916 224.568 640.116 224.668C640.416 224.668 640.816 224.768 641.116 224.868C641.416 225.068 641.515 225.168 641.515 225.168Z" fill="#263238"/>
<path d="M626.915 226.768C628.415 226.168 629.915 225.768 631.515 225.668C631.215 225.368 630.815 225.068 630.315 224.868C629.115 224.968 627.815 225.268 626.715 225.768L626.915 226.768Z" fill="#FAFAFA"/>
<path d="M636.015 234.268C636.615 233.468 636.415 232.368 635.615 231.768C635.315 231.568 635.015 231.468 634.715 231.468C635.515 231.168 635.915 230.168 635.615 229.368C635.615 229.368 635.615 229.268 635.515 229.268C635.015 228.468 634.015 228.068 633.115 228.368C632.215 228.668 631.515 229.368 631.315 230.268C630.715 229.368 629.515 229.168 628.615 229.768C628.315 229.968 628.115 230.168 628.015 230.468C627.815 229.968 627.315 229.668 626.715 229.768C626.215 229.968 625.715 230.168 625.315 230.568C624.915 230.968 624.415 231.168 623.915 231.168L623.615 231.268C624.215 232.268 625.415 232.568 626.415 232.068C626.415 232.968 627.115 233.668 627.915 233.668C628.415 233.668 628.915 233.368 629.215 232.968C629.415 233.768 630.315 234.268 631.115 234.068C631.315 233.968 631.515 233.968 631.715 233.768C632.115 234.768 633.315 235.268 634.315 234.968C634.515 234.868 634.715 234.768 634.815 234.668C635.315 235.468 635.515 236.468 635.215 237.468C636.215 237.268 636.815 236.268 636.615 235.368C636.515 234.868 636.315 234.568 636.015 234.268Z" fill="#263238"/>
<path d="M619.115 233.268C617.715 233.868 616.415 234.668 615.115 235.468C613.815 236.368 612.815 237.568 612.115 238.868L614.115 240.768C614.615 240.968 615.115 241.168 615.515 240.768C615.915 240.368 616.215 239.768 616.115 239.268C616.915 239.468 617.715 238.968 617.915 238.168C618.015 237.868 617.915 237.568 617.815 237.268C618.215 237.168 618.515 236.868 618.615 236.468C618.715 236.068 618.615 235.668 618.315 235.368C618.915 235.368 619.415 234.768 619.415 234.168C619.415 233.868 619.315 233.568 619.115 233.268Z" fill="#263238"/>
<path d="M637.915 262.268C637.915 262.268 643.815 265.768 645.615 268.968C647.415 272.168 656.815 295.168 656.415 298.968C656.015 302.768 647.115 305.068 647.115 305.068L637.815 293.068L642.015 290.568L637.815 282.368V262.268H637.915Z" fill="#455A64"/>
<path d="M647.216 305.068C647.216 305.068 625.716 309.368 617.916 300.068L620.216 292.168C620.216 292.168 634.416 295.568 638.816 294.068L647.216 305.068Z" fill="#FFBE9D"/>
<path d="M649.415 285.968C649.515 286.168 646.915 287.168 644.215 289.268C641.515 291.368 639.815 293.568 639.615 293.468C639.815 292.868 640.215 292.368 640.615 291.968C641.515 290.868 642.615 289.768 643.815 288.868C645.015 287.968 646.315 287.168 647.615 286.568C648.215 286.268 648.815 286.068 649.415 285.968Z" fill="#263238"/>
<path d="M642.515 290.268C641.715 289.068 641.115 287.768 640.615 286.468C639.915 285.168 639.315 283.868 638.815 282.568C639.715 283.668 640.515 284.868 641.015 286.268C641.715 287.468 642.215 288.868 642.515 290.268Z" fill="#263238"/>
<path d="M638.615 280.568C638.515 279.468 638.415 278.368 638.115 277.268C637.915 276.168 637.615 275.068 637.215 273.968C637.515 276.168 637.915 278.368 638.615 280.568Z" fill="#263238"/>
<path d="M600.115 265.268C600.515 265.668 606.415 269.568 608.415 276.268C610.415 282.968 612.515 289.868 612.515 289.868L620.215 290.868L615.915 308.568C610.015 307.668 604.715 304.168 601.515 299.068C598.115 293.068 595.315 286.768 593.215 280.168C593.215 280.268 593.815 258.768 600.115 265.268Z" fill="#455A64"/>
<path d="M617.515 290.568C617.515 290.568 614.215 283.268 613.815 283.168C613.415 283.068 607.115 280.868 607.115 280.868C606.915 281.368 606.915 281.968 607.115 282.468L604.815 282.768C604.815 282.768 605.115 284.168 605.915 284.368L605.115 285.068C605.515 285.568 606.015 286.068 606.615 286.368C607.115 286.568 607.615 286.568 608.115 286.368C608.115 286.368 607.815 286.868 609.115 287.668C610.415 288.468 612.615 289.668 612.615 289.668L617.515 290.568Z" fill="#FFBE9D"/>
<path d="M612.715 289.668C612.715 289.668 610.515 288.468 609.215 287.668C608.115 286.968 608.115 286.468 608.215 286.368C607.715 286.568 607.215 286.568 606.715 286.368C606.115 286.068 605.615 285.568 605.215 285.068L606.015 284.268C605.215 284.068 604.915 282.768 604.915 282.668L607.215 282.368C607.015 281.868 607.015 281.268 607.215 280.768C607.315 280.768 613.515 282.968 613.915 283.068C614.315 283.168 617.515 290.168 617.615 290.468L612.715 289.668ZM607.115 282.368L604.815 282.668C604.815 282.868 605.215 284.068 605.915 284.268L605.115 284.968C605.515 285.468 606.015 285.968 606.615 286.268C607.115 286.468 607.615 286.468 608.115 286.268V286.368C608.115 286.368 607.815 286.868 609.115 287.668C610.415 288.468 612.515 289.668 612.615 289.668L617.415 290.568C616.315 288.068 614.115 283.268 613.715 283.168C613.315 283.068 607.315 280.968 607.015 280.868C606.915 281.368 606.915 281.868 607.115 282.368Z" fill="#EB996E"/>
<path d="M607.315 282.468C608.615 283.068 610.015 283.668 611.415 284.068C612.015 284.268 612.615 284.468 613.015 284.668C613.415 284.868 613.715 285.168 613.915 285.568C614.315 286.268 614.415 286.768 614.515 286.668C614.515 286.268 614.415 285.768 614.115 285.368C613.915 284.868 613.515 284.568 613.115 284.268C612.615 284.068 612.015 283.868 611.515 283.668C610.215 283.168 608.715 282.768 607.315 282.468Z" fill="#EB996E"/>
<path d="M605.815 284.268C606.215 284.468 606.515 284.568 606.915 284.668C607.615 284.868 608.615 285.068 609.715 285.268C610.615 285.468 611.515 285.868 612.215 286.468C612.815 286.968 613.015 287.268 613.115 287.268C613.015 286.868 612.715 286.568 612.415 286.268C611.615 285.668 610.715 285.168 609.815 284.868C608.715 284.568 607.715 284.468 606.915 284.368C606.615 284.368 606.215 284.268 605.815 284.268Z" fill="#EB996E"/>
<path d="M611.615 287.568C611.215 287.068 610.715 286.668 610.115 286.568C609.515 286.268 608.915 286.268 608.315 286.368C608.315 286.468 609.115 286.568 610.015 286.868C610.915 287.168 611.515 287.668 611.615 287.568Z" fill="#EB996E"/>
<path d="M619.515 292.768L638.915 282.968L642.415 290.168C642.415 290.168 624.515 307.868 616.215 307.668" fill="#FFBE9D"/>
<path d="M607.715 272.268C607.715 272.768 607.815 273.268 608.015 273.668C608.215 274.568 608.515 275.768 608.915 277.068C609.315 278.368 609.615 279.568 609.915 280.468C610.015 280.968 610.215 281.368 610.415 281.868C610.415 281.368 610.315 280.868 610.115 280.468C609.915 279.568 609.615 278.368 609.215 277.068C608.815 275.768 608.515 274.568 608.215 273.668C608.115 273.168 607.915 272.668 607.715 272.268Z" fill="#263238"/>
<path d="M608.615 296.368C608.715 296.368 608.815 295.468 609.315 294.068C609.615 293.268 609.915 292.468 610.515 291.868C611.115 291.068 612.015 290.468 613.015 290.268C614.015 290.268 615.115 290.368 616.115 290.668L618.615 291.168C618.915 291.168 619.215 291.268 619.515 291.368C619.715 291.468 619.915 291.668 620.015 291.868C620.115 292.068 620.115 292.268 620.015 292.468C620.015 292.468 620.315 292.268 620.215 291.868C620.115 291.568 619.915 291.368 619.715 291.268C619.415 291.168 619.015 290.968 618.715 290.968L616.215 290.368C615.215 290.068 614.115 289.968 613.015 289.968C611.915 290.168 610.915 290.768 610.315 291.668C609.815 292.368 609.415 293.168 609.215 294.068C609.015 294.668 608.915 295.168 608.815 295.768C608.615 295.968 608.515 296.168 608.615 296.368Z" fill="#263238"/>
<path d="M605.916 292.468C606.416 291.568 607.116 290.668 608.016 290.068C608.916 289.468 609.916 289.068 611.016 288.768C610.716 288.668 610.316 288.768 610.016 288.868C609.216 289.068 608.516 289.368 607.816 289.768C607.116 290.268 606.616 290.868 606.216 291.568C606.016 291.768 605.916 292.068 605.916 292.468Z" fill="#263238"/>
<path d="M593.215 280.268C593.215 280.268 593.215 280.368 593.315 280.668C593.415 280.968 593.515 281.268 593.715 281.768C594.015 282.768 594.515 284.068 595.015 285.668C595.515 287.268 596.215 289.268 597.215 291.368C598.215 293.468 599.315 295.768 600.715 297.968C602.015 300.168 603.615 302.068 605.515 303.668C607.115 304.968 608.815 306.068 610.715 306.868C612.015 307.368 613.315 307.768 614.715 307.968C615.115 308.068 615.415 308.068 615.815 308.068C616.115 308.068 616.215 308.068 616.215 308.068C616.215 308.068 615.715 307.968 614.715 307.868C613.415 307.668 612.015 307.268 610.815 306.668C606.715 304.768 603.315 301.668 601.015 297.768C599.615 295.468 598.515 293.168 597.515 291.168C596.515 289.168 595.815 287.168 595.215 285.468C594.615 283.768 594.115 282.468 593.815 281.568L593.415 280.568C593.315 280.568 593.215 280.368 593.215 280.268Z" fill="#263238"/>
<path d="M598.715 265.668C598.715 265.768 600.215 266.268 601.915 267.268C603.615 268.268 604.815 269.368 604.915 269.268C603.315 267.568 601.115 266.268 598.715 265.668Z" fill="#263238"/>
<path d="M613.416 312.768C613.716 312.968 614.116 313.168 614.416 313.268C614.716 313.468 615.116 313.568 615.616 313.768C616.116 313.968 616.616 314.168 617.216 314.368C618.616 314.868 620.116 315.268 621.516 315.668C623.316 316.068 625.116 316.368 627.016 316.568C628.816 316.768 630.716 316.768 632.516 316.668C634.016 316.568 635.516 316.468 637.016 316.168C637.616 316.068 638.216 315.968 638.716 315.868C639.216 315.768 639.616 315.668 640.016 315.568C640.416 315.468 640.716 315.368 641.116 315.268C640.716 315.268 640.416 315.368 640.016 315.468C639.716 315.568 639.216 315.668 638.716 315.668C638.216 315.668 637.616 315.868 637.016 315.968C635.516 316.168 634.016 316.268 632.516 316.368C630.716 316.468 628.816 316.368 627.016 316.268C625.216 316.068 623.416 315.868 621.616 315.468C620.116 315.168 618.716 314.768 617.316 314.268C616.716 314.068 616.116 313.868 615.716 313.668C615.316 313.468 614.816 313.368 614.516 313.168C614.116 313.068 613.816 312.868 613.416 312.768Z" fill="#263238"/>
<path d="M629.215 322.868C630.515 322.668 631.915 322.368 633.115 321.868C634.415 321.468 635.615 320.968 636.815 320.268C636.815 320.168 635.115 320.768 633.015 321.468C630.915 322.168 629.215 322.768 629.215 322.868Z" fill="#263238"/>
<g opacity="0.3">
<path opacity="0.3" d="M644.015 305.568C639.615 306.468 635.015 306.468 630.615 305.768C629.015 305.268 627.315 305.068 625.615 305.168C624.315 305.468 623.015 305.968 621.815 306.668C617.115 308.568 611.815 308.068 607.615 305.168C609.115 307.968 611.815 309.868 614.915 310.268C618.015 310.668 621.115 310.368 624.115 309.468C625.915 308.868 627.715 308.568 629.615 308.368C632.015 308.268 634.315 309.068 636.615 309.168C639.315 309.268 642.015 308.468 644.315 306.868L644.015 305.568Z" fill="black"/>
</g>
<g opacity="0.3">
<path opacity="0.3" d="M636.315 320.968C634.315 324.368 630.815 326.568 626.915 326.968C626.115 327.068 625.215 326.968 624.415 326.768C623.615 326.568 622.915 325.968 622.515 325.168C623.415 324.568 624.415 324.168 625.415 323.968L636.215 320.968" fill="black"/>
</g>
<path d="M642.215 290.468C641.915 290.768 641.615 291.068 641.315 291.368C640.715 291.968 639.915 292.768 638.915 293.768C637.915 294.768 636.715 296.068 635.315 297.268C633.915 298.468 632.215 299.768 630.515 301.168C628.915 302.468 627.215 303.568 625.415 304.668C623.915 305.568 622.415 306.268 620.815 306.768C619.715 307.168 618.615 307.368 617.515 307.568C617.115 307.668 616.715 307.668 616.315 307.668C617.815 307.368 619.315 306.968 620.715 306.468C622.315 305.868 623.815 305.168 625.215 304.268C626.915 303.168 628.615 302.068 630.215 300.768C631.915 299.468 633.615 298.168 635.015 296.968C636.415 295.768 637.615 294.568 638.715 293.568C639.815 292.568 640.615 291.768 641.215 291.268C641.415 290.968 641.815 290.668 642.215 290.468Z" fill="#EB996E"/>
</svg>
