<svg width="521" height="402" viewBox="0 0 521 402" fill="none" xmlns="http://www.w3.org/2000/svg">
<path d="M487.13 188.108C477.06 140.378 438.49 97.4883 389.83 94.0183C358.29 91.7783 327.9 104.408 297.92 114.468C267.94 124.528 234.56 132.038 205.33 119.998C172.26 106.378 153.46 71.6782 125.25 49.6982C86.6699 19.6383 30.2499 16.3383 -13.2801 38.6983C-56.8101 61.0583 -86.4301 106.788 -92.6601 155.308C-98.8901 203.828 -82.7401 254.068 -52.2601 292.308L-51.3401 293.448C-30.8575 318.885 -5.31829 339.794 23.6617 354.852C52.6416 369.91 84.4314 378.79 117.02 380.928L242.15 389.298C340.71 387.598 383.56 361.408 424.75 335.298C465.94 309.188 500.57 251.818 487.13 188.108Z" fill="#E0E0E0"/>
<path d="M399.9 359.658C397.96 362.418 394.19 361.508 392.45 359.818C390.71 358.128 389.96 355.678 389.29 353.338C387.75 348.008 386.21 342.408 387.35 336.968C387.627 335.322 388.35 333.783 389.44 332.518C389.994 331.897 390.701 331.432 391.49 331.169C392.28 330.906 393.124 330.854 393.94 331.018C395.84 331.518 397.02 333.388 397.87 335.158C400.385 340.382 401.704 346.101 401.73 351.898C401.73 354.598 401.42 357.428 399.9 359.658" fill="#BA84D1"/>
<g opacity="0.2">
<path opacity="0.2" d="M399.9 359.658C397.96 362.418 394.19 361.508 392.45 359.818C390.71 358.128 389.96 355.678 389.29 353.338C387.75 348.008 386.21 342.408 387.35 336.968C387.627 335.322 388.35 333.783 389.44 332.518C389.994 331.897 390.701 331.432 391.49 331.169C392.28 330.906 393.124 330.854 393.94 331.018C395.84 331.518 397.02 333.388 397.87 335.158C400.385 340.382 401.704 346.101 401.73 351.898C401.73 354.598 401.42 357.428 399.9 359.658" fill="black"/>
</g>
<path d="M392.64 373.678C389.389 372.151 385.733 371.706 382.21 372.408C380.287 372.577 378.477 373.387 377.07 374.708C375.78 376.128 375.54 378.628 377.01 379.848C377.965 380.492 379.114 380.782 380.26 380.668C383.01 380.668 386.07 380.148 388.26 381.808C389.52 382.758 390.35 384.328 391.86 384.808C392.611 384.979 393.397 384.902 394.1 384.588C394.803 384.274 395.386 383.741 395.76 383.068C396.483 381.689 396.64 380.082 396.2 378.588C396.026 377.55 395.614 376.567 394.997 375.715C394.379 374.863 393.572 374.166 392.64 373.678V373.678Z" fill="#BA84D1"/>
<path d="M405.22 363.628C404.226 362.326 403.565 360.802 403.293 359.186C403.022 357.571 403.147 355.914 403.66 354.358C404.716 351.236 406.617 348.467 409.15 346.358C412.019 343.805 415.358 341.834 418.98 340.558C420.382 339.994 421.89 339.738 423.4 339.808C424.154 339.852 424.886 340.078 425.533 340.469C426.179 340.859 426.721 341.401 427.11 342.048C428.11 344.048 427.16 346.418 426.11 348.368C424.222 351.815 422.062 355.106 419.65 358.208C417.72 360.698 415.5 363.208 412.55 364.288C409.6 365.368 406.55 365.288 404.97 363.288" fill="#BA84D1"/>
<path d="M400.03 401.418C399.936 401.004 399.879 400.582 399.86 400.158C399.77 399.248 399.66 398.098 399.52 396.728C399.348 395.05 399.091 393.381 398.75 391.728C398.297 389.703 397.685 387.717 396.92 385.788C396.181 383.861 395.171 382.05 393.92 380.408C392.214 378.13 389.676 376.62 386.86 376.208C386.435 376.196 386.012 376.136 385.6 376.028C386.026 375.987 386.454 375.987 386.88 376.028C388.047 376.12 389.188 376.418 390.25 376.908C391.813 377.661 393.181 378.763 394.25 380.128C395.559 381.792 396.617 383.638 397.39 385.608C398.173 387.568 398.782 389.592 399.21 391.658C399.533 393.344 399.757 395.047 399.88 396.758C399.99 398.208 400.03 399.388 400.05 400.208C400.09 400.611 400.084 401.017 400.03 401.418Z" fill="#263238"/>
<path d="M399.8 398.778C399.776 398.586 399.776 398.391 399.8 398.198C399.8 397.758 399.8 397.198 399.8 396.528C399.8 395.078 399.8 392.978 399.72 390.388C399.59 385.208 399.15 378.068 398.29 370.208C397.43 362.348 396.29 355.278 395.22 350.208C394.97 348.938 394.72 347.798 394.49 346.788C394.26 345.778 394.07 344.918 393.89 344.218C393.71 343.518 393.6 343.028 393.5 342.598C393.443 342.41 393.409 342.215 393.4 342.018C393.484 342.195 393.551 342.379 393.6 342.568L394.09 344.168C394.3 344.868 394.52 345.728 394.77 346.728C395.02 347.728 395.31 348.858 395.58 350.128C397.006 356.733 398.081 363.409 398.8 370.128C399.67 378.008 400.05 385.128 400.09 390.358C400.09 392.958 400.09 395.058 400 396.508C400 397.188 399.92 397.738 399.9 398.178C399.885 398.381 399.851 398.582 399.8 398.778Z" fill="#263238"/>
<path d="M399.76 384.948C399.719 384.369 399.719 383.788 399.76 383.208C399.83 382.088 399.98 380.468 400.3 378.488C400.68 376.165 401.191 373.864 401.83 371.598C402.597 368.82 403.559 366.1 404.71 363.458C406.706 358.591 409.573 354.128 413.17 350.288C413.797 349.63 414.465 349.012 415.17 348.438C415.48 348.188 415.75 347.928 416.02 347.728L416.8 347.188C417.262 346.838 417.75 346.524 418.26 346.248C416.573 347.586 414.967 349.021 413.45 350.548C409.98 354.419 407.193 358.853 405.21 363.658C404.067 366.282 403.098 368.977 402.31 371.728C401.56 374.258 401.06 376.588 400.68 378.548C400.3 380.508 400.11 382.118 399.98 383.228C399.955 383.807 399.882 384.382 399.76 384.948V384.948Z" fill="#263238"/>
<path d="M182.47 305.628L27.69 141.908C26.9085 141.078 26.4876 139.973 26.5195 138.833C26.5514 137.694 27.0334 136.613 27.86 135.828L129.47 39.7883C129.88 39.4002 130.363 39.0966 130.891 38.8951C131.418 38.6936 131.981 38.598 132.545 38.6137C133.11 38.6295 133.666 38.7564 134.181 38.9871C134.697 39.2178 135.162 39.5478 135.55 39.9583L290.32 203.688C291.101 204.518 291.522 205.624 291.49 206.763C291.459 207.903 290.977 208.983 290.15 209.768L188.56 305.768C188.152 306.161 187.67 306.469 187.143 306.675C186.615 306.881 186.052 306.98 185.486 306.967C184.92 306.954 184.362 306.829 183.844 306.599C183.326 306.369 182.859 306.039 182.47 305.628Z" fill="#BA84D1"/>
<g opacity="0.3">
<path opacity="0.3" d="M182.47 305.628L27.69 141.908C26.9085 141.078 26.4876 139.973 26.5195 138.833C26.5514 137.694 27.0334 136.613 27.86 135.828L129.47 39.7883C129.88 39.4002 130.363 39.0966 130.891 38.8951C131.418 38.6936 131.981 38.598 132.545 38.6137C133.11 38.6295 133.666 38.7564 134.181 38.9871C134.697 39.2178 135.162 39.5478 135.55 39.9583L290.32 203.688C291.101 204.518 291.522 205.624 291.49 206.763C291.459 207.903 290.977 208.983 290.15 209.768L188.56 305.768C188.152 306.161 187.67 306.469 187.143 306.675C186.615 306.881 186.052 306.98 185.486 306.967C184.92 306.954 184.362 306.829 183.844 306.599C183.326 306.369 182.859 306.039 182.47 305.628Z" fill="black"/>
</g>
<path d="M289.18 202.488L136.66 41.1583C136.124 40.5892 135.481 40.1315 134.768 39.8114C134.055 39.4913 133.286 39.315 132.505 39.2927C131.723 39.2704 130.945 39.4025 130.215 39.6815C129.485 39.9604 128.817 40.3807 128.25 40.9183L99.39 68.2083C99.1045 68.475 98.8894 68.808 98.7638 69.1779C98.6382 69.5478 98.606 69.9429 98.67 70.3283C101.56 86.4683 113.1 100.898 126.86 110.458C143.48 122.008 163.18 128.098 181.86 135.808C200.54 143.518 219.37 153.678 230.6 170.528C241.19 186.438 243.69 206.168 249.08 224.528C250.546 229.516 252.377 234.39 254.56 239.108C254.719 239.451 254.957 239.751 255.254 239.984C255.552 240.217 255.9 240.376 256.271 240.448C256.642 240.52 257.025 240.504 257.388 240.399C257.751 240.295 258.084 240.106 258.36 239.848L288.95 210.928C289.523 210.391 289.983 209.746 290.305 209.03C290.627 208.314 290.804 207.541 290.826 206.756C290.847 205.971 290.713 205.19 290.43 204.458C290.148 203.725 289.723 203.056 289.18 202.488Z" fill="#BA84D1"/>
<path d="M134.41 88.1084C133.03 89.4184 131.19 89.1083 129.21 86.9783L125.31 82.8484L133.31 75.3083L136.99 79.2084C138.88 81.2084 138.99 83.0184 137.78 84.2084C137.425 84.5605 136.976 84.804 136.487 84.9103C135.999 85.0166 135.49 84.9812 135.02 84.8083C135.302 85.3474 135.395 85.9654 135.285 86.5636C135.174 87.1619 134.866 87.7057 134.41 88.1084V88.1084ZM133.63 78.4584L131.75 80.2383L133.47 82.1084C134.32 83.0084 135.1 83.1984 135.73 82.6084C136.36 82.0184 136.2 81.2384 135.35 80.3384L133.63 78.4584ZM132.84 86.0684C133.51 85.4384 133.35 84.6184 132.44 83.6584L130.44 81.5083L128.44 83.3683L130.44 85.5284C131.38 86.4884 132.16 86.7184 132.84 86.1084V86.0684Z" fill="white"/>
<path d="M140.23 95.2083L136.72 91.4983L134.34 92.4083L132.56 90.5183L143.9 86.5183L145.62 88.3483L141.02 99.4583L139.18 97.5183L140.23 95.2083ZM141.08 93.2983L142.94 89.1483L138.69 90.7683L141.08 93.2983Z" fill="white"/>
<path d="M156.69 100.108L148.69 107.648L147.28 106.108L148.37 97.5583L143.52 102.108L141.8 100.278L149.8 92.7383L151.25 94.2683L150.15 102.808L155 98.2283L156.69 100.108Z" fill="white"/>
<path d="M156.38 109.438H154.25L152.25 111.348L150.47 109.498L158.47 101.948L160.2 103.788L156.47 107.308H163.54L165.48 109.308L158.8 109.368L157.7 117.108L155.7 114.958L156.38 109.438Z" fill="white"/>
<path d="M99.81 117.988L98.47 116.518L96.47 118.338L95.76 117.588L97.69 115.768L93.78 111.638L94.32 111.118L102.85 110.408L103.64 111.248L95.37 111.978L98.37 115.158L100.06 113.548L100.75 114.288L99.06 115.888L100.44 117.348L99.81 117.988Z" fill="white"/>
<path d="M105.08 123.198C103.85 124.348 102.08 124.358 100.4 122.588C99.4542 121.651 98.9001 120.389 98.8499 119.058L99.7899 118.858C99.8026 120.013 100.27 121.116 101.09 121.928C102.24 123.148 103.43 123.278 104.34 122.418C105.25 121.558 105.21 120.418 103.93 119.068L103.43 118.548L103.99 118.018L108.45 117.648L104.91 113.898L105.58 113.268L110.03 117.978L109.5 118.478L104.93 118.868C106.33 120.518 106.25 122.108 105.08 123.198Z" fill="white"/>
<path d="M110.73 129.108C109.48 130.288 107.73 130.338 106 128.548C105.054 127.616 104.502 126.356 104.46 125.028L105.4 124.828C105.42 125.957 105.879 127.033 106.68 127.828C107.85 129.078 109.08 129.168 109.97 128.318C110.86 127.468 110.97 126.318 109.19 124.428L107.71 122.868L111.71 119.778L115.5 123.778L114.83 124.408L111.7 121.108L109.12 123.058L110.01 124.058C112.1 126.178 112.02 127.838 110.73 129.108Z" fill="white"/>
<path d="M116.86 135.488C116.542 135.785 116.165 136.013 115.754 136.156C115.343 136.299 114.907 136.355 114.473 136.321C114.039 136.286 113.618 136.161 113.235 135.954C112.852 135.747 112.516 135.462 112.25 135.118C110.41 133.168 110.76 130.838 113.07 128.648C115.56 126.298 118.14 126.428 120.02 128.418C120.623 128.997 121.055 129.731 121.27 130.538L120.37 130.808C120.22 130.138 119.871 129.528 119.37 129.058C117.88 127.478 115.91 127.418 113.92 129.298C113.75 129.458 113.55 129.668 113.35 129.898C113.953 129.724 114.594 129.73 115.193 129.917C115.792 130.103 116.323 130.462 116.72 130.948C118.1 132.398 118.2 134.228 116.86 135.488ZM116.14 134.768C117.14 133.858 117.05 132.568 115.98 131.438C115.789 131.183 115.547 130.971 115.27 130.813C114.993 130.655 114.687 130.556 114.37 130.521C114.053 130.486 113.733 130.517 113.428 130.611C113.124 130.705 112.842 130.861 112.6 131.068C111.79 131.828 111.66 133.218 112.86 134.478C113.045 134.729 113.281 134.937 113.552 135.089C113.824 135.241 114.125 135.334 114.435 135.361C114.745 135.389 115.057 135.35 115.351 135.248C115.645 135.146 115.914 134.982 116.14 134.768V134.768Z" fill="white"/>
<path d="M129.64 153.388L130.29 149.468L126.29 149.888L125.5 149.048L130.39 148.548L131.1 143.948L131.9 144.788L131.3 148.478L135.02 148.088L135.79 148.908L131.16 149.368L130.41 154.238L129.64 153.388Z" fill="white"/>
<path d="M134.92 158.978L135.57 155.048L131.57 155.468L130.77 154.628L135.66 154.138L136.38 149.538L137.17 150.368L136.58 154.058L140.29 153.678L141.07 154.498L136.43 154.958L135.68 159.828L134.92 158.978Z" fill="white"/>
<path d="M140.2 164.558L140.85 160.638L136.85 161.058L136.06 160.218L140.94 159.728L141.66 155.118L142.45 155.958L141.86 159.648L145.58 159.268L146.35 160.078L141.71 160.538L140.96 165.408L140.2 164.558Z" fill="white"/>
<path d="M145.47 170.108L146.12 166.188L142.12 166.608L141.33 165.768L146.21 165.268L146.93 160.668L147.72 161.508L147.13 165.198L150.85 164.808L151.62 165.628L146.98 166.088L146.24 170.958L145.47 170.108Z" fill="white"/>
<path d="M163.72 189.438L164.37 185.518L160.37 185.938L159.58 185.098L164.46 184.608L165.18 179.998L165.97 180.838L165.38 184.528L169.1 184.138L169.87 184.958L165.23 185.418L164.48 190.288L163.72 189.438Z" fill="white"/>
<path d="M169 195.028L169.65 191.098L165.65 191.518L164.86 190.688L169.74 190.188L170.46 185.588L171.25 186.428L170.66 190.118L174.38 189.728L175.15 190.548L170.51 191.008L169.76 195.878L169 195.028Z" fill="white"/>
<path d="M174.28 200.618L174.94 196.688L170.94 197.108L170.15 196.268L175.03 195.778L175.75 191.178L176.54 192.008L175.95 195.698L179.67 195.318L180.44 196.128L175.8 196.588L175.06 201.458L174.28 200.618Z" fill="white"/>
<path d="M179.57 206.198L180.22 202.278L176.22 202.698L175.43 201.858L180.31 201.368L181.03 196.758L181.83 197.598L181.23 201.288L184.95 200.898L185.72 201.718L181.08 202.178L180.34 207.048L179.57 206.198Z" fill="white"/>
<path d="M203.27 216.598L195.95 223.528L195.23 222.768L201.89 216.478L200.26 214.758L200.93 214.118L203.27 216.598Z" fill="white"/>
<path d="M204.28 228.108C203.06 229.268 201.28 229.268 199.6 227.498C198.654 226.561 198.1 225.299 198.05 223.968L198.99 223.768C199.009 224.925 199.475 226.028 200.29 226.848C201.44 228.058 202.64 228.198 203.55 227.338C204.46 226.478 204.42 225.338 203.13 223.978L202.64 223.458L203.19 222.938L207.65 222.558L204.11 218.818L204.78 218.178L209.23 222.888L208.7 223.398L204.14 223.788C205.54 225.458 205.47 227.018 204.28 228.108Z" fill="white"/>
<path d="M210.99 235.578L209.6 234.108L207.68 235.928L206.96 235.178L208.89 233.358L204.98 229.228L205.53 228.708L214.05 228.008L214.84 228.838L206.57 229.568L209.57 232.748L211.26 231.148L211.96 231.878L210.26 233.478L211.65 234.948L210.99 235.578Z" fill="white"/>
<path d="M215.07 242.418L214.4 243.048L209.54 237.908L210.08 237.408L215.94 237.628C217.54 237.688 218.18 237.378 218.68 236.908C219.53 236.098 219.49 235.008 218.43 233.908C218.099 233.514 217.684 233.2 217.214 232.989C216.745 232.777 216.234 232.675 215.72 232.688V231.688C216.385 231.681 217.044 231.821 217.649 232.097C218.254 232.374 218.79 232.78 219.22 233.288C220.62 234.778 220.76 236.428 219.53 237.588C218.83 238.248 218 238.588 216.11 238.588L211.3 238.418L215.07 242.418Z" fill="white"/>
<path d="M73.1199 124.108C73.5182 123.777 74.0051 123.569 74.5202 123.511C75.0354 123.453 75.5561 123.548 76.0181 123.783C76.48 124.019 76.8628 124.384 77.1191 124.835C77.3753 125.285 77.4938 125.801 77.4599 126.318L76.4599 126.258C76.4891 126.029 76.4666 125.795 76.3939 125.576C76.3212 125.356 76.2003 125.155 76.0399 124.988C75.9007 124.841 75.7339 124.723 75.549 124.64C75.3641 124.558 75.1647 124.512 74.9623 124.507C74.5535 124.496 74.1569 124.647 73.8599 124.928C73.5629 125.209 73.3896 125.597 73.3784 126.006C73.3671 126.415 73.5187 126.811 73.7999 127.108C73.9577 127.278 74.1525 127.41 74.3692 127.493C74.5859 127.577 74.8187 127.609 75.0499 127.588V128.588C74.6732 128.605 74.2977 128.536 73.9514 128.387C73.605 128.239 73.2968 128.013 73.0499 127.728C72.8053 127.492 72.6121 127.208 72.4822 126.894C72.3524 126.58 72.2888 126.243 72.2954 125.903C72.302 125.563 72.3786 125.228 72.5205 124.92C72.6623 124.611 72.8664 124.335 73.1199 124.108Z" fill="white"/>
<path d="M77.9099 131.108L76.3698 129.488L75.3698 129.888L74.5898 129.058L79.5898 127.308L80.3398 128.108L78.3398 132.978L77.4698 132.108L77.9099 131.108ZM78.2798 130.278L79.0898 128.458L77.2299 129.168L78.2798 130.278Z" fill="white"/>
<path d="M80.7098 135.588L81.0399 133.988L80.3698 133.288L79.3698 134.208L78.5999 133.398L82.0999 130.098L83.5298 131.608C84.4098 132.538 84.4798 133.608 83.6898 134.318C83.4652 134.553 83.1724 134.711 82.853 134.77C82.5336 134.829 82.2037 134.787 81.9099 134.648L81.5298 136.488L80.7098 135.588ZM82.8298 132.148L82.1999 131.488L80.9799 132.638L81.6099 133.298C82.0699 133.788 82.5399 133.818 82.9199 133.468C83.2999 133.118 83.2898 132.638 82.8298 132.108V132.148Z" fill="white"/>
<path d="M82.1599 136.428L83.0299 136.128C83.1139 136.691 83.3688 137.215 83.7599 137.628C84.2099 138.108 84.5499 138.148 84.7599 137.948C85.4099 137.328 83.0399 135.728 84.3399 134.498C84.9399 133.938 85.8799 133.948 86.8199 134.938C87.2339 135.354 87.5246 135.877 87.6599 136.448L86.8099 136.778C86.706 136.32 86.4856 135.896 86.1699 135.548C85.7099 135.068 85.3599 135.058 85.1699 135.258C84.5299 135.868 86.8899 137.488 85.6099 138.698C85.0199 139.248 84.0699 139.238 83.1199 138.238C82.626 137.745 82.2916 137.114 82.1599 136.428V136.428Z" fill="white"/>
<path d="M92.9599 141.538L89.4599 144.848L88.7 144.038L90.1299 142.678L88.6299 141.088L87.2 142.448L86.4299 141.638L89.9299 138.338L90.6899 139.138L89.3099 140.448L90.8099 142.038L92.1899 140.728L92.9599 141.538Z" fill="white"/>
<path d="M91.7899 143.808C92.1525 143.423 92.6224 143.156 93.1387 143.041C93.6549 142.926 94.1938 142.969 94.6854 143.164C95.177 143.359 95.5987 143.698 95.8958 144.135C96.1929 144.573 96.3517 145.089 96.3517 145.618C96.3517 146.147 96.1929 146.664 95.8958 147.101C95.5987 147.539 95.177 147.877 94.6854 148.072C94.1938 148.267 93.6549 148.31 93.1387 148.195C92.6224 148.081 92.1525 147.813 91.7899 147.428C91.5449 147.195 91.3498 146.914 91.2165 146.603C91.0832 146.292 91.0144 145.957 91.0144 145.618C91.0144 145.28 91.0832 144.945 91.2165 144.634C91.3498 144.323 91.5449 144.042 91.7899 143.808V143.808ZM94.6299 146.808C94.7846 146.678 94.9105 146.517 94.9996 146.335C95.0888 146.153 95.1392 145.955 95.1476 145.753C95.1561 145.551 95.1224 145.349 95.0488 145.161C94.9752 144.972 94.8632 144.801 94.7199 144.658C94.5154 144.43 94.2476 144.269 93.9507 144.194C93.6539 144.119 93.3415 144.134 93.0534 144.238C92.7653 144.341 92.5145 144.528 92.3332 144.775C92.1519 145.022 92.0482 145.317 92.0354 145.623C92.0226 145.929 92.1013 146.231 92.2613 146.492C92.4214 146.753 92.6556 146.961 92.9341 147.088C93.2125 147.215 93.5226 147.256 93.8246 147.207C94.1267 147.157 94.4071 147.018 94.6299 146.808Z" fill="white"/>
<path d="M97.74 146.598L98.5 147.408L95.66 150.108L97.32 151.858L96.66 152.478L94.24 149.918L97.74 146.598Z" fill="white"/>
<path d="M100.59 149.618L102.09 151.208C102.338 151.431 102.538 151.702 102.676 152.006C102.815 152.309 102.888 152.638 102.893 152.971C102.898 153.305 102.833 153.635 102.703 153.943C102.573 154.25 102.381 154.527 102.139 154.756C101.897 154.985 101.61 155.161 101.296 155.274C100.982 155.386 100.648 155.432 100.315 155.409C99.9825 155.386 99.6583 155.293 99.363 155.138C99.0678 154.983 98.8079 154.769 98.5999 154.508L97.0999 152.918L100.59 149.618ZM99.2198 153.838C99.3373 154.024 99.4942 154.182 99.6794 154.3C99.8646 154.419 100.074 154.495 100.292 154.524C100.509 154.553 100.731 154.533 100.941 154.467C101.15 154.4 101.343 154.289 101.504 154.14C101.666 153.991 101.793 153.808 101.876 153.604C101.959 153.401 101.997 153.182 101.986 152.962C101.975 152.743 101.916 152.528 101.813 152.334C101.71 152.14 101.565 151.971 101.39 151.838L100.69 151.098L98.5298 153.108L99.2198 153.838Z" fill="white"/>
<path d="M104.21 159.108L103.56 159.728L101 157.018L104.5 153.718L106.99 156.358L106.35 156.968L104.61 155.138L103.85 155.848L105.38 157.478L104.75 158.068L103.22 156.448L102.41 157.208L104.21 159.108Z" fill="white"/>
<path d="M106.28 162.628L106.61 161.038L105.94 160.338L104.94 161.258L104.17 160.448L107.67 157.138L109.1 158.658C109.98 159.588 110.05 160.658 109.26 161.368C109.035 161.603 108.742 161.761 108.423 161.82C108.104 161.879 107.774 161.837 107.48 161.698L107.1 163.538L106.28 162.628ZM108.4 159.188L107.77 158.528L106.56 159.688L107.18 160.348C107.65 160.838 108.11 160.868 108.49 160.508C108.87 160.148 108.86 159.688 108.4 159.188Z" fill="white"/>
<path d="M59.1301 136.628L60.9901 136.508C60.9 136.845 60.893 137.198 60.9697 137.538C61.0463 137.877 61.2043 138.193 61.4301 138.458C62.0201 139.078 62.7101 139.058 63.4301 138.358L66.6301 135.358L64.3901 132.988L65.6401 131.808L69.3501 135.728L64.9801 139.848C63.3101 141.428 61.7101 141.358 60.2101 139.778C59.7983 139.373 59.4865 138.877 59.299 138.331C59.1116 137.784 59.0538 137.201 59.1301 136.628V136.628Z" fill="white"/>
<path d="M64.4699 142.238C64.7166 142.005 65.0458 141.879 65.3853 141.888C65.7247 141.898 66.0465 142.042 66.2799 142.288C66.5133 142.535 66.6392 142.864 66.6298 143.204C66.6204 143.543 66.4766 143.865 66.2299 144.098C66.1078 144.214 65.9641 144.304 65.807 144.364C65.65 144.424 65.4826 144.453 65.3146 144.448C65.1465 144.444 64.981 144.406 64.8275 144.337C64.674 144.269 64.5355 144.17 64.4199 144.048C64.3044 143.926 64.214 143.782 64.154 143.625C64.0939 143.468 64.0654 143.301 64.0701 143.133C64.0747 142.965 64.1124 142.799 64.181 142.646C64.2496 142.492 64.3478 142.354 64.4699 142.238V142.238Z" fill="white"/>
<path d="M82.4099 149.488L73.5898 153.648L72.0099 151.978L75.1699 146.188L69.1699 148.968L67.5999 147.308L72.2398 138.728L73.7698 140.338L70.4698 146.338L76.7098 143.448L78.0699 144.888L74.7498 150.938L81.0099 147.998L82.4099 149.488Z" fill="white"/>
<path d="M83.04 150.158C83.1581 150.048 83.2979 149.964 83.4504 149.911C83.603 149.858 83.7649 149.837 83.9259 149.85C84.0869 149.864 84.2433 149.91 84.3852 149.987C84.5271 150.065 84.6514 150.17 84.75 150.298C84.8719 150.4 84.9713 150.527 85.042 150.669C85.1127 150.811 85.153 150.967 85.1605 151.126C85.168 151.285 85.1426 151.443 85.0857 151.592C85.0288 151.74 84.9417 151.875 84.83 151.988C84.7118 152.104 84.5707 152.194 84.4158 152.251C84.2608 152.309 84.0955 152.333 83.9305 152.323C83.7655 152.312 83.6045 152.268 83.458 152.191C83.3115 152.114 83.1827 152.008 83.08 151.878C82.9586 151.772 82.8607 151.641 82.7924 151.494C82.7241 151.348 82.6869 151.189 82.6831 151.027C82.6793 150.866 82.7091 150.705 82.7705 150.555C82.832 150.406 82.9237 150.271 83.04 150.158V150.158ZM81.65 151.808L83.07 153.308L77.89 158.198L76.48 156.698L81.65 151.808Z" fill="white"/>
<path d="M86.35 152.848L87.77 154.348L80.63 161.108L79.21 159.608L86.35 152.848Z" fill="white"/>
<path d="M89.0799 155.738L90.4999 157.238L83.36 163.988L81.9399 162.488L89.0799 155.738Z" fill="white"/>
<path d="M91.2399 158.828C91.3602 158.721 91.5012 158.639 91.6542 158.587C91.8072 158.536 91.9691 158.516 92.13 158.529C92.2909 158.542 92.4474 158.588 92.5901 158.663C92.7328 158.739 92.8586 158.843 92.9599 158.968C93.0802 159.073 93.1778 159.201 93.2468 159.344C93.3159 159.488 93.3548 159.644 93.3614 159.803C93.3679 159.962 93.3419 160.121 93.2849 160.27C93.2279 160.419 93.1412 160.554 93.0299 160.668C92.7796 160.867 92.4642 160.966 92.1451 160.946C91.826 160.925 91.5258 160.787 91.3029 160.558C91.0799 160.329 90.95 160.025 90.9384 159.705C90.9267 159.386 91.0342 159.073 91.2399 158.828V158.828ZM89.8499 160.488L91.2699 161.988L86.0999 166.878L84.6799 165.378L89.8499 160.488Z" fill="white"/>
<path d="M94.69 170.108L91.69 172.898L90.3601 171.498L91.0101 170.888C90.5948 170.95 90.1705 170.899 89.7817 170.741C89.3929 170.583 89.0538 170.323 88.8 169.988C87.65 168.778 87.6401 167.418 88.5401 166.578C89.4401 165.738 90.69 165.758 92.18 167.328L93.31 168.528C93.96 167.918 93.9701 167.178 93.2001 166.368C92.6936 165.841 92.031 165.49 91.31 165.368L91.85 163.848C92.905 164.107 93.8588 164.675 94.59 165.478C96.13 166.968 96.26 168.578 94.69 170.108ZM91.96 169.858L92.49 169.358L91.49 168.358C90.83 167.648 90.3601 167.678 90.0101 167.998C89.6601 168.318 89.69 168.908 90.19 169.438C90.4075 169.68 90.6963 169.846 91.0145 169.913C91.3328 169.979 91.664 169.943 91.96 169.808V169.858Z" fill="white"/>
<path d="M104.25 180.108L101.25 182.908L99.8401 181.408L102.57 178.828C103.4 178.038 103.43 177.298 102.86 176.698C102.29 176.098 101.35 175.958 100.42 176.828L97.83 179.288L96.4101 177.788L99.1401 175.208C99.9801 174.408 100.02 173.688 99.4301 173.068C98.8401 172.448 97.9301 172.338 97.0001 173.218L94.4701 175.698L93.05 174.198L98.2201 169.308L99.58 170.738L98.9801 171.308C99.3992 171.303 99.8144 171.39 100.196 171.562C100.578 171.735 100.917 171.99 101.19 172.308C101.523 172.625 101.768 173.023 101.901 173.463C102.034 173.903 102.051 174.37 101.95 174.818C102.439 174.783 102.929 174.861 103.383 175.044C103.837 175.228 104.243 175.513 104.57 175.878C105.7 177.108 105.82 178.648 104.25 180.108Z" fill="white"/>
<path d="M102.56 183.328L104.11 182.808C104.296 183.66 104.711 184.445 105.31 185.078C105.96 185.768 106.39 185.858 106.68 185.588C107.52 184.788 103.68 182.478 105.77 180.518C106.77 179.598 108.28 179.828 109.71 181.338C110.375 182.018 110.866 182.848 111.14 183.758L109.6 184.268C109.439 183.57 109.094 182.928 108.6 182.408C107.97 181.738 107.48 181.648 107.21 181.898C106.33 182.738 110.14 185.058 108.1 186.978C107.1 187.888 105.61 187.648 104.1 186.098C103.35 185.328 102.818 184.372 102.56 183.328V183.328Z" fill="white"/>
<path d="M162.31 241.158C164.53 239.058 166.95 239.098 168.52 240.748C170.09 242.398 169.99 244.828 167.76 246.928C165.53 249.028 163.13 248.998 161.55 247.338C159.97 245.678 160.09 243.258 162.31 241.158ZM166.31 245.358C167.84 243.918 167.97 242.778 167.23 241.998C166.49 241.218 165.36 241.288 163.83 242.738C162.3 244.188 162.17 245.318 162.9 246.088C163.63 246.858 164.75 246.808 166.28 245.358H166.31Z" fill="white"/>
<path d="M172.47 254.418C171.1 255.718 169.17 255.418 167.82 253.988C166.07 252.128 166.14 249.868 168.31 247.818C170.64 245.618 173.31 245.818 175.18 247.818C175.822 248.458 176.278 249.26 176.5 250.138L174.81 250.638C174.685 250.039 174.385 249.489 173.95 249.058C173.723 248.785 173.439 248.564 173.118 248.411C172.797 248.258 172.447 248.176 172.091 248.172C171.736 248.167 171.384 248.239 171.059 248.384C170.734 248.528 170.444 248.741 170.21 249.008C171.05 249.075 171.83 249.47 172.38 250.108C172.675 250.382 172.911 250.712 173.076 251.079C173.241 251.446 173.33 251.842 173.338 252.244C173.347 252.646 173.274 253.046 173.125 253.419C172.976 253.793 172.753 254.133 172.47 254.418V254.418ZM170.97 252.978C171.114 252.841 171.227 252.675 171.302 252.491C171.377 252.307 171.412 252.109 171.404 251.91C171.397 251.712 171.347 251.517 171.258 251.339C171.17 251.161 171.044 251.004 170.89 250.878C170.769 250.72 170.617 250.589 170.444 250.492C170.27 250.395 170.078 250.334 169.881 250.315C169.683 250.295 169.483 250.316 169.293 250.377C169.104 250.438 168.929 250.537 168.78 250.668C168.637 250.811 168.527 250.982 168.455 251.17C168.383 251.358 168.352 251.559 168.363 251.76C168.374 251.961 168.428 252.158 168.521 252.337C168.613 252.516 168.742 252.673 168.9 252.798C169.018 252.958 169.169 253.09 169.342 253.187C169.515 253.283 169.707 253.342 169.904 253.359C170.102 253.376 170.301 253.351 170.488 253.285C170.675 253.22 170.846 253.115 170.99 252.978H170.97Z" fill="white"/>
<path d="M181.47 251.908L182.74 253.238L170.67 258.638L169.41 257.298L181.47 251.908Z" fill="white"/>
<path d="M180.57 264.678L179.3 265.878L174.47 260.788L175.47 259.838L180.38 260.118C180.713 260.183 181.057 260.175 181.387 260.094C181.717 260.013 182.025 259.861 182.29 259.648C182.82 259.148 182.78 258.488 182.1 257.778C181.856 257.496 181.545 257.278 181.196 257.145C180.847 257.013 180.47 256.969 180.1 257.018L179.76 255.188C180.464 255.107 181.177 255.2 181.837 255.46C182.496 255.72 183.081 256.138 183.54 256.678C184.96 258.188 185.13 259.908 183.91 261.068C183.26 261.688 182.49 262.068 180.72 261.948L177.8 261.778L180.57 264.678Z" fill="white"/>
<path d="M187.06 271.248L186.06 270.158L184.65 271.488L183.21 269.968L184.63 268.638L181.2 265.008L182.25 264.008L189.52 263.148L191.07 264.778L184.23 265.658L185.94 267.468L187.2 266.278L188.59 267.748L187.33 268.938L188.33 270.038L187.06 271.248Z" fill="white"/>
<path d="M218.65 187.958C222.45 182.118 220.96 174.358 215.86 169.618C214.309 168.155 212.511 166.977 210.55 166.138C205.68 164.138 199.23 165.588 196.67 170.208C194.58 173.978 195.42 178.688 196.89 182.738C198.42 186.988 200.89 191.328 205.1 192.978C209.31 194.628 214.02 193.118 217.04 189.978C217.644 189.362 218.184 188.685 218.65 187.958Z" fill="#BA84D1"/>
<path d="M311.4 190.368H55.67C46.0381 190.368 38.23 198.176 38.23 207.808V383.838C38.23 393.47 46.0381 401.278 55.67 401.278H311.4C321.032 401.278 328.84 393.47 328.84 383.838V207.808C328.84 198.176 321.032 190.368 311.4 190.368Z" fill="#BA84D1"/>
<path d="M328.84 207.808C328.84 207.808 328.84 207.598 328.84 207.178C328.822 206.552 328.761 205.927 328.66 205.308C328.309 202.874 327.436 200.544 326.1 198.478C325.121 196.959 323.921 195.594 322.54 194.428C320.853 193.045 318.923 191.987 316.85 191.308C316.29 191.118 315.7 191.008 315.11 190.838C314.52 190.668 313.89 190.648 313.26 190.548L311.33 190.458H300.55L196.28 190.538H124.28H84.1601H57.8501C56.0745 190.467 54.2963 190.568 52.5401 190.838C49.0036 191.488 45.7627 193.237 43.2801 195.838C42.0263 197.134 40.9897 198.623 40.2101 200.248C39.4062 201.873 38.879 203.62 38.6501 205.418C38.4775 207.246 38.4207 209.083 38.4801 210.918V239.108C38.4801 254.348 38.4801 269.892 38.4801 285.738V383.738C38.4862 387.921 40.0066 391.96 42.7601 395.108C45.476 398.239 49.2421 400.269 53.3501 400.818C55.3983 400.996 57.4552 401.052 59.5101 400.988H217.67H300.32H309.94C311.51 401.037 313.08 400.933 314.63 400.678C316.153 400.385 317.63 399.887 319.02 399.198C319.709 398.86 320.377 398.479 321.02 398.058C321.646 397.618 322.247 397.144 322.82 396.638C324.523 395.141 325.91 393.319 326.901 391.279C327.891 389.239 328.466 387.022 328.59 384.758C328.69 372.758 328.59 361.218 328.65 350.218C328.65 306.218 328.72 270.578 328.74 245.958C328.74 233.648 328.74 224.098 328.79 217.608C328.79 214.378 328.79 211.908 328.79 210.238C328.79 208.568 328.79 207.728 328.79 207.728C328.79 207.728 328.79 208.578 328.79 210.238C328.79 211.898 328.79 214.378 328.79 217.608C328.79 224.098 328.79 233.608 328.84 245.958C328.84 270.578 328.84 306.198 328.92 350.218C328.92 361.218 328.99 372.748 328.92 384.778C328.752 387.861 327.772 390.845 326.08 393.428C325.236 394.726 324.228 395.91 323.08 396.948C322.492 397.467 321.875 397.952 321.23 398.398C320.587 398.827 319.919 399.218 319.23 399.568C317.811 400.279 316.3 400.791 314.74 401.088C313.165 401.354 311.567 401.462 309.97 401.408H300.35H217.7H126.36H59.4701C57.3917 401.473 55.3113 401.413 53.2401 401.228C49.0076 400.673 45.1258 398.584 42.3301 395.358C39.5071 392.124 37.9449 387.981 37.9301 383.688C37.9301 350.098 37.9301 317.318 37.9301 285.688V239.108C37.9301 231.495 37.9301 223.962 37.9301 216.508V210.938C37.8703 209.08 37.9304 207.219 38.1101 205.368C38.3465 203.521 38.8907 201.726 39.7201 200.058C40.5193 198.383 41.5866 196.85 42.8801 195.518C44.1606 194.201 45.6301 193.082 47.2401 192.198C48.8584 191.339 50.5985 190.732 52.4001 190.398L53.7501 190.188L55.1001 190.118C56.0101 190.068 56.9001 190.118 57.7901 190.118H124.22H196.22L300.49 190.208H311.22L313.17 190.308C313.8 190.418 314.43 190.488 315.03 190.618C315.63 190.748 316.22 190.898 316.78 191.098C318.87 191.786 320.813 192.858 322.51 194.258C323.898 195.435 325.102 196.814 326.08 198.348C327.41 200.431 328.27 202.779 328.6 205.228C328.702 205.85 328.756 206.478 328.76 207.108C328.84 207.598 328.84 207.808 328.84 207.808Z" fill="#263238"/>
<path d="M318.66 203.368C320.645 203.022 322.675 203.022 324.66 203.368C322.675 203.715 320.645 203.715 318.66 203.368Z" fill="#263238"/>
<path d="M294.18 203.368C298.253 203.022 302.348 203.022 306.42 203.368C302.348 203.715 298.253 203.715 294.18 203.368V203.368Z" fill="#263238"/>
<path d="M269.71 203.368C273.779 203.021 277.871 203.021 281.94 203.368C277.871 203.715 273.779 203.715 269.71 203.368Z" fill="#263238"/>
<path d="M245.23 203.368C249.303 203.022 253.397 203.022 257.47 203.368C253.397 203.715 249.303 203.715 245.23 203.368V203.368Z" fill="#263238"/>
<path d="M220.76 203.368C224.829 203.021 228.921 203.021 232.99 203.368C228.921 203.715 224.829 203.715 220.76 203.368Z" fill="#263238"/>
<path d="M196.28 203.368C200.353 203.022 204.447 203.022 208.52 203.368C204.447 203.715 200.353 203.715 196.28 203.368V203.368Z" fill="#263238"/>
<path d="M171.81 203.368C175.879 203.021 179.971 203.021 184.04 203.368C179.971 203.715 175.879 203.715 171.81 203.368Z" fill="#263238"/>
<path d="M147.33 203.368C151.403 203.022 155.497 203.022 159.57 203.368C155.497 203.715 151.403 203.715 147.33 203.368V203.368Z" fill="#263238"/>
<path d="M122.85 203.368C126.923 203.022 131.017 203.022 135.09 203.368C131.017 203.715 126.923 203.715 122.85 203.368V203.368Z" fill="#263238"/>
<path d="M98.3801 203.368C100.399 203.113 102.436 203.026 104.47 203.108C106.514 203.024 108.561 203.111 110.59 203.368C108.561 203.631 106.514 203.718 104.47 203.628C102.436 203.717 100.399 203.63 98.3801 203.368V203.368Z" fill="#263238"/>
<path d="M73.9001 203.368C75.9293 203.111 77.9765 203.024 80.0201 203.108C82.0638 203.024 84.111 203.111 86.1402 203.368C84.1115 203.631 82.0638 203.718 80.0201 203.628C77.9765 203.718 75.9288 203.631 73.9001 203.368V203.368Z" fill="#263238"/>
<path d="M55.6701 209.368C55.4066 207.38 55.3196 205.372 55.4101 203.368L55.6701 203.108H58.0001L59.9101 203.168C60.5023 203.147 61.0946 203.207 61.6701 203.348C61.0957 203.496 60.5029 203.56 59.9101 203.538L58.0001 203.588H56.8801H55.6701L55.9301 203.328C56.0167 205.345 55.9297 207.366 55.6701 209.368V209.368Z" fill="#263238"/>
<path d="M55.6701 231.798C55.4071 229.941 55.32 228.062 55.4101 226.188C55.3203 224.318 55.4074 222.443 55.6701 220.588C55.9269 222.443 56.0139 224.318 55.9301 226.188C56.0141 228.062 55.9271 229.94 55.6701 231.798Z" fill="#263238"/>
<path d="M55.6701 254.228C55.3235 250.5 55.3235 246.747 55.6701 243.018C56.0168 246.747 56.0168 250.5 55.6701 254.228V254.228Z" fill="#263238"/>
<path d="M55.6702 276.658C55.3235 272.926 55.3235 269.17 55.6702 265.438C56.0169 269.17 56.0169 272.926 55.6702 276.658V276.658Z" fill="#263238"/>
<path d="M55.6702 299.108C55.3235 295.376 55.3235 291.62 55.6702 287.888C56.0169 291.62 56.0169 295.376 55.6702 299.108Z" fill="#263238"/>
<path d="M55.6701 321.508C55.3235 317.78 55.3235 314.027 55.6701 310.298C56.0168 314.027 56.0168 317.78 55.6701 321.508V321.508Z" fill="#263238"/>
<path d="M55.6701 343.938C55.3235 340.21 55.3235 336.457 55.6701 332.728C56.0168 336.457 56.0168 340.21 55.6701 343.938V343.938Z" fill="#263238"/>
<path d="M55.6701 366.368C55.3235 362.64 55.3235 358.887 55.6701 355.158C56.0168 358.887 56.0168 362.64 55.6701 366.368V366.368Z" fill="#263238"/>
<path d="M61.67 383.588C59.681 383.845 57.6737 383.932 55.67 383.848C55.15 383.328 55.52 383.698 55.41 383.578V382.388C55.41 381.998 55.41 381.628 55.41 381.258C55.41 380.598 55.41 379.968 55.41 379.348C55.3812 378.759 55.4453 378.168 55.6 377.598C55.7415 378.17 55.8021 378.759 55.78 379.348C55.78 379.968 55.78 380.598 55.84 381.258C55.84 381.628 55.84 381.998 55.84 382.388C55.84 382.578 55.84 382.778 55.84 382.978V383.578C55.72 383.468 56.1 383.848 55.58 383.328C57.6137 383.233 59.6518 383.32 61.67 383.588V383.588Z" fill="#263238"/>
<path d="M85.79 383.588C83.8009 383.844 81.7938 383.931 79.79 383.848C77.7863 383.931 75.7792 383.844 73.79 383.588C75.7786 383.327 77.7863 383.24 79.79 383.328C81.7938 383.24 83.8014 383.327 85.79 383.588Z" fill="#263238"/>
<path d="M109.91 383.588C107.921 383.844 105.914 383.931 103.91 383.848C101.906 383.931 99.8993 383.844 97.9102 383.588C99.8988 383.327 101.906 383.24 103.91 383.328C105.914 383.24 107.922 383.327 109.91 383.588Z" fill="#263238"/>
<path d="M134.03 383.588C130.017 383.935 125.982 383.935 121.97 383.588C125.982 383.242 130.017 383.242 134.03 383.588V383.588Z" fill="#263238"/>
<path d="M158.15 383.588C154.138 383.935 150.103 383.935 146.09 383.588C150.103 383.242 154.138 383.242 158.15 383.588V383.588Z" fill="#263238"/>
<path d="M182.27 383.588C178.257 383.935 174.222 383.935 170.21 383.588C174.222 383.242 178.257 383.242 182.27 383.588Z" fill="#263238"/>
<path d="M206.39 383.588C202.378 383.935 198.343 383.935 194.33 383.588C198.343 383.242 202.378 383.242 206.39 383.588Z" fill="#263238"/>
<path d="M230.47 383.588C226.458 383.935 222.423 383.935 218.41 383.588C222.423 383.242 226.458 383.242 230.47 383.588V383.588Z" fill="#263238"/>
<path d="M254.63 383.588C250.618 383.935 246.583 383.935 242.57 383.588C246.583 383.242 250.618 383.242 254.63 383.588V383.588Z" fill="#263238"/>
<path d="M278.75 383.588C274.738 383.935 270.703 383.935 266.69 383.588C270.703 383.242 274.738 383.242 278.75 383.588V383.588Z" fill="#263238"/>
<path d="M302.88 383.588C298.868 383.935 294.833 383.935 290.82 383.588C294.833 383.242 298.868 383.242 302.88 383.588V383.588Z" fill="#263238"/>
<path d="M320.94 383.588C318.955 383.935 316.925 383.935 314.94 383.588C316.925 383.242 318.955 383.242 320.94 383.588V383.588Z" fill="#263238"/>
<g opacity="0.3">
<path opacity="0.3" d="M138.47 307.348C138.47 307.348 138.53 317.348 135.47 323.348C132.41 329.348 131.47 331.728 125.07 334.048C118.67 336.368 38.1501 345.218 38.1501 345.218V318.048L138.47 307.348Z" fill="black"/>
</g>
<g opacity="0.3">
<path opacity="0.3" d="M137.06 269.648C137.06 269.648 137.98 259.438 112.37 255.648C83.08 251.318 38.23 245.998 38.23 245.998V265.308L137.06 269.648Z" fill="black"/>
</g>
<path d="M124.2 260.388H40.8901C32.9869 260.388 26.5801 266.795 26.5801 274.698V311.998C26.5801 319.902 32.9869 326.308 40.8901 326.308H124.2C132.103 326.308 138.51 319.902 138.51 311.998V274.698C138.51 266.795 132.103 260.388 124.2 260.388Z" fill="#BA84D1"/>
<path d="M40.8901 326.298C40.8901 326.298 40.6001 326.298 40.0401 326.298C39.201 326.266 38.3671 326.152 37.5501 325.958C36.2136 325.657 34.9295 325.158 33.7401 324.478C32.1108 323.558 30.68 322.324 29.5301 320.848C28.0734 318.998 27.0946 316.817 26.6801 314.498C26.4717 313.176 26.3913 311.836 26.4401 310.498C26.4401 309.118 26.4401 307.678 26.4401 306.188C26.4401 300.238 26.4401 293.468 26.4401 285.978C26.4401 282.228 26.4401 278.318 26.4401 274.218C26.5073 272.057 27.0578 269.938 28.051 268.017C29.0443 266.096 30.4552 264.422 32.1801 263.118C33.9931 261.724 36.1171 260.791 38.3701 260.398C39.5132 260.209 40.6717 260.128 41.8301 260.158H59.8301H124.27C126.441 260.154 128.585 260.636 130.544 261.571C132.503 262.506 134.228 263.868 135.59 265.558C137.394 267.77 138.501 270.467 138.77 273.308C138.88 274.718 138.84 276.088 138.85 277.458C138.85 280.198 138.85 282.915 138.85 285.608V301.478C138.85 304.068 138.85 306.638 138.85 309.168C138.85 310.448 138.9 311.688 138.85 312.968C138.814 313.602 138.737 314.234 138.62 314.858C138.484 315.473 138.317 316.08 138.12 316.678C137.306 319.019 135.908 321.114 134.058 322.764C132.209 324.414 129.969 325.565 127.55 326.108C126.972 326.241 126.388 326.345 125.8 326.418C125.21 326.468 124.62 326.488 124.03 326.508H113.88H89.3801L53.9001 326.418L44.2501 326.368H41.7501H40.8901C40.8901 326.368 41.1801 326.368 41.7501 326.368H44.2501L53.9001 326.318L89.3801 326.238H113.88H120.59C122.87 326.178 125.2 326.428 127.44 325.838C129.759 325.284 131.9 324.152 133.662 322.547C135.425 320.941 136.752 318.915 137.52 316.658C138.38 314.348 138.26 311.838 138.26 309.298V301.608C138.26 296.428 138.26 291.128 138.26 285.738V277.588C138.26 276.218 138.26 274.828 138.19 273.488C137.921 270.748 136.853 268.147 135.12 266.008C134.248 264.95 133.239 264.012 132.12 263.218C130.958 262.453 129.696 261.851 128.37 261.428C127.027 261.037 125.638 260.829 124.24 260.808H59.8001H41.8001C40.6654 260.779 39.5304 260.855 38.4101 261.038C36.2284 261.416 34.1702 262.315 32.4101 263.658C30.7324 264.922 29.3588 266.545 28.3898 268.409C27.4209 270.272 26.8811 272.329 26.8101 274.428C26.7601 278.498 26.8101 282.428 26.8101 286.178C26.8101 293.668 26.8101 300.438 26.8101 306.388C26.8101 307.878 26.8101 309.318 26.8101 310.698C26.7597 312.019 26.8333 313.341 27.0301 314.648C27.51 317.374 28.7708 319.903 30.6594 321.926C32.5481 323.95 34.9835 325.382 37.6701 326.048C38.48 326.251 39.3068 326.378 40.1401 326.428L40.8901 326.298Z" fill="#263238"/>
<path d="M104.79 319.788C118.023 319.788 128.75 309.061 128.75 295.828C128.75 282.596 118.023 271.868 104.79 271.868C91.5574 271.868 80.8301 282.596 80.8301 295.828C80.8301 309.061 91.5574 319.788 104.79 319.788Z" fill="#263238"/>
<path d="M110.93 315.398C112.957 314.646 114.879 313.638 116.65 312.398C118.534 311.017 120.171 309.326 121.49 307.398C123.133 305.059 124.221 302.376 124.669 299.553C125.118 296.73 124.917 293.842 124.08 291.108C123.427 288.865 122.391 286.75 121.02 284.858C119.728 283.129 118.215 281.576 116.52 280.238C116.52 280.238 116.67 280.298 116.91 280.458C117.28 280.689 117.637 280.939 117.98 281.208C119.239 282.2 120.362 283.353 121.32 284.638C122.758 286.542 123.848 288.685 124.54 290.968C125.43 293.767 125.652 296.734 125.19 299.634C124.728 302.533 123.595 305.285 121.88 307.668C120.52 309.615 118.827 311.308 116.88 312.668C115.573 313.593 114.147 314.336 112.64 314.878C112.235 315.034 111.821 315.164 111.4 315.268C111.253 315.342 111.094 315.386 110.93 315.398V315.398Z" fill="#FAFAFA"/>
<path d="M479.89 142.248C480.701 150.974 478.904 159.744 474.726 167.448C470.549 175.151 464.179 181.442 456.424 185.522C448.668 189.603 439.876 191.29 431.162 190.37C422.447 189.45 414.201 185.964 407.469 180.354C400.737 174.743 395.821 167.261 393.344 158.855C390.868 150.449 390.942 141.497 393.557 133.133C396.172 124.769 401.211 117.37 408.035 111.872C414.859 106.373 423.161 103.024 431.89 102.248C443.557 101.198 455.165 104.82 464.164 112.319C473.163 119.819 478.819 130.583 479.89 142.248V142.248Z" fill="#BA84D1"/>
<g opacity="0.3">
<path opacity="0.3" d="M469.29 142.108C469.09 142.108 468.82 140.678 468.05 138.108C466.972 134.564 465.353 131.208 463.25 128.158C461.799 126.076 460.122 124.161 458.25 122.448C456.109 120.482 453.723 118.801 451.15 117.448C449.765 116.718 448.328 116.093 446.85 115.578C445.314 115.038 443.74 114.613 442.14 114.308C440.49 113.992 438.819 113.801 437.14 113.738C435.404 113.679 433.666 113.749 431.94 113.948C430.219 114.162 428.515 114.496 426.84 114.948C425.218 115.415 423.633 116.003 422.1 116.708C419.194 118.043 416.499 119.795 414.1 121.908C411.922 123.823 409.999 126.011 408.38 128.418C406.975 130.53 405.808 132.79 404.9 135.158C403.582 138.618 402.813 142.262 402.62 145.958C402.47 148.598 402.56 150.078 402.35 150.108C402.14 150.138 401.78 148.678 401.61 145.958C401.42 142.091 401.949 138.222 403.17 134.548C404.988 129.022 408.205 124.061 412.51 120.148C415.048 117.823 417.92 115.892 421.03 114.418C422.676 113.64 424.381 112.995 426.13 112.488C427.932 111.973 429.771 111.595 431.63 111.358C433.492 111.146 435.367 111.073 437.24 111.138C439.061 111.22 440.873 111.44 442.66 111.798C446.031 112.485 449.28 113.672 452.3 115.318C457.412 118.097 461.721 122.147 464.81 127.078C466.877 130.354 468.314 133.986 469.05 137.788C469.47 140.608 469.47 142.108 469.29 142.108Z" fill="black"/>
</g>
<g opacity="0.3">
<path opacity="0.3" d="M441.39 165.888L442 171.728L436.78 172.278L436.19 166.588C430.99 166.808 425.87 165.708 422.77 163.768L424.97 157.098C428.181 158.877 431.799 159.79 435.47 159.748L434.56 151.038C428.63 150.228 421.96 148.978 421.18 141.508C420.6 135.978 424.13 130.818 432.27 129.018L431.67 123.228L436.89 122.688L437.48 128.368C441.233 128.192 444.974 128.905 448.4 130.448L446.47 137.108C443.868 135.941 441.06 135.302 438.21 135.228L439.13 144.098C445.06 144.848 451.63 146.098 452.39 153.478C452.96 158.938 449.47 164.048 441.39 165.888ZM433.78 143.368L433 135.958C430.31 136.868 429.37 138.498 429.55 140.218C429.73 141.938 431.4 142.878 433.78 143.368ZM444.06 155.008C443.87 153.178 442.25 152.348 439.93 151.798L440.68 158.998C443.23 158.158 444.23 156.678 444.06 155.008V155.008Z" fill="black"/>
</g>
<path d="M402.21 149.278C402.243 149.365 402.267 149.456 402.28 149.548C402.28 149.758 402.36 150.018 402.42 150.338C402.48 150.658 402.54 151.128 402.62 151.618C402.701 152.205 402.818 152.786 402.97 153.358C404.407 159.591 407.567 165.295 412.09 169.818L413.67 171.258C413.94 171.488 414.19 171.748 414.48 171.978L415.37 172.638C415.97 173.078 416.56 173.568 417.2 173.978L419.2 175.188C422.063 176.806 425.145 178.002 428.35 178.738C435.287 180.325 442.549 179.656 449.08 176.828C452.097 175.52 454.91 173.782 457.43 171.668L459.17 170.118C459.73 169.598 460.17 169.008 460.72 168.468C460.97 168.198 461.23 167.928 461.47 167.658C461.71 167.388 461.92 167.078 462.15 166.798C462.58 166.218 463.01 165.658 463.44 165.098C464.897 162.952 466.115 160.651 467.07 158.238C468.452 154.726 469.239 151.009 469.4 147.238C469.439 146.649 469.439 146.058 469.4 145.468C469.4 144.968 469.4 144.528 469.4 144.168C469.4 143.808 469.4 143.578 469.4 143.368C469.392 143.275 469.392 143.182 469.4 143.088C469.411 143.178 469.411 143.269 469.4 143.358C469.4 143.568 469.4 143.838 469.46 144.158C469.52 144.478 469.46 144.958 469.53 145.468C469.576 146.061 469.576 146.656 469.53 147.248C469.447 151.05 468.706 154.809 467.34 158.358C466.407 160.823 465.192 163.172 463.72 165.358L462.47 167.108C462.24 167.398 462.03 167.708 461.79 167.988L461.03 168.818C460.52 169.368 460.03 169.958 459.46 170.488L457.71 172.078C455.159 174.231 452.309 176.003 449.25 177.338C442.637 180.212 435.277 180.892 428.25 179.278C424.996 178.524 421.869 177.298 418.97 175.638L416.97 174.408C416.32 173.988 415.73 173.488 415.12 173.048L414.23 172.368C413.94 172.138 413.68 171.868 413.4 171.628L411.78 170.108C409.943 168.229 408.322 166.15 406.95 163.908C404.96 160.666 403.546 157.103 402.77 153.378C402.627 152.803 402.527 152.218 402.47 151.628C402.41 151.128 402.36 150.688 402.31 150.328C402.26 149.968 402.25 149.738 402.22 149.528C402.209 149.446 402.206 149.362 402.21 149.278V149.278Z" fill="#263238"/>
<path d="M417.47 272.758C415.269 277.348 411.755 281.181 407.374 283.773C402.993 286.365 397.942 287.598 392.859 287.317C387.777 287.036 382.892 285.253 378.823 282.194C374.755 279.136 371.685 274.938 370.003 270.134C368.322 265.33 368.103 260.134 369.376 255.206C370.648 250.277 373.355 245.837 377.152 242.448C380.95 239.058 385.668 236.872 390.709 236.165C395.75 235.459 400.887 236.264 405.47 238.478C408.509 239.941 411.23 241.988 413.478 244.503C415.726 247.017 417.456 249.95 418.57 253.133C419.685 256.316 420.161 259.688 419.972 263.055C419.783 266.422 418.933 269.72 417.47 272.758V272.758Z" fill="#BA84D1"/>
<g opacity="0.3">
<path opacity="0.3" d="M412.26 269.548C412.363 268.747 412.551 267.96 412.82 267.198C413.336 265.11 413.528 262.955 413.39 260.808C413.282 259.338 413.017 257.883 412.6 256.468C412.108 254.856 411.413 253.314 410.53 251.878C410.053 251.105 409.522 250.366 408.94 249.668C407.042 247.4 404.647 245.6 401.94 244.408C401.016 244.004 400.064 243.67 399.09 243.408C398.141 243.159 397.175 242.982 396.2 242.878C395.261 242.771 394.314 242.737 393.37 242.778C392.46 242.814 391.554 242.918 390.66 243.088C389.003 243.39 387.392 243.907 385.87 244.628C384.54 245.264 383.283 246.042 382.12 246.948C380.435 248.288 378.968 249.88 377.77 251.668C377.381 252.379 376.922 253.049 376.4 253.668C376.521 252.851 376.818 252.07 377.27 251.378C378.326 249.373 379.751 247.585 381.47 246.108C382.65 245.082 383.949 244.202 385.34 243.488C386.942 242.667 388.647 242.065 390.41 241.698C392.382 241.29 394.405 241.182 396.41 241.378C397.463 241.483 398.506 241.67 399.53 241.938C400.582 242.222 401.611 242.583 402.61 243.018C403.605 243.464 404.564 243.986 405.48 244.578C406.363 245.158 407.199 245.807 407.98 246.518C408.741 247.202 409.443 247.948 410.08 248.748C410.695 249.504 411.25 250.306 411.74 251.148C412.66 252.713 413.363 254.395 413.83 256.148C414.228 257.657 414.446 259.208 414.48 260.768C414.537 263.019 414.174 265.26 413.41 267.378C413.18 268.173 412.789 268.912 412.26 269.548Z" fill="black"/>
</g>
<g opacity="0.3">
<path opacity="0.3" d="M391.26 273.108L389.83 276.198L387.06 274.918L388.46 271.918C386.04 270.697 384.01 268.823 382.6 266.508L385.69 263.838C386.762 265.685 388.296 267.222 390.14 268.298L392.29 263.678C389.56 261.508 386.61 258.888 388.45 254.938C389.81 252.008 393.1 250.478 397.7 252.008L399.13 248.938L401.89 250.228L400.49 253.228C402.417 254.256 404.072 255.726 405.32 257.518L402.32 260.278C401.37 258.921 400.16 257.765 398.76 256.878L396.58 261.578C399.31 263.718 402.21 266.308 400.4 270.208C399.11 273.108 395.85 274.578 391.26 273.108ZM394.17 259.598L396 255.678C394.38 255.328 393.42 255.858 393 256.768C392.58 257.678 393.14 258.628 394.17 259.578V259.598ZM395.84 268.478C396.28 267.478 395.73 266.608 394.73 265.638L392.96 269.458C394.47 269.778 395.47 269.338 395.84 268.458V268.478Z" fill="black"/>
</g>
<path d="M376.66 253.108C376.66 253.108 376.36 253.918 375.87 255.388C375.208 257.469 374.897 259.645 374.95 261.828C374.989 263.33 375.194 264.822 375.56 266.278C375.995 267.961 376.637 269.583 377.47 271.108C378.418 272.757 379.597 274.262 380.97 275.578C383.938 278.426 387.741 280.249 391.82 280.778C393.704 281.023 395.614 280.996 397.49 280.698C400.687 280.187 403.705 278.884 406.27 276.908C408.003 275.579 409.506 273.974 410.72 272.158C411.55 270.858 411.94 270.078 411.99 270.108C411.93 270.308 411.846 270.499 411.74 270.678C411.486 271.22 411.202 271.748 410.89 272.258C409.724 274.147 408.239 275.819 406.5 277.198C403.917 279.278 400.841 280.656 397.57 281.198C395.646 281.521 393.685 281.559 391.75 281.308C389.673 281.018 387.651 280.422 385.75 279.538C383.872 278.614 382.143 277.414 380.62 275.978C379.217 274.626 378.017 273.076 377.06 271.378C376.189 269.836 375.517 268.19 375.06 266.478C374.707 264.987 374.522 263.461 374.51 261.928C374.485 259.711 374.855 257.507 375.6 255.418C375.795 254.853 376.029 254.302 376.3 253.768C376.393 253.535 376.514 253.313 376.66 253.108Z" fill="#263238"/>
<path d="M520.94 401.308C520.94 401.458 371.63 401.578 187.49 401.578C3.34999 401.578 -146 401.458 -146 401.308C-146 401.158 3.27998 401.048 187.49 401.048C371.7 401.048 520.94 401.168 520.94 401.308Z" fill="#263238"/>
<path d="M365.47 213.448C365.47 213.448 365.4 206.798 365.11 206.738L351.47 209.788C351.32 210.648 349.6 221.568 349.89 222.628L365.28 226.898C365.28 226.898 365.47 213.838 365.47 213.448Z" fill="#FFBE9D"/>
<path d="M365.47 225.888C365.513 225.794 365.534 225.692 365.53 225.588C365.69 224.098 365.6 217.588 364.8 217.318C364 217.048 361.69 217.508 361.54 218.368C361.39 219.228 361.91 226.548 361.91 226.548C361.91 226.548 362.06 227.698 364 227.978C365.22 228.108 365.47 225.888 365.47 225.888Z" fill="#FFBE9D"/>
<path d="M361.59 228.228C361.633 228.134 361.654 228.032 361.65 227.928C361.81 226.438 361.72 219.928 360.92 219.648C360.12 219.368 357.81 219.848 357.66 220.708C357.51 221.568 358.03 228.888 358.03 228.888C358.03 228.888 358.18 230.038 360.12 230.318C361.32 230.488 361.59 228.228 361.59 228.228Z" fill="#FFBE9D"/>
<path d="M357.77 229.388C357.77 229.388 357.82 229.268 357.84 229.088C358 227.598 357.9 221.088 357.11 220.818C356.32 220.548 353.99 221.018 353.84 221.878C353.69 222.738 354.21 230.048 354.21 230.048C354.21 230.048 354.36 231.208 356.3 231.488C357.47 231.658 357.77 229.388 357.77 229.388Z" fill="#FFBE9D"/>
<path d="M353.97 230.488C353.97 230.488 353.97 230.368 354.04 230.188C354.2 228.698 354.1 222.188 353.31 221.918C352.52 221.648 350.2 222.118 350.04 222.968C349.88 223.818 350.41 231.148 350.41 231.148C350.41 231.148 350.57 232.298 352.51 232.578C353.71 232.758 353.97 230.488 353.97 230.488Z" fill="#FFBE9D"/>
<path d="M361.53 220.268C361.762 221.308 361.863 222.373 361.83 223.438C361.934 224.482 361.9 225.534 361.73 226.568C361.498 225.528 361.397 224.463 361.43 223.398C361.326 222.355 361.36 221.303 361.53 220.268Z" fill="#EB996E"/>
<path d="M357.69 220.248C357.953 221.733 358.077 223.24 358.06 224.748C358.186 226.253 358.169 227.767 358.01 229.268C357.759 227.782 357.639 226.276 357.65 224.768C357.529 223.263 357.543 221.751 357.69 220.248Z" fill="#EB996E"/>
<g opacity="0.78">
<path opacity="0.78" d="M353.8 220.568C354.051 222.055 354.171 223.561 354.16 225.068C354.293 226.572 354.293 228.085 354.16 229.588C353.902 228.102 353.779 226.596 353.79 225.088C353.662 223.584 353.666 222.072 353.8 220.568V220.568Z" fill="#EB996E"/>
</g>
<path d="M351.35 210.108C351.35 210.108 345.94 222.408 346.73 223.178C347.768 223.938 348.885 224.585 350.06 225.108L351.35 210.108Z" fill="#FFBE9D"/>
<path d="M321.47 45.1883L317.47 91.1883L294.47 89.3483C294.32 86.6583 294.52 76.2483 294.52 76.2483C294.52 76.2483 284.93 74.7583 284.81 65.1783C284.76 60.5283 285.42 50.9083 286.12 42.2383C286.493 37.6183 288.661 33.328 292.157 30.2855C295.654 27.2429 300.202 25.6898 304.83 25.9583V25.9583C307.196 26.0966 309.511 26.7078 311.638 27.7558C313.764 28.8038 315.659 30.2673 317.21 32.06C318.761 33.8526 319.937 35.938 320.669 38.1929C321.401 40.4477 321.673 42.8264 321.47 45.1883V45.1883Z" fill="#FFBE9D"/>
<path d="M294.47 76.1082C298.895 76.1895 303.243 74.95 306.96 72.5482C306.96 72.5482 303.96 79.4482 294.45 78.5482L294.47 76.1082Z" fill="#EB996E"/>
<path d="M288.62 48.9583C288.62 49.3142 288.757 49.6564 289.003 49.9135C289.249 50.1707 289.584 50.3228 289.94 50.3383C290.114 50.3533 290.289 50.3331 290.455 50.2789C290.621 50.2247 290.774 50.1376 290.906 50.0228C291.038 49.908 291.145 49.7678 291.221 49.6107C291.297 49.4536 291.341 49.2827 291.35 49.1083C291.358 48.751 291.225 48.4048 290.98 48.1446C290.735 47.8845 290.397 47.7314 290.04 47.7183C289.865 47.7047 289.689 47.7262 289.522 47.7814C289.356 47.8367 289.202 47.9246 289.069 48.0401C288.937 48.1556 288.829 48.2962 288.752 48.4539C288.675 48.6116 288.63 48.7831 288.62 48.9583V48.9583Z" fill="#263238"/>
<path d="M288.12 47.1082C288.29 47.2882 289.33 46.5182 290.8 46.5282C292.27 46.5382 293.35 47.2682 293.51 47.0882C293.67 46.9082 293.42 46.6882 292.95 46.3382C292.308 45.8993 291.548 45.6656 290.77 45.6682C290.006 45.6734 289.262 45.9144 288.64 46.3582C288.19 46.6682 288.04 46.9882 288.12 47.1082Z" fill="#263238"/>
<path d="M303.12 48.9583C303.12 49.3192 303.261 49.6657 303.513 49.9237C303.766 50.1816 304.109 50.3305 304.47 50.3383C304.641 50.3491 304.813 50.3258 304.976 50.2697C305.138 50.2135 305.288 50.1257 305.417 50.0114C305.545 49.897 305.649 49.7582 305.724 49.6032C305.798 49.4482 305.841 49.28 305.85 49.1083C305.858 48.751 305.725 48.4048 305.48 48.1446C305.235 47.8845 304.897 47.7314 304.54 47.7183C304.365 47.7047 304.189 47.7262 304.022 47.7814C303.856 47.8367 303.702 47.9246 303.569 48.0401C303.437 48.1556 303.329 48.2962 303.252 48.4539C303.175 48.6116 303.13 48.7831 303.12 48.9583V48.9583Z" fill="#263238"/>
<path d="M302.59 47.3483C302.76 47.5283 303.8 46.7583 305.27 46.7583C306.74 46.7583 307.83 47.4983 307.99 47.3183C308.15 47.1383 307.89 46.9183 307.42 46.5783C306.783 46.1372 306.025 45.9032 305.25 45.9083C304.484 45.9003 303.736 46.1426 303.12 46.5983C302.67 46.9483 302.47 47.2683 302.59 47.3483Z" fill="#263238"/>
<path d="M297.25 58.2683C296.474 58.0284 295.671 57.884 294.86 57.8383C294.48 57.8383 294.13 57.7183 294.06 57.4683C294.028 57.0783 294.116 56.6878 294.31 56.3483L295.43 53.4883C296.97 49.4083 298.09 46.0583 297.92 45.9983C297.75 45.9383 296.37 49.1883 294.83 53.2683C294.46 54.2683 294.1 55.2683 293.76 56.1483C293.527 56.6046 293.46 57.1278 293.57 57.6283C293.628 57.7589 293.713 57.8756 293.82 57.9705C293.927 58.0654 294.053 58.1362 294.19 58.1783C294.4 58.2293 294.614 58.2595 294.83 58.2683C295.633 58.3695 296.446 58.3695 297.25 58.2683V58.2683Z" fill="#263238"/>
<path d="M301.58 59.2883C301.34 59.2883 301.34 60.8683 299.97 62.0083C298.6 63.1483 296.9 63.0083 296.89 63.1883C296.88 63.3683 297.27 63.4983 297.99 63.5183C298.925 63.5281 299.835 63.2096 300.56 62.6183C301.261 62.0532 301.711 61.2335 301.81 60.3383C301.87 59.6683 301.69 59.2783 301.58 59.2883Z" fill="#263238"/>
<path d="M302.21 41.5782C302.36 41.9782 303.83 41.7882 305.56 41.9982C307.29 42.2082 308.68 42.6782 308.91 42.3182C309.01 42.1382 308.77 41.7682 308.21 41.3782C307.458 40.9035 306.608 40.6064 305.724 40.5093C304.841 40.4123 303.947 40.5179 303.11 40.8182C302.47 41.1082 302.15 41.3882 302.21 41.5782Z" fill="#263238"/>
<path d="M288.66 42.8082C288.92 43.1482 289.93 42.8082 291.15 42.8082C292.37 42.8082 293.41 43.0382 293.65 42.6882C293.75 42.5182 293.59 42.1782 293.14 41.8682C292.535 41.4928 291.833 41.3039 291.122 41.3252C290.41 41.3466 289.721 41.5772 289.14 41.9882C288.69 42.2982 288.55 42.6482 288.66 42.8082Z" fill="#263238"/>
<path d="M323.47 39.2683C322.92 43.9183 321.65 49.8083 321.28 54.5683C321.286 55.0117 321.168 55.4481 320.94 55.8283C320.26 56.7283 318.63 58.6883 317.8 57.9083C315.8 56.0283 315 50.7683 314.59 48.0383C314.18 45.3083 314.26 42.5283 313.89 39.7883V39.5983C313.618 37.6803 312.619 35.9403 311.1 34.7382C310.754 34.493 310.378 34.2946 309.98 34.1483C307.16 33.1483 302.47 34.9883 299.66 36.0083C298.22 36.5383 296.81 37.1883 295.41 37.8283C293.834 38.5706 292.09 38.8847 290.354 38.739C288.618 38.5933 286.95 37.9929 285.52 36.9983C283.81 35.7583 283.66 31.8482 284.41 29.3782C286.41 22.7082 294.82 20.3783 305.59 22.9583C316.36 25.5383 324.57 29.6883 323.47 39.2683Z" fill="#263238"/>
<path d="M318.19 49.5283C318.35 49.4583 324.77 47.5283 324.56 54.1283C324.35 60.7283 317.82 59.1283 317.81 58.9383C317.8 58.7483 318.19 49.5283 318.19 49.5283Z" fill="#FFBE9D"/>
<path d="M319.9 56.5182C319.9 56.5182 320.01 56.5982 320.2 56.6982C320.473 56.8088 320.777 56.8088 321.05 56.6982C321.482 56.4442 321.839 56.0795 322.083 55.6419C322.327 55.2042 322.45 54.7093 322.44 54.2082C322.473 53.645 322.381 53.0815 322.17 52.5582C322.116 52.3516 322.012 52.1614 321.868 52.0044C321.723 51.8474 321.542 51.7285 321.34 51.6582C321.211 51.6199 321.072 51.6279 320.948 51.6808C320.824 51.7338 320.722 51.8283 320.66 51.9482C320.56 52.1282 320.6 52.2582 320.56 52.2682C320.52 52.2782 320.43 52.1582 320.49 51.8882C320.53 51.7271 320.625 51.5853 320.76 51.4882C320.946 51.3584 321.175 51.3047 321.4 51.3382C321.668 51.4011 321.915 51.5315 322.118 51.7171C322.321 51.9027 322.473 52.1372 322.56 52.3982C322.816 52.9726 322.93 53.6005 322.89 54.2282C322.9 54.8116 322.74 55.3853 322.429 55.879C322.118 56.3728 321.67 56.7652 321.14 57.0082C320.968 57.0511 320.789 57.0545 320.616 57.0182C320.443 56.9818 320.28 56.9066 320.14 56.7982C319.9 56.6782 319.87 56.5282 319.9 56.5182Z" fill="#EB996E"/>
<path d="M323.37 39.7083C321.934 40.5 320.326 40.9293 318.686 40.9589C317.046 40.9885 315.424 40.6176 313.96 39.8783C315.515 40.198 317.094 40.3853 318.68 40.4383C320.261 40.325 321.829 40.0808 323.37 39.7083V39.7083Z" fill="#455A64"/>
<path d="M323.14 41.5883C321.811 42.4568 320.246 42.8934 318.66 42.8383C317.072 42.95 315.488 42.5731 314.12 41.7583C315.612 42.064 317.127 42.2479 318.65 42.3083C320.164 42.1949 321.666 41.9541 323.14 41.5883Z" fill="#455A64"/>
<path d="M277.55 367.958L281.81 387.568C281.81 387.568 263.31 398.478 263.75 402.178L302.05 395.288L296.67 364.468L277.55 367.958Z" fill="#263238"/>
<path d="M302.05 395.288L301.39 392.198L264.91 399.958C264.91 399.958 263.34 400.958 263.75 402.178L302.05 395.288Z" fill="#455A64"/>
<path d="M321.12 370.108L321.75 390.158C321.75 390.158 301.58 397.538 301.34 401.248L340.26 401.418L340.56 370.138L321.12 370.108Z" fill="#263238"/>
<g opacity="0.6">
<path opacity="0.6" d="M340.26 401.428L340.17 398.278L302.89 399.278C302.89 399.278 301.15 400.018 301.34 401.278L340.26 401.428Z" fill="#455A64"/>
</g>
<path d="M275.47 384.778C275.47 384.778 255.47 286.908 255.47 284.948L291.13 266.108L304.93 380.958L275.47 384.778Z" fill="#263238"/>
<path d="M320.33 388.108L292.78 218.438V181.848L330.42 185.348C330.9 186.768 343.22 388.278 343.22 388.278L339.34 388.058H320.34" fill="#263238"/>
<path d="M271.11 179.258L255.49 284.948L290.42 276.478L304.65 182.698L271.11 179.258Z" fill="#263238"/>
<path d="M303.47 188.218C303.47 188.218 303.47 188.398 303.47 188.738C303.47 189.078 303.56 189.608 303.63 190.258C303.79 191.608 304.01 193.568 304.3 196.078C304.89 201.138 305.79 208.448 306.97 217.478C309.3 235.528 312.83 260.478 316.63 287.948C318.53 301.708 320.27 314.828 321.75 326.768C322.14 329.768 322.44 332.678 322.86 335.498C323.28 338.318 323.71 341.058 324.12 343.698C324.92 348.988 325.67 353.918 326.35 358.418C327.7 367.418 328.77 374.708 329.47 379.748C329.82 382.268 330.08 384.228 330.23 385.558C330.31 386.228 330.36 386.728 330.38 387.078C330.389 387.205 330.389 387.332 330.38 387.458C330.38 387.568 330.32 387.458 330.32 387.458C330.32 387.458 330.4 387.458 330.39 387.458C330.408 387.329 330.408 387.198 330.39 387.068C330.39 386.728 330.39 386.218 330.29 385.548C330.17 384.218 329.94 382.248 329.62 379.728C328.97 374.678 327.96 367.378 326.62 358.368C325.95 353.868 325.22 348.938 324.44 343.638C324.04 340.998 323.63 338.258 323.21 335.438C322.79 332.618 322.5 329.698 322.12 326.718C320.66 314.768 318.93 301.648 317.04 287.878C313.24 260.368 309.65 235.478 307.23 217.428L304.47 196.108C304.15 193.598 303.89 191.648 303.72 190.298L303.51 188.788C303.47 188.398 303.47 188.218 303.47 188.218Z" fill="#455A64"/>
<path d="M282.47 383.868C282.47 383.868 282.47 383.698 282.4 383.368C282.33 383.038 282.26 382.528 282.16 381.898C281.94 380.598 281.62 378.698 281.16 376.268L277.53 355.578L265.39 287.358C265.03 285.734 264.932 284.063 265.1 282.408C265.3 280.778 265.58 279.118 265.82 277.498C266.32 274.238 266.817 271.032 267.31 267.878C268.31 261.578 269.31 255.498 270.24 249.718C272.17 238.158 274.02 227.718 275.68 219.048C277.34 210.378 278.8 203.318 279.91 198.488C280.43 196.058 280.91 194.198 281.2 192.918C281.35 192.298 281.46 191.818 281.54 191.478C281.62 191.138 281.63 190.978 281.63 190.978C281.63 190.978 281.63 191.138 281.49 191.468C281.35 191.798 281.27 192.278 281.11 192.898C280.78 194.168 280.28 196.028 279.73 198.438C278.56 203.268 277.05 210.278 275.35 218.988C273.65 227.698 271.75 238.078 269.81 249.648C268.81 255.428 267.81 261.508 266.81 267.808C266.317 270.962 265.82 274.168 265.32 277.428C265.07 279.058 264.8 280.678 264.59 282.358C264.425 284.06 264.526 285.778 264.89 287.448C269.68 314.068 274.02 338.168 277.17 355.638C278.76 364.348 280.05 371.408 280.95 376.298C281.4 378.728 281.75 380.618 282 381.918C282.12 382.538 282.21 383.028 282.28 383.378C282.35 383.728 282.47 383.868 282.47 383.868Z" fill="#455A64"/>
<path d="M292.78 217.238C292.64 217.238 294.27 228.238 296.41 241.708C298.55 255.178 300.41 266.128 300.52 266.108C300.63 266.088 299.02 255.108 296.88 241.638C294.74 228.168 292.91 217.218 292.78 217.238Z" fill="#455A64"/>
<path d="M320 387.748C320.293 387.848 320.6 387.901 320.91 387.908C321.49 387.978 322.34 388.058 323.38 388.138C325.48 388.308 328.38 388.458 331.58 388.508C334.78 388.558 337.69 388.508 339.79 388.408C340.79 388.408 341.68 388.308 342.27 388.258C342.577 388.254 342.882 388.214 343.18 388.138C342.049 388.043 340.914 388.02 339.78 388.068C337.68 388.068 334.78 388.068 331.59 388.068C328.4 388.068 325.5 387.918 323.4 387.838C322.27 387.739 321.134 387.709 320 387.748V387.748Z" fill="#455A64"/>
<path d="M275.47 384.778C275.861 384.798 276.253 384.778 276.64 384.718L279.8 384.378C282.48 384.078 286.16 383.618 290.23 383.098C294.3 382.578 297.98 382.098 300.64 381.678L303.79 381.198C304.18 381.152 304.564 381.072 304.94 380.958C304.551 380.921 304.159 380.921 303.77 380.958C303.02 381.028 301.93 381.138 300.6 381.288C297.93 381.588 294.24 382.038 290.17 382.568C286.1 383.098 282.42 383.568 279.76 383.998L276.61 384.478C276.22 384.537 275.838 384.638 275.47 384.778Z" fill="#455A64"/>
<path d="M223.01 116.788L245.47 133.878C245.47 133.878 266.37 98.2182 268.22 95.9982C270.07 93.7782 274.76 91.4182 274.76 91.4182L272.18 137.108C272.18 137.108 260.87 165.968 245.35 164.398C233.47 163.198 212.93 131.848 212.93 131.848L223.01 116.788Z" fill="#455A64"/>
<g opacity="0.2">
<path opacity="0.2" d="M245.06 133.338C243.511 135.749 242.505 138.469 242.113 141.308C241.721 144.147 241.952 147.037 242.79 149.778C242.909 150.355 243.232 150.87 243.7 151.228C244.102 151.399 244.552 151.418 244.967 151.279C245.381 151.141 245.731 150.856 245.95 150.478C246.354 149.698 246.554 148.827 246.53 147.948C246.901 148.794 247.471 149.539 248.19 150.118C248.557 150.397 249.01 150.541 249.471 150.525C249.932 150.508 250.373 150.333 250.72 150.028C251.46 149.208 251.05 147.908 250.6 146.888C248.693 142.555 246.78 138.222 244.86 133.888" fill="black"/>
</g>
<path d="M228.66 121.908C228.8 121.998 226.5 125.858 223.51 130.528C220.52 135.198 218 138.908 217.86 138.818C217.72 138.728 220.02 134.818 223 130.198C225.98 125.578 228.52 121.818 228.66 121.908Z" fill="#263238"/>
<path d="M222.94 121.278C222.88 121.278 223.17 120.928 223.68 121.128C223.829 121.188 223.961 121.283 224.065 121.405C224.17 121.527 224.243 121.672 224.28 121.828C224.325 122.041 224.3 122.263 224.208 122.46C224.116 122.657 223.962 122.818 223.77 122.92C223.577 123.022 223.357 123.058 223.143 123.023C222.928 122.989 222.73 122.885 222.58 122.728C222.47 122.609 222.391 122.465 222.349 122.308C222.307 122.151 222.304 121.986 222.34 121.828C222.47 121.298 222.88 121.228 222.89 121.308C222.9 121.388 222.75 121.558 222.77 121.878C222.79 122.198 223.05 122.538 223.46 122.328C223.536 122.29 223.599 122.231 223.643 122.159C223.688 122.086 223.711 122.003 223.711 121.918C223.711 121.833 223.688 121.75 223.643 121.678C223.599 121.605 223.536 121.547 223.46 121.508C223.23 121.308 222.98 121.358 222.94 121.278Z" fill="#263238"/>
<path d="M245.47 144.708C244.739 143.009 244.397 141.167 244.47 139.318C244.42 136.248 245.18 133.848 245.33 133.898C245.48 133.948 245.02 136.328 245.08 139.308C245.14 142.288 245.68 144.658 245.47 144.708Z" fill="#263238"/>
<path d="M249.86 144.548C249.72 144.638 248.25 142.468 246.98 139.498C246.121 137.747 245.547 135.87 245.28 133.938C245.45 133.888 246.28 136.338 247.54 139.258C248.8 142.178 250.01 144.458 249.86 144.548Z" fill="#263238"/>
<path d="M321.79 87.1083L318.39 80.3883H293.82L289.95 88.0183L274.77 91.4583L268.23 189.348C268.189 190.589 268.49 191.817 269.1 192.898V192.898L328.79 195.108L331.22 196.108C333.36 194.788 332.03 189.328 332.05 186.768L332.82 138.288L344.63 99.5483L321.79 87.1083Z" fill="#455A64"/>
<g opacity="0.2">
<path opacity="0.2" d="M296.32 90.4683L300.66 86.1183C302.286 90.0516 303.913 93.975 305.54 97.8883C311.162 94.5889 316.512 90.8471 321.54 86.6983L305.01 92.0083C303.61 88.295 302.213 84.5883 300.82 80.8883C299.836 84.2576 298.438 87.4922 296.66 90.5183" fill="black"/>
</g>
<path d="M365.58 209.818L349.49 210.648V164.478L332.85 138.328L344.66 99.5883C347.09 100.588 365.42 146.588 370.09 159.068C370.762 160.869 371.058 162.789 370.96 164.708L365.58 209.818Z" fill="#455A64"/>
<path d="M274.77 111.618C274.94 111.618 274.14 121.108 272.99 132.758C271.84 144.408 270.77 153.868 270.6 153.848C270.43 153.828 271.23 144.368 272.39 132.698C273.55 121.028 274.61 111.608 274.77 111.618Z" fill="#263238"/>
<path d="M300.79 80.9183C299.999 83.6071 299.02 86.2369 297.86 88.7883L297.53 89.5783C297.428 89.8933 297.245 90.1761 297 90.3983C296.846 90.5088 296.663 90.5731 296.474 90.5837C296.284 90.5943 296.096 90.5508 295.93 90.4583C295.696 90.3304 295.469 90.1902 295.25 90.0383L293.04 88.5383C292.329 88.119 291.674 87.6116 291.09 87.0283C291.861 87.3202 292.593 87.7065 293.27 88.1783L295.55 89.5583C295.99 89.8383 296.43 90.1583 296.63 89.9283C296.922 89.5086 297.148 89.0465 297.3 88.5583C299.07 84.2683 300.63 80.8583 300.79 80.9183Z" fill="#263238"/>
<path d="M320.33 86.9183C319.119 87.5138 317.866 88.0186 316.58 88.4283C314.23 89.2883 310.98 90.4283 307.38 91.6683L305.38 92.3383L305.11 92.4283L305.01 92.1683C303.74 89.0983 302.64 86.3883 301.89 84.4283C301.432 83.4 301.058 82.3366 300.77 81.2483C301.35 82.2033 301.845 83.2071 302.25 84.2483C303.11 86.1583 304.25 88.8483 305.56 91.9083L305.19 91.7383L307.19 91.0583C310.8 89.8283 314.07 88.7483 316.45 87.9883C317.713 87.5283 319.01 87.1704 320.33 86.9183V86.9183Z" fill="#263238"/>
<path d="M342.1 100.968C342.1 101.148 338.69 102.088 334.68 103.878C330.67 105.668 327.68 107.598 327.54 107.448C328.091 106.879 328.725 106.397 329.42 106.018C332.626 103.977 336.118 102.424 339.78 101.408C340.528 101.148 341.309 101 342.1 100.968V100.968Z" fill="#263238"/>
<path d="M300.79 80.9182C300.802 81.0145 300.802 81.112 300.79 81.2082C300.79 81.4382 300.79 81.7182 300.79 82.0682C300.79 82.8282 300.86 83.9382 300.87 85.3782C300.87 88.2482 300.87 92.3782 300.68 97.5382C300.32 107.808 299.03 121.958 296.99 137.488C295.99 145.268 294.89 152.648 294.15 159.388C293.438 165.361 293.104 171.373 293.15 177.388C293.219 181.436 293.553 185.474 294.15 189.478C294.33 190.908 294.56 191.998 294.67 192.738C294.72 193.088 294.76 193.368 294.79 193.598C294.803 193.694 294.803 193.792 294.79 193.888C294.747 193.799 294.717 193.705 294.7 193.608C294.65 193.378 294.59 193.108 294.51 192.768C294.37 192.028 294.1 190.938 293.89 189.518C293.209 185.512 292.824 181.461 292.74 177.398C292.623 171.386 292.903 165.373 293.58 159.398C294.29 152.638 295.38 145.248 296.37 137.488C298.37 121.958 299.77 107.838 300.24 97.5882C300.5 92.4682 300.58 88.3182 300.62 85.4482C300.62 84.0482 300.62 82.9482 300.62 82.1382C300.62 81.7982 300.62 81.5082 300.62 81.2782C300.654 81.1489 300.712 81.027 300.79 80.9182V80.9182Z" fill="#263238"/>
<path d="M366.47 202.748C366.47 202.918 362.65 202.868 357.94 202.638C353.23 202.408 349.44 202.088 349.45 201.918C349.46 201.748 353.27 201.798 357.97 202.028C360.817 202.07 363.657 202.311 366.47 202.748V202.748Z" fill="#263238"/>
<path d="M352.18 204.548C352.18 204.618 352.18 204.778 352.18 204.988C352.18 205.198 352.44 205.328 352.65 205.158C352.86 204.988 352.79 204.798 352.59 204.658C352.39 204.518 352.23 204.578 352.17 204.518C352.11 204.458 352.28 204.188 352.71 204.248C352.84 204.267 352.963 204.319 353.066 204.399C353.17 204.48 353.25 204.587 353.3 204.708C353.362 204.87 353.369 205.048 353.32 205.214C353.272 205.38 353.17 205.526 353.03 205.628C352.896 205.752 352.724 205.827 352.542 205.839C352.36 205.852 352.18 205.802 352.03 205.698C351.923 205.623 351.837 205.522 351.779 205.405C351.722 205.288 351.694 205.159 351.7 205.028C351.83 204.588 352.15 204.478 352.18 204.548Z" fill="#263238"/>
<g opacity="0.2">
<path opacity="0.2" d="M333.05 138.198L327.81 128.728C325.722 145.442 326.897 162.402 331.27 178.668L332.89 138.408" fill="black"/>
</g>
<path d="M306.47 120.798C306.801 120.747 307.135 120.727 307.47 120.738L310.26 120.668C312.69 120.618 316.2 120.558 320.42 120.538H320.7V120.818C320.43 124.518 320.12 128.818 319.78 133.358V133.528L319.63 133.608L319 133.938L312.21 137.508L312.04 137.598L311.89 137.478L305.47 132.318L305.37 132.238V132.108C305.67 128.718 305.91 125.888 306.09 123.798C306.18 122.898 306.26 122.148 306.32 121.548C306.331 121.295 306.368 121.044 306.43 120.798C306.451 121.084 306.451 121.372 306.43 121.658C306.43 122.268 306.37 123.038 306.33 123.968C306.22 125.968 306.06 128.808 305.87 132.138L305.78 131.928L312.15 137.018H311.83L318.61 133.428L319.23 133.098L319.07 133.338C319.44 128.778 319.78 124.508 320.07 120.808L320.34 121.098C316.23 121.098 312.79 121.018 310.34 120.968L307.48 120.898C307.142 120.884 306.804 120.851 306.47 120.798V120.798Z" fill="#263238"/>
<path d="M276.92 193.348C276.92 193.508 275.66 193.288 274.85 192.078C274.04 190.868 274.29 189.628 274.45 189.688C274.61 189.748 274.66 190.688 275.36 191.688C276.06 192.688 276.97 193.178 276.92 193.348Z" fill="#263238"/>
<path d="M278.47 192.698C277.647 191.964 277.063 191 276.792 189.931C276.521 188.862 276.576 187.736 276.95 186.698C277.13 186.698 276.95 188.138 277.38 189.788C277.81 191.438 278.61 192.588 278.47 192.698Z" fill="#263238"/>
<path d="M323.53 185.968C323.68 185.968 323.82 188.318 322.59 190.898C321.36 193.478 319.47 194.898 319.39 194.758C319.31 194.618 320.91 193.088 322.04 190.638C323.17 188.188 323.34 185.948 323.53 185.968Z" fill="#263238"/>
<path d="M221.75 118.658C221.75 118.658 203.57 104.888 201.03 103.968C196.8 102.438 195.78 102.848 195.78 102.848L205.78 113.588C205.78 113.588 195.24 117.138 194.48 117.588C193.72 118.038 193.35 120.328 195.91 120.328C198.02 120.328 208.13 120.568 208.13 120.568L216.46 126.648L221.75 118.658Z" fill="#FFBE9D"/>
<path d="M382.61 0.0182863C382.809 -0.00609544 383.011 -0.00609544 383.21 0.0182863L384.97 0.0682855C385.36 0.0682855 385.79 0.0682855 386.27 0.0682855L387.82 0.288287L389.64 0.548285L391.64 1.05829C395.131 1.94924 398.452 3.40874 401.47 5.37829C405.955 8.20902 409.729 12.0317 412.503 16.5516C415.277 21.0715 416.977 26.168 417.47 31.4483C417.609 33.0276 417.642 34.6145 417.57 36.1983C417.51 36.9983 417.57 37.8183 417.41 38.6283C417.25 39.4383 417.16 40.2483 417.04 41.0783C416.421 44.4431 415.309 47.6982 413.74 50.7383C412.064 53.9278 409.935 56.8581 407.42 59.4383C404.74 62.0697 401.671 64.2722 398.32 65.9683C394.853 67.7492 391.099 68.9036 387.23 69.3783C386.237 69.5291 385.234 69.6126 384.23 69.6283C383.231 69.6837 382.229 69.6837 381.23 69.6283C379.212 69.5473 377.205 69.2964 375.23 68.8783C370.981 67.9661 366.938 66.2706 363.31 63.8783H363.67L351.52 68.7583L350.8 69.0483L351.01 68.2983C352.23 63.8383 353.43 59.5083 354.58 55.2983L354.64 55.6183C351.345 51.2486 349.126 46.1649 348.16 40.7783C347.698 38.2731 347.54 35.7213 347.69 33.1783C347.712 31.9515 347.825 30.7281 348.03 29.5183C348.12 28.9283 348.22 28.3383 348.31 27.7483C348.4 27.1583 348.59 26.5983 348.73 26.0283C350.764 18.0447 355.566 11.0422 362.28 6.26829C364.772 4.5205 367.49 3.12092 370.36 2.10829C370.99 1.87829 371.59 1.65828 372.18 1.45828L373.9 1.01829L375.48 0.628287C375.98 0.528287 376.48 0.478286 376.93 0.408286C377.85 0.288286 378.66 0.128288 379.36 0.0982881L381.15 0.0382868H382.24C382.363 0.023319 382.487 0.023319 382.61 0.0382868C382.488 0.0629111 382.364 0.0796119 382.24 0.088286L381.15 0.168288L379.38 0.288287C378.68 0.348287 377.88 0.518286 376.97 0.658286C370.38 1.79534 364.261 4.82172 359.358 9.36978C354.455 13.9178 350.978 19.7918 349.35 26.2783C349.22 26.8383 349.04 27.3983 348.94 27.9683C348.84 28.5383 348.77 29.1283 348.68 29.7183C348.477 30.901 348.37 32.0983 348.36 33.2983C348.222 35.7923 348.386 38.2939 348.85 40.7483C349.813 46.022 352.002 50.9956 355.24 55.2683L355.35 55.4183V55.5883C354.21 59.7883 353.03 64.1283 351.81 68.5883L351.3 68.1383L363.44 63.2483L363.63 63.1683L363.8 63.2783C367.347 65.6259 371.302 67.291 375.46 68.1883C377.386 68.5975 379.343 68.8451 381.31 68.9283C382.287 68.9634 383.265 68.9434 384.24 68.8683C385.208 68.8587 386.174 68.7785 387.13 68.6283C390.915 68.1732 394.589 67.0491 397.98 65.3083C401.26 63.6518 404.265 61.4999 406.89 58.9283C409.355 56.4115 411.443 53.552 413.09 50.4383C414.639 47.463 415.741 44.2753 416.36 40.9783C416.48 40.1683 416.61 39.3683 416.73 38.5783C416.85 37.7883 416.83 36.9883 416.89 36.1983C416.972 34.6418 416.949 33.0816 416.82 31.5283C416.355 26.3402 414.717 21.3257 412.028 16.8645C409.339 12.4033 405.67 8.61224 401.3 5.77828C398.337 3.81276 395.074 2.34035 391.64 1.41829L389.64 0.888285L387.85 0.588286L386.31 0.338286C385.84 0.288286 385.4 0.278288 385.02 0.238288L383.2 0.108286C383.002 0.0889675 382.805 0.0589232 382.61 0.0182863V0.0182863Z" fill="#263238"/>
<path d="M394.02 43.1083C393.884 43.1204 393.746 43.1204 393.61 43.1083H392.43L388.05 43.1783L373.38 43.3083H373.26V43.1883C373.14 42.4183 373.02 41.5883 372.9 40.7583C371.9 33.6483 370.98 27.2983 370.39 23.1583L370.47 23.2283H366.57H365.57H365.21C365.33 23.2151 365.45 23.2151 365.57 23.2283H366.57L370.47 23.1083H370.55V23.1783C371.17 27.3283 372.11 33.6683 373.17 40.7683L373.52 43.1983L373.38 43.0783H388.05L392.47 43.1083H393.66C393.78 43.0971 393.9 43.0971 394.02 43.1083V43.1083Z" fill="#BA84D1"/>
<path d="M373.69 43.5083H373.2L373.12 43.0083V42.8883L372.83 40.8883L370.28 23.4083H365.52C365.1 23.4083 365.03 23.4083 365.03 23.2683V23.2183C365.03 23.2183 365.03 23.2183 365.48 23.1483H366.48L370.15 23.0983V22.9983L370.25 23.0883H370.59V23.2683C370.585 23.3215 370.585 23.3751 370.59 23.4283L370.69 23.5183H370.6C371.22 27.6683 372.14 33.8983 373.18 40.8583L373.5 43.0683H387.94H393.5C393.97 43.0683 394.03 43.0683 394.03 43.2183C394.03 43.3683 394.03 43.3583 393.5 43.3683H392.32L387.95 43.4283L373.58 43.5583L373.69 43.5083ZM373.69 43.2083H377.59H373.69ZM372.35 36.1083L373.35 42.9483L373.03 40.7783C372.8 39.1883 372.57 37.6283 372.35 36.1083Z" fill="#BA84D1"/>
<path d="M372.76 38.9482H373.17H374.35L378.76 38.8782L393.99 38.7382L393.86 38.8482C394.3 36.2882 394.77 33.5082 395.26 30.6382C395.51 29.1682 395.76 27.7182 395.99 26.3282L396.13 26.4882L378.18 26.5482H371.47H371.1H371.47H372.9L378.21 26.4782L396.16 26.3282H396.32V26.4882C396.09 27.8682 395.84 29.3182 395.59 30.7982C395.1 33.6682 394.59 36.4382 394.18 39.0082V39.1182H394.07H378.84H374.43H373.25H372.84L372.76 38.9482Z" fill="#BA84D1"/>
<path d="M378.76 39.1083H372.86C372.75 39.1083 372.63 39.1083 372.63 38.9683C372.63 38.8283 372.75 38.8383 372.86 38.8283H374.34L378.76 38.7683L393.76 38.6283L395.12 30.6283C395.36 29.2583 395.59 27.9183 395.81 26.6283L378.17 26.6883H371.05C370.92 26.6883 370.8 26.6883 370.8 26.5483C370.8 26.4083 370.92 26.4183 371.05 26.4083H372.85L378.17 26.3283L395.9 26.1783H396.47L396.39 26.6583L394.39 38.6583L394.31 39.1383H393.82L378.76 39.1083ZM393.76 38.8083H391.54H393.76ZM396.1 26.5583C395.88 27.8583 395.65 29.2183 395.41 30.5583L394.06 38.5583L396.06 26.5583H396.1ZM395.89 26.2883H391.5H395.89Z" fill="#BA84D1"/>
<path d="M378.57 48.7882C378.57 48.7882 378.57 48.6082 378.45 48.2982C378.324 47.8662 378.057 47.4893 377.69 47.2282C377.424 47.0409 377.117 46.9212 376.795 46.8793C376.472 46.8375 376.145 46.8749 375.84 46.9882C375.471 47.1285 375.154 47.3779 374.931 47.7031C374.708 48.0282 374.589 48.4138 374.59 48.8082C374.598 49.2031 374.723 49.5867 374.949 49.9106C375.175 50.2344 375.492 50.4842 375.86 50.6282C376.167 50.7373 376.496 50.7698 376.819 50.7227C377.141 50.6757 377.447 50.5505 377.71 50.3582C378.07 50.0883 378.333 49.7095 378.46 49.2782C378.55 48.9782 378.55 48.7882 378.57 48.7882C378.616 48.9585 378.616 49.1379 378.57 49.3082C378.475 49.7814 378.216 50.2061 377.84 50.5082C377.592 50.7068 377.304 50.8488 376.996 50.9244C376.687 51 376.366 51.0072 376.054 50.9457C375.743 50.8842 375.449 50.7553 375.192 50.5682C374.936 50.381 374.723 50.1401 374.569 49.8623C374.416 49.5844 374.324 49.2763 374.302 48.9596C374.28 48.6428 374.327 48.325 374.441 48.0284C374.554 47.7318 374.731 47.4636 374.959 47.2424C375.187 47.0213 375.46 46.8527 375.76 46.7482C376.103 46.6219 376.472 46.586 376.833 46.6438C377.194 46.7016 377.534 46.8512 377.82 47.0782C378.199 47.3774 378.464 47.7975 378.57 48.2682C378.62 48.6082 378.59 48.7882 378.57 48.7882Z" fill="#BA84D1"/>
<path d="M376.47 51.1083C376.218 51.1082 375.967 51.0642 375.73 50.9783C375.278 50.8247 374.885 50.5343 374.605 50.1472C374.326 49.7602 374.174 49.2958 374.17 48.8183C374.166 48.386 374.283 47.9613 374.509 47.5928C374.735 47.2243 375.061 46.9269 375.448 46.7349C375.835 46.5428 376.269 46.4637 376.699 46.5068C377.129 46.5499 377.538 46.7133 377.88 46.9783C378.287 47.2935 378.567 47.7441 378.67 48.2483C378.704 48.4267 378.704 48.6099 378.67 48.7883C378.7 48.9671 378.7 49.1496 378.67 49.3283C378.57 49.8341 378.294 50.2879 377.89 50.6083C377.486 50.9289 376.986 51.1049 376.47 51.1083ZM376.04 46.7883L375.78 46.8683C375.38 47.0112 375.034 47.2744 374.789 47.6217C374.544 47.969 374.413 48.3835 374.413 48.8083C374.413 49.2332 374.544 49.6477 374.789 49.995C375.034 50.3423 375.38 50.6054 375.78 50.7483L376.04 50.8183L375.79 50.7383C375.393 50.5934 375.051 50.3301 374.809 49.984C374.567 49.6379 374.437 49.2257 374.437 48.8033C374.437 48.381 374.567 47.9688 374.809 47.6227C375.051 47.2766 375.393 47.0132 375.79 46.8683L376.04 46.7883ZM376.52 46.9883C376.298 46.9862 376.077 47.0269 375.87 47.1083C375.526 47.2399 375.23 47.4729 375.021 47.7765C374.812 48.08 374.7 48.4398 374.7 48.8083C374.704 49.1456 374.8 49.4754 374.98 49.7611C375.159 50.0468 375.414 50.2775 375.716 50.4275C376.018 50.5775 376.356 50.6411 376.692 50.6113C377.028 50.5814 377.349 50.4593 377.62 50.2583C377.956 50.0076 378.204 49.6578 378.33 49.2583C378.368 49.1377 378.395 49.0138 378.41 48.8883C378.41 48.8883 378.41 48.8283 378.41 48.7983C378.404 48.772 378.404 48.7447 378.41 48.7183C378.391 48.5926 378.361 48.4687 378.32 48.3483C378.2 47.946 377.95 47.5946 377.61 47.3483C377.297 47.1172 376.919 46.9911 376.53 46.9883H376.52Z" fill="#BA84D1"/>
<path d="M391.85 48.7083C391.85 48.7083 391.85 48.5283 391.73 48.2183C391.602 47.79 391.335 47.4168 390.97 47.1583C390.675 46.9609 390.332 46.8456 389.978 46.8244C389.623 46.8033 389.269 46.8769 388.952 47.0378C388.636 47.1987 388.368 47.441 388.176 47.7399C387.984 48.0388 387.875 48.3834 387.86 48.7383C387.871 49.1326 387.999 49.5148 388.226 49.8369C388.454 50.159 388.772 50.4065 389.14 50.5483C389.447 50.6574 389.776 50.6899 390.098 50.6428C390.421 50.5958 390.727 50.4706 390.99 50.2783C391.349 50.012 391.612 49.6366 391.74 49.2083C391.83 48.8983 391.83 48.7083 391.85 48.7083C391.891 48.8792 391.891 49.0574 391.85 49.2283C391.762 49.7071 391.502 50.1373 391.12 50.4383C390.798 50.6891 390.412 50.8445 390.006 50.8867C389.6 50.9288 389.19 50.8562 388.823 50.6769C388.457 50.4977 388.148 50.2191 387.931 49.8728C387.715 49.5265 387.601 49.1265 387.601 48.7183C387.601 48.3101 387.715 47.9101 387.931 47.5638C388.148 47.2176 388.457 46.939 388.823 46.7597C389.19 46.5805 389.6 46.5078 390.006 46.55C390.412 46.5922 390.798 46.7475 391.12 46.9983C391.501 47.2995 391.766 47.7236 391.87 48.1983C391.908 48.3672 391.901 48.5429 391.85 48.7083V48.7083Z" fill="#BA84D1"/>
<path d="M389.76 51.0283C389.505 51.0309 389.251 50.9904 389.01 50.9083C388.688 50.8033 388.394 50.6289 388.147 50.3975C387.9 50.1661 387.708 49.8834 387.582 49.5692C387.457 49.2551 387.402 48.9173 387.421 48.5796C387.441 48.2419 387.534 47.9126 387.695 47.615C387.856 47.3174 388.08 47.0587 388.351 46.8572C388.623 46.6557 388.936 46.5163 389.267 46.4489C389.599 46.3815 389.941 46.3877 390.27 46.4671C390.598 46.5465 390.906 46.6971 391.17 46.9083C391.573 47.227 391.852 47.676 391.96 48.1783C391.994 48.3567 391.994 48.5399 391.96 48.7183C391.99 48.8971 391.99 49.0796 391.96 49.2583C391.854 49.7646 391.576 50.2185 391.173 50.5429C390.77 50.8674 390.267 51.0424 389.75 51.0383L389.76 51.0283ZM389.31 46.7183L389.07 46.7883C388.67 46.9312 388.324 47.1944 388.079 47.5417C387.834 47.889 387.703 48.3034 387.703 48.7283C387.703 49.1532 387.834 49.5677 388.079 49.915C388.324 50.2623 388.67 50.5254 389.07 50.6683L389.36 50.7483L389.08 50.6683C388.684 50.521 388.343 50.2563 388.102 49.9095C387.861 49.5627 387.732 49.1506 387.732 48.7283C387.732 48.3061 387.861 47.8939 388.102 47.5472C388.343 47.2004 388.684 46.9356 389.08 46.7883L389.31 46.7183ZM389.81 46.9083C389.588 46.9052 389.367 46.9459 389.16 47.0283C388.916 47.1215 388.696 47.2659 388.513 47.4517C388.33 47.6376 388.189 47.8605 388.1 48.1055C388.011 48.3505 387.975 48.6119 387.996 48.8718C388.016 49.1317 388.093 49.3842 388.219 49.6121C388.346 49.84 388.52 50.0381 388.73 50.1929C388.94 50.3476 389.18 50.4555 389.435 50.5092C389.691 50.5629 389.954 50.5612 390.209 50.5041C390.463 50.447 390.702 50.3359 390.91 50.1783C391.246 49.9276 391.494 49.5778 391.62 49.1783C391.653 49.0564 391.68 48.9329 391.7 48.8083C391.695 48.7785 391.695 48.7481 391.7 48.7183C391.694 48.692 391.694 48.6647 391.7 48.6383C391.7 48.5583 391.7 48.4283 391.61 48.2683C391.49 47.866 391.24 47.5146 390.9 47.2683C390.584 47.0364 390.202 46.9104 389.81 46.9083V46.9083Z" fill="#BA84D1"/>
</svg>
